<svg xmlns="http://www.w3.org/2000/svg" xmlns:xlink="http://www.w3.org/1999/xlink"><symbol viewBox="0 0 130 220" id="icon-arrow_next" xmlns="http://www.w3.org/2000/svg"><path d="M12.568 219.077C8.585 216.625.497 207.86-.405 205.02c-.394-1.243-.412-3.886-.04-5.872.582-3.102 6.696-9.577 43.345-45.906l42.668-42.295L42.842 68.69C13.55 39.717-.083 25.566-.518 23.676c-1.234-5.36.343-9.07 6.341-14.917C14.205.59 17.995-.754 23.867 2.367c4.02 2.137 103.896 102.682 104.7 105.402 1.951 6.6 2.067 6.466-51.615 59.88-28.07 27.931-52.015 51.33-53.21 51.998-3.174 1.773-7.748 1.54-11.174-.57z" fill="#d25300"/></symbol><symbol viewBox="0 0 130 220" id="icon-arrow_prev" xmlns="http://www.w3.org/2000/svg"><path d="M107.364 220.718c-1.1-.597-25.047-24.08-53.217-52.183-35.897-35.813-51.4-51.932-51.83-53.884-1.453-6.616-1.213-6.892 51.705-59.546C82.07 27.198 105.995 3.818 107.191 3.15c5.469-3.056 10.765-1.054 18.307 6.92 5.827 6.162 6.834 8.49 5.876 13.597-.586 3.124-6.604 9.497-43.345 45.907l-42.665 42.28 42.724 42.255c29.26 28.94 42.923 43.124 43.36 45.012 1.237 5.357-.34 9.069-6.339 14.916-3.16 3.08-6.728 6.101-7.929 6.714-2.744 1.399-7.205 1.384-9.816-.033z" fill="#d25300"/></symbol><symbol viewBox="0 0 240 210" id="icon-buy" xmlns="http://www.w3.org/2000/svg"><path d="M18.259 202.304c-4.84-1.181-8.231-3.94-10.43-8.482-2.016-4.165-2.05-5.6-2.05-88.95 0-92.634-.244-88.624 5.804-94.99 6.195-6.523 1.051-6.134 84.979-6.442 51.98-.19 77.55.062 80.263.792 5.309 1.43 10.667 6.292 11.925 10.82.56 2.018 1.021 6.644 1.024 10.28l.006 6.613 5.574.655c10.416 1.224 17.786 6.059 21.526 14.12 1.606 3.462 1.86 6.641 1.878 23.61l.022 19.61 5.411.559c6.209.64 10.065 2.807 12.14 6.82 2.081 4.025 2.081 36.778 0 40.802-2.075 4.013-5.931 6.18-12.14 6.82l-5.411.56-.022 19.61c-.025 21.932-.662 24.695-7.106 30.809-7.61 7.22-1.27 6.782-100.872 6.961-49.225.088-90.86-.171-92.521-.577zm182.45-11.835c7.065-3.603 7.534-5.17 7.881-26.319l.31-18.93-19.81-.006c-21.536-.006-25.701-.654-29.385-4.57-2.374-2.526-2.432-2.999-2.732-22.358l-.307-19.777 2.621-3.115c1.442-1.714 4.28-3.576 6.307-4.14 2.027-.562 12.6-1.025 23.496-1.029l19.81-.005-.31-18.93c-.347-21.148-.816-22.715-7.881-26.318-3.188-1.625-9.61-1.749-91.114-1.75-54.55 0-88.654-.37-90.25-.977l-2.565-.975v73.647c0 67.125.146 73.808 1.655 75.475 1.58 1.745 5.69 1.828 90.25 1.827 82.37-.001 88.836-.124 92.024-1.75zm25.57-72.749v-16l-28.93-.265c-22.48-.207-29.111.016-29.735 1-.936 1.473-1.129 27.834-.222 30.198.545 1.42 3.833 1.568 29.75 1.332l29.138-.265zm-47.5-92.943c0-6.558-.264-7.628-2.222-9-1.964-1.376-11.041-1.557-78.077-1.557H22.626l-2.923 2.923c-3.82 3.82-4.016 9.076-.469 12.623l2.455 2.454H178.78z"/></symbol><symbol viewBox="0 0 160 160" id="icon-close" xmlns="http://www.w3.org/2000/svg"><path d="M8.743 150.58l-8.744-8.745 31.244-31.256 31.245-31.257-31.245-31.256L0 16.809l8.744-8.744L17.487-.68l31.256 31.244L80 61.81l31.257-31.245L142.512-.679l8.744 8.744 8.744 8.744-31.244 31.257-31.245 31.256 31.245 31.257L160 141.835l-8.744 8.744-8.744 8.744-31.256-31.244L80 96.834l-31.257 31.245-31.256 31.244z" fill="#94a4a5"/></symbol><symbol viewBox="0 0 310 210" id="icon-delivery" xmlns="http://www.w3.org/2000/svg"><path d="M93.587 203.86c-8.994-1.634-17.355-8.903-20.22-17.58-.677-2.054-.968-6.447-.688-10.37.574-8.025 4.42-15.016 10.63-19.318 10.331-7.16 26.078-5.77 34.328 3.032 9.9 10.56 9.242 28.326-1.403 37.944-6.46 5.836-13.848 7.889-22.647 6.291zm15.587-15.127c3.192-3.192 3.677-4.334 4.004-9.432.293-4.562-.064-6.497-1.673-9.06-4.21-6.705-12.44-9.054-19.683-5.618-10.27 4.874-11.05 19.68-1.381 26.196 2.928 1.973 4.448 2.292 9.3 1.952 5.076-.355 6.255-.86 9.433-4.038zm130.61 15.223c-8.887-1.753-16.698-7.914-20.134-15.883-2.316-5.372-2.036-15.673.563-20.69C225.578 157.026 233.493 152 244.44 152c15.95 0 27.051 12.314 25.747 28.562-1.24 15.436-15.421 26.348-30.404 23.394zm12.759-13.226c6.489-4.335 8.68-12.908 5.046-19.746-7.346-13.824-28.14-8.64-28.14 7.016 0 11.875 13.355 19.236 23.094 12.73zM37.096 168.171c-1.363-1.506-1.655-4.143-1.655-14.943 0-12.419.118-13.197 2.222-14.671 6.042-4.232 8.778-.72 8.778 11.272V159h7.345c7.885 0 10.655 1.475 10.655 5.674 0 4.284-2.87 5.326-14.674 5.326-9.402 0-11.259-.268-12.671-1.829zm96.677-.786c-1.537-2.346-1.561-2.887-.235-5.25l1.478-2.635 26.212-.267 26.213-.266V17h-141v19.929c0 16.783-.248 20.176-1.572 21.5-2.107 2.107-5.742 1.987-7.773-.258-1.441-1.592-1.655-4.863-1.655-25.309 0-18.7.289-23.875 1.42-25.42C38.243 5.547 40.228 5.5 116.94 5.5s78.696.048 80.08 1.941c1.036 1.417 1.42 5.13 1.42 13.75V33h52.911l21.294 17.582c11.712 9.67 22.082 18.495 23.045 19.61 1.613 1.87 1.75 5.702 1.75 48.919 0 55.353 1.052 50.889-12 50.889-6.667 0-8.334-.333-10-2-2.397-2.397-2.5-3.841-.481-6.723 1.123-1.605 2.75-2.248 6.25-2.473l4.73-.304.242-41 .24-41-19.652-16.25L247.117 44h-48.676v115h7.345c5.845 0 7.683.373 9 1.829 2.17 2.399 2.1 5.458-.174 7.516-1.635 1.48-5.918 1.655-40.477 1.655h-38.648zM8.78 131c-4.338-1.749-4.132-8.369.312-10.058 1.387-.528 18.438-.943 38.692-.943 39.994 0 40.658.098 40.658 6 0 5.917-.62 6.007-40.973 5.937-20.09-.035-37.5-.456-38.69-.936zm204.884-11.558c-2.204-1.544-2.222-1.78-2.222-28.8 0-19.856.325-27.568 1.2-28.443.845-.845 6.534-1.198 19.25-1.192l18.05.008 10.25 9.134 10.25 9.133v19.301c0 18.813-.057 19.342-2.223 20.859-1.868 1.308-6.22 1.556-27.277 1.556-21.059 0-25.41-.248-27.278-1.556zm45.778-22.24V84.409l-6.93-6.204L245.583 72h-23.141v18.333c0 10.084.3 18.634.666 19 .367.367 8.692.667 18.5.667h17.834zm-240.345 4.968c-2.172-2.399-2.1-5.458.173-7.516C20.902 93.177 25.09 93 58.335 93c23.469 0 37.944.378 39.148 1.023 3.323 1.778 4.319 4.777 2.506 7.544L98.395 104H59.573c-36.34 0-38.928-.117-40.477-1.829zM31.44 75c-2.407-2.407-2.501-3.84-.444-6.777L32.554 66h77.773l1.557 2.223c2.057 2.937 1.964 4.37-.443 6.777-1.93 1.93-3.334 2-40 2-36.667 0-38.07-.07-40-2z"/></symbol><symbol viewBox="0 0 130 80" id="icon-select_arrow" xmlns="http://www.w3.org/2000/svg"><path d="M32.547 46.163L.459 13.326l6.504-6.413L13.468.5 39.405 27l25.937 26.5L91.28 27 117.216.5l6.505 6.413 6.504 6.413-32.088 32.837C80.49 64.223 65.731 79 65.342 79c-.389 0-15.147-14.777-32.795-32.837z"/></symbol></svg>