<svg xmlns="http://www.w3.org/2000/svg" xmlns:xlink="http://www.w3.org/1999/xlink"><symbol viewBox="0 0 130 220" id="icon-arrow_next" xmlns="http://www.w3.org/2000/svg"><path d="M12.568 219.077C8.585 216.625.497 207.86-.405 205.02c-.394-1.243-.412-3.886-.04-5.872.582-3.102 6.696-9.577 43.345-45.906l42.668-42.295L42.842 68.69C13.55 39.717-.083 25.566-.518 23.676c-1.234-5.36.343-9.07 6.341-14.917C14.205.59 17.995-.754 23.867 2.367c4.02 2.137 103.896 102.682 104.7 105.402 1.951 6.6 2.067 6.466-51.615 59.88-28.07 27.931-52.015 51.33-53.21 51.998-3.174 1.773-7.748 1.54-11.174-.57z" fill="#d25300"/></symbol><symbol viewBox="0 0 130 220" id="icon-arrow_prev" xmlns="http://www.w3.org/2000/svg"><path d="M107.364 220.718c-1.1-.597-25.047-24.08-53.217-52.183-35.897-35.813-51.4-51.932-51.83-53.884-1.453-6.616-1.213-6.892 51.705-59.546C82.07 27.198 105.995 3.818 107.191 3.15c5.469-3.056 10.765-1.054 18.307 6.92 5.827 6.162 6.834 8.49 5.876 13.597-.586 3.124-6.604 9.497-43.345 45.907l-42.665 42.28 42.724 42.255c29.26 28.94 42.923 43.124 43.36 45.012 1.237 5.357-.34 9.069-6.339 14.916-3.16 3.08-6.728 6.101-7.929 6.714-2.744 1.399-7.205 1.384-9.816-.033z" fill="#d25300"/></symbol></svg>