<svg xmlns="http://www.w3.org/2000/svg" xmlns:xlink="http://www.w3.org/1999/xlink"><symbol viewBox="0 0 210 210" id="icon-add" xmlns="http://www.w3.org/2000/svg"><path d="M92.762 209.534c-.825-.327-2.288-1.28-3.25-2.119-1.61-1.402-1.75-4.574-1.75-39.37 0-36.511-.07-37.915-2-39.845-1.93-1.93-3.334-2-39.928-2H7.907l-2.073-2.634c-1.804-2.294-2.072-4.024-2.072-13.366 0-9.34.268-11.07 2.072-13.365L7.907 94.2h37.927c36.594 0 37.998-.07 39.928-2 1.93-1.93 2-3.333 2-39.927V14.346l2.635-2.073C92.69 10.47 94.42 10.2 103.762 10.2c9.341 0 11.071.269 13.365 2.073l2.635 2.073v37.927c0 36.594.07 37.998 2 39.927 1.93 1.93 3.333 2 39.927 2h37.928l2.072 2.635c1.805 2.294 2.073 4.024 2.073 13.365 0 9.342-.268 11.072-2.073 13.366l-2.072 2.634h-37.928c-36.594 0-37.998.07-39.927 2-1.93 1.93-2 3.334-2 39.845 0 45.475 1.395 41.543-14.852 41.87-5.857.117-11.323-.054-12.148-.38z"/></symbol><symbol viewBox="0 0 130 220" id="icon-arrow_next" xmlns="http://www.w3.org/2000/svg"><path d="M12.568 219.077C8.585 216.625.497 207.86-.405 205.02c-.394-1.243-.412-3.886-.04-5.872.582-3.102 6.696-9.577 43.345-45.906l42.668-42.295L42.842 68.69C13.55 39.717-.083 25.566-.518 23.676c-1.234-5.36.343-9.07 6.341-14.917C14.205.59 17.995-.754 23.867 2.367c4.02 2.137 103.896 102.682 104.7 105.402 1.951 6.6 2.067 6.466-51.615 59.88-28.07 27.931-52.015 51.33-53.21 51.998-3.174 1.773-7.748 1.54-11.174-.57z" fill="#d25300"/></symbol><symbol viewBox="0 0 130 220" id="icon-arrow_prev" xmlns="http://www.w3.org/2000/svg"><path d="M107.364 220.718c-1.1-.597-25.047-24.08-53.217-52.183-35.897-35.813-51.4-51.932-51.83-53.884-1.453-6.616-1.213-6.892 51.705-59.546C82.07 27.198 105.995 3.818 107.191 3.15c5.469-3.056 10.765-1.054 18.307 6.92 5.827 6.162 6.834 8.49 5.876 13.597-.586 3.124-6.604 9.497-43.345 45.907l-42.665 42.28 42.724 42.255c29.26 28.94 42.923 43.124 43.36 45.012 1.237 5.357-.34 9.069-6.339 14.916-3.16 3.08-6.728 6.101-7.929 6.714-2.744 1.399-7.205 1.384-9.816-.033z" fill="#d25300"/></symbol><symbol viewBox="0 0 240 210" id="icon-buy" xmlns="http://www.w3.org/2000/svg"><path d="M18.259 202.304c-4.84-1.181-8.231-3.94-10.43-8.482-2.016-4.165-2.05-5.6-2.05-88.95 0-92.634-.244-88.624 5.804-94.99 6.195-6.523 1.051-6.134 84.979-6.442 51.98-.19 77.55.062 80.263.792 5.309 1.43 10.667 6.292 11.925 10.82.56 2.018 1.021 6.644 1.024 10.28l.006 6.613 5.574.655c10.416 1.224 17.786 6.059 21.526 14.12 1.606 3.462 1.86 6.641 1.878 23.61l.022 19.61 5.411.559c6.209.64 10.065 2.807 12.14 6.82 2.081 4.025 2.081 36.778 0 40.802-2.075 4.013-5.931 6.18-12.14 6.82l-5.411.56-.022 19.61c-.025 21.932-.662 24.695-7.106 30.809-7.61 7.22-1.27 6.782-100.872 6.961-49.225.088-90.86-.171-92.521-.577zm182.45-11.835c7.065-3.603 7.534-5.17 7.881-26.319l.31-18.93-19.81-.006c-21.536-.006-25.701-.654-29.385-4.57-2.374-2.526-2.432-2.999-2.732-22.358l-.307-19.777 2.621-3.115c1.442-1.714 4.28-3.576 6.307-4.14 2.027-.562 12.6-1.025 23.496-1.029l19.81-.005-.31-18.93c-.347-21.148-.816-22.715-7.881-26.318-3.188-1.625-9.61-1.749-91.114-1.75-54.55 0-88.654-.37-90.25-.977l-2.565-.975v73.647c0 67.125.146 73.808 1.655 75.475 1.58 1.745 5.69 1.828 90.25 1.827 82.37-.001 88.836-.124 92.024-1.75zm25.57-72.749v-16l-28.93-.265c-22.48-.207-29.111.016-29.735 1-.936 1.473-1.129 27.834-.222 30.198.545 1.42 3.833 1.568 29.75 1.332l29.138-.265zm-47.5-92.943c0-6.558-.264-7.628-2.222-9-1.964-1.376-11.041-1.557-78.077-1.557H22.626l-2.923 2.923c-3.82 3.82-4.016 9.076-.469 12.623l2.455 2.454H178.78z"/></symbol><symbol viewBox="0 0 160 160" id="icon-close" xmlns="http://www.w3.org/2000/svg"><path d="M8.743 150.58l-8.744-8.745 31.244-31.256 31.245-31.257-31.245-31.256L0 16.809l8.744-8.744L17.487-.68l31.256 31.244L80 61.81l31.257-31.245L142.512-.679l8.744 8.744 8.744 8.744-31.244 31.257-31.245 31.256 31.245 31.257L160 141.835l-8.744 8.744-8.744 8.744-31.256-31.244L80 96.834l-31.257 31.245-31.256 31.244z" fill="#94a4a5"/></symbol><symbol viewBox="0 0 310 210" id="icon-delivery" xmlns="http://www.w3.org/2000/svg"><path d="M93.587 203.86c-8.994-1.634-17.355-8.903-20.22-17.58-.677-2.054-.968-6.447-.688-10.37.574-8.025 4.42-15.016 10.63-19.318 10.331-7.16 26.078-5.77 34.328 3.032 9.9 10.56 9.242 28.326-1.403 37.944-6.46 5.836-13.848 7.889-22.647 6.291zm15.587-15.127c3.192-3.192 3.677-4.334 4.004-9.432.293-4.562-.064-6.497-1.673-9.06-4.21-6.705-12.44-9.054-19.683-5.618-10.27 4.874-11.05 19.68-1.381 26.196 2.928 1.973 4.448 2.292 9.3 1.952 5.076-.355 6.255-.86 9.433-4.038zm130.61 15.223c-8.887-1.753-16.698-7.914-20.134-15.883-2.316-5.372-2.036-15.673.563-20.69C225.578 157.026 233.493 152 244.44 152c15.95 0 27.051 12.314 25.747 28.562-1.24 15.436-15.421 26.348-30.404 23.394zm12.759-13.226c6.489-4.335 8.68-12.908 5.046-19.746-7.346-13.824-28.14-8.64-28.14 7.016 0 11.875 13.355 19.236 23.094 12.73zM37.096 168.171c-1.363-1.506-1.655-4.143-1.655-14.943 0-12.419.118-13.197 2.222-14.671 6.042-4.232 8.778-.72 8.778 11.272V159h7.345c7.885 0 10.655 1.475 10.655 5.674 0 4.284-2.87 5.326-14.674 5.326-9.402 0-11.259-.268-12.671-1.829zm96.677-.786c-1.537-2.346-1.561-2.887-.235-5.25l1.478-2.635 26.212-.267 26.213-.266V17h-141v19.929c0 16.783-.248 20.176-1.572 21.5-2.107 2.107-5.742 1.987-7.773-.258-1.441-1.592-1.655-4.863-1.655-25.309 0-18.7.289-23.875 1.42-25.42C38.243 5.547 40.228 5.5 116.94 5.5s78.696.048 80.08 1.941c1.036 1.417 1.42 5.13 1.42 13.75V33h52.911l21.294 17.582c11.712 9.67 22.082 18.495 23.045 19.61 1.613 1.87 1.75 5.702 1.75 48.919 0 55.353 1.052 50.889-12 50.889-6.667 0-8.334-.333-10-2-2.397-2.397-2.5-3.841-.481-6.723 1.123-1.605 2.75-2.248 6.25-2.473l4.73-.304.242-41 .24-41-19.652-16.25L247.117 44h-48.676v115h7.345c5.845 0 7.683.373 9 1.829 2.17 2.399 2.1 5.458-.174 7.516-1.635 1.48-5.918 1.655-40.477 1.655h-38.648zM8.78 131c-4.338-1.749-4.132-8.369.312-10.058 1.387-.528 18.438-.943 38.692-.943 39.994 0 40.658.098 40.658 6 0 5.917-.62 6.007-40.973 5.937-20.09-.035-37.5-.456-38.69-.936zm204.884-11.558c-2.204-1.544-2.222-1.78-2.222-28.8 0-19.856.325-27.568 1.2-28.443.845-.845 6.534-1.198 19.25-1.192l18.05.008 10.25 9.134 10.25 9.133v19.301c0 18.813-.057 19.342-2.223 20.859-1.868 1.308-6.22 1.556-27.277 1.556-21.059 0-25.41-.248-27.278-1.556zm45.778-22.24V84.409l-6.93-6.204L245.583 72h-23.141v18.333c0 10.084.3 18.634.666 19 .367.367 8.692.667 18.5.667h17.834zm-240.345 4.968c-2.172-2.399-2.1-5.458.173-7.516C20.902 93.177 25.09 93 58.335 93c23.469 0 37.944.378 39.148 1.023 3.323 1.778 4.319 4.777 2.506 7.544L98.395 104H59.573c-36.34 0-38.928-.117-40.477-1.829zM31.44 75c-2.407-2.407-2.501-3.84-.444-6.777L32.554 66h77.773l1.557 2.223c2.057 2.937 1.964 4.37-.443 6.777-1.93 1.93-3.334 2-40 2-36.667 0-38.07-.07-40-2z"/></symbol><symbol viewBox="0 0 330 330" id="icon-edit" xmlns="http://www.w3.org/2000/svg"><path d="M1.398 167.797v-165h330v330h-330z" fill="#fefefe"/><path d="M155.898 332.102c-4.92-.442-8.315-2.091-9.724-4.724-.588-1.1-1.415-5.428-1.838-9.62-1.701-16.878-12.605-29.12-28.567-32.07-10.198-1.885-22.712 1.935-31.157 9.511-7.8 6.999-11.282 5.736-26.549-9.63-15.54-15.64-16.923-19.258-10.242-26.772 7.556-8.499 11.259-19.07 10.123-28.901-.924-8.006-5.615-17.078-11.625-22.48-5.31-4.776-13.863-8.616-19.208-8.625-5.167-.009-10.18-1.799-12.775-4.56-2.279-2.426-2.435-3.378-2.788-17.029-.7-27.05.476-29.826 13.305-31.42 18.442-2.291 30.556-12.857 33.596-29.3 1.92-10.384-1.478-20.89-10.076-31.159-3.548-4.237-4.084-5.465-3.625-8.295.652-4.015 5.777-10.294 17.328-21.228 13.409-12.693 15.959-13.298 24.822-5.89 7.403 6.187 12.588 8.183 22.5 8.665 11.27.548 17.96-1.859 25.342-9.118 6.537-6.428 9.538-12.76 11.12-23.455 1.37-9.266 2.484-10.941 8.148-12.255 4.923-1.142 29.438-1.144 35.354-.002 5.985 1.155 7.6 3.457 8.39 11.951.997 10.728 4.012 17.626 10.566 24.18 7.789 7.79 14.504 10.276 26.08 9.66 9.984-.532 15.45-2.638 22.353-8.612 5.777-5 8.813-5.904 13.003-3.872 4.292 2.081 14.695 11.701 22.328 20.647 8.016 9.395 8.38 12.472 2.293 19.387-2.213 2.513-5.25 7.19-6.75 10.39-2.299 4.907-2.727 7.155-2.727 14.32 0 7.095.436 9.43 2.635 14.12 5.608 11.959 15.78 19.07 29.772 20.81 6.131.764 7.899 1.414 10.261 3.777 2.69 2.69 2.89 3.485 3.482 13.828.933 16.302-.247 27.833-3.207 31.35-2.046 2.433-3.302 2.898-9.158 3.389-9.633.807-17.299 3.973-23.626 9.756-14.075 12.863-15.25 33.168-2.812 48.59 6.135 7.608 6.722 9.38 4.59 13.874-1.988 4.188-19.537 22.221-25.403 26.103-5.766 3.815-8.925 3.417-15.525-1.96-10.452-8.514-24.523-11.332-36.305-7.27-11.92 4.109-21.594 17.295-22.893 31.208-.824 8.827-3.014 11.463-10.395 12.51-5.418.77-22.883.896-30.416.22zm32.072-108.418c15.548-4.757 28.871-18.18 34.353-34.606 2.602-7.796 2.832-22.343.48-30.35-5.42-18.452-19.988-32.66-38.405-37.455-8.472-2.206-22.108-1.581-30.46 1.396-30.72 10.95-44.613 46.696-29.308 75.411 12.144 22.785 38.171 33.306 63.34 25.604z" fill="#c8d0d1"/></symbol><symbol viewBox="0 0 180 180" id="icon-liked" xmlns="http://www.w3.org/2000/svg"><path d="M68.561 146.41c-1.1-.278-3.125-.962-4.5-1.52s-8.903-1.067-16.729-1.13l-14.229-.114-3.27-3.268-3.272-3.268-.268-32.732c-.35-42.712-1.1-41.232 20.9-41.232 6.718 0 12.893.478 14.028 1.086 2.868 1.535 10.59-3.373 13.562-8.621 2.01-3.55 2.247-5.345 2.262-17.168.018-14.176.807-17.425 4.66-19.18 8.198-3.736 18.583-1.946 24.792 4.273 5.13 5.137 6.564 9.813 6.564 21.394 0 4.98.273 9.764.607 10.634.503 1.311 2.515 1.583 11.75 1.588 6.129.003 12.878.487 14.998 1.076 8.173 2.269 15.682 12.528 15.626 21.346-.042 6.382-7.801 51.392-9.465 54.897-2.434 5.13-7.586 9.322-13.683 11.132-4.2 1.247-10.673 1.521-33.764 1.427-15.713-.064-29.469-.343-30.569-.62zm61.922-17.514c2.321-2.062 2.828-4.147 6.056-24.946 1.937-12.484 3.522-23.621 3.522-24.75 0-1.13-.9-2.954-2-4.054-1.837-1.837-3.333-2-18.389-2-22.218 0-20.945 1.171-21.646-19.909-.44-13.24-.833-16.387-2.213-17.768-2.241-2.241-2.525-1.235-3.009 10.677-.287 7.072-.969 10.83-2.667 14.702-2.623 5.984-10.52 13.96-17.15 17.322-2.434 1.235-4.756 2.747-5.16 3.36-.404.614-.742 10.924-.75 22.912l-.016 21.795 2.455 2.455 2.454 2.454h27.99c27.61 0 28.024-.03 30.523-2.25zM49.48 127.54c1.381-.53 1.581-3.64 1.581-24.557v-23.95l-4.25.307-4.25.307-.269 23.43c-.28 24.382-.18 25.017 3.938 25.055.917.008 2.38-.258 3.25-.592z"/></symbol><symbol viewBox="0 0 130 80" id="icon-select_arrow" xmlns="http://www.w3.org/2000/svg"><path d="M32.547 46.163L.459 13.326l6.504-6.413L13.468.5 39.405 27l25.937 26.5L91.28 27 117.216.5l6.505 6.413 6.504 6.413-32.088 32.837C80.49 64.223 65.731 79 65.342 79c-.389 0-15.147-14.777-32.795-32.837z"/></symbol></svg>