<svg xmlns="http://www.w3.org/2000/svg" xmlns:xlink="http://www.w3.org/1999/xlink"><symbol viewBox="0 0 210 210" id="icon-add" xmlns="http://www.w3.org/2000/svg"><path d="M92.762 209.534c-.825-.327-2.288-1.28-3.25-2.119-1.61-1.402-1.75-4.574-1.75-39.37 0-36.511-.07-37.915-2-39.845-1.93-1.93-3.334-2-39.928-2H7.907l-2.073-2.634c-1.804-2.294-2.072-4.024-2.072-13.366 0-9.34.268-11.07 2.072-13.365L7.907 94.2h37.927c36.594 0 37.998-.07 39.928-2 1.93-1.93 2-3.333 2-39.927V14.346l2.635-2.073C92.69 10.47 94.42 10.2 103.762 10.2c9.341 0 11.071.269 13.365 2.073l2.635 2.073v37.927c0 36.594.07 37.998 2 39.927 1.93 1.93 3.333 2 39.927 2h37.928l2.072 2.635c1.805 2.294 2.073 4.024 2.073 13.365 0 9.342-.268 11.072-2.073 13.366l-2.072 2.634h-37.928c-36.594 0-37.998.07-39.927 2-1.93 1.93-2 3.334-2 39.845 0 45.475 1.395 41.543-14.852 41.87-5.857.117-11.323-.054-12.148-.38z"/></symbol><symbol viewBox="0 0 130 220" id="icon-arrow_next" xmlns="http://www.w3.org/2000/svg"><path d="M12.568 219.077C8.585 216.625.497 207.86-.405 205.02c-.394-1.243-.412-3.886-.04-5.872.582-3.102 6.696-9.577 43.345-45.906l42.668-42.295L42.842 68.69C13.55 39.717-.083 25.566-.518 23.676c-1.234-5.36.343-9.07 6.341-14.917C14.205.59 17.995-.754 23.867 2.367c4.02 2.137 103.896 102.682 104.7 105.402 1.951 6.6 2.067 6.466-51.615 59.88-28.07 27.931-52.015 51.33-53.21 51.998-3.174 1.773-7.748 1.54-11.174-.57z" fill="#d25300"/></symbol><symbol viewBox="0 0 130 220" id="icon-arrow_prev" xmlns="http://www.w3.org/2000/svg"><path d="M107.364 220.718c-1.1-.597-25.047-24.08-53.217-52.183-35.897-35.813-51.4-51.932-51.83-53.884-1.453-6.616-1.213-6.892 51.705-59.546C82.07 27.198 105.995 3.818 107.191 3.15c5.469-3.056 10.765-1.054 18.307 6.92 5.827 6.162 6.834 8.49 5.876 13.597-.586 3.124-6.604 9.497-43.345 45.907l-42.665 42.28 42.724 42.255c29.26 28.94 42.923 43.124 43.36 45.012 1.237 5.357-.34 9.069-6.339 14.916-3.16 3.08-6.728 6.101-7.929 6.714-2.744 1.399-7.205 1.384-9.816-.033z" fill="#d25300"/></symbol><symbol viewBox="0 0 240 210" id="icon-buy" xmlns="http://www.w3.org/2000/svg"><path d="M18.259 202.304c-4.84-1.181-8.231-3.94-10.43-8.482-2.016-4.165-2.05-5.6-2.05-88.95 0-92.634-.244-88.624 5.804-94.99 6.195-6.523 1.051-6.134 84.979-6.442 51.98-.19 77.55.062 80.263.792 5.309 1.43 10.667 6.292 11.925 10.82.56 2.018 1.021 6.644 1.024 10.28l.006 6.613 5.574.655c10.416 1.224 17.786 6.059 21.526 14.12 1.606 3.462 1.86 6.641 1.878 23.61l.022 19.61 5.411.559c6.209.64 10.065 2.807 12.14 6.82 2.081 4.025 2.081 36.778 0 40.802-2.075 4.013-5.931 6.18-12.14 6.82l-5.411.56-.022 19.61c-.025 21.932-.662 24.695-7.106 30.809-7.61 7.22-1.27 6.782-100.872 6.961-49.225.088-90.86-.171-92.521-.577zm182.45-11.835c7.065-3.603 7.534-5.17 7.881-26.319l.31-18.93-19.81-.006c-21.536-.006-25.701-.654-29.385-4.57-2.374-2.526-2.432-2.999-2.732-22.358l-.307-19.777 2.621-3.115c1.442-1.714 4.28-3.576 6.307-4.14 2.027-.562 12.6-1.025 23.496-1.029l19.81-.005-.31-18.93c-.347-21.148-.816-22.715-7.881-26.318-3.188-1.625-9.61-1.749-91.114-1.75-54.55 0-88.654-.37-90.25-.977l-2.565-.975v73.647c0 67.125.146 73.808 1.655 75.475 1.58 1.745 5.69 1.828 90.25 1.827 82.37-.001 88.836-.124 92.024-1.75zm25.57-72.749v-16l-28.93-.265c-22.48-.207-29.111.016-29.735 1-.936 1.473-1.129 27.834-.222 30.198.545 1.42 3.833 1.568 29.75 1.332l29.138-.265zm-47.5-92.943c0-6.558-.264-7.628-2.222-9-1.964-1.376-11.041-1.557-78.077-1.557H22.626l-2.923 2.923c-3.82 3.82-4.016 9.076-.469 12.623l2.455 2.454H178.78z"/></symbol><symbol viewBox="0 0 160 160" id="icon-close" xmlns="http://www.w3.org/2000/svg"><path d="M8.743 150.58l-8.744-8.745 31.244-31.256 31.245-31.257-31.245-31.256L0 16.809l8.744-8.744L17.487-.68l31.256 31.244L80 61.81l31.257-31.245L142.512-.679l8.744 8.744 8.744 8.744-31.244 31.257-31.245 31.256 31.245 31.257L160 141.835l-8.744 8.744-8.744 8.744-31.256-31.244L80 96.834l-31.257 31.245-31.256 31.244z" fill="#94a4a5"/></symbol><symbol viewBox="0 0 120 120" id="icon-comment" xmlns="http://www.w3.org/2000/svg"><path d="M25.2 118.36c-.723-.723-1.2-4.223-1.2-8.8 0-4.578-.477-8.078-1.2-8.8-.676-.677-3.916-1.2-7.423-1.2-5.18 0-6.722-.42-9.195-2.5-1.634-1.376-3.693-2.5-4.576-2.5C.156 94.56 0 90.377 0 51.628V8.699l2.25-.32c1.446-.205 2.364-1.124 2.57-2.57l.32-2.25h109.72l.32 2.25c.206 1.446 1.124 2.365 2.57 2.57l2.25.32v42.93c0 38.749-.156 42.93-1.606 42.93-.883 0-2.942 1.125-4.576 2.5l-2.971 2.5-30.674.004c-35.74.004-32.666-.821-44.183 11.872-7.52 8.288-8.681 9.033-10.79 6.925zm81.6-32c1.719-1.72 1.719-67.882 0-69.6-1.727-1.728-91.873-1.728-93.6 0-1.719 1.718-1.719 67.88 0 69.6 1.727 1.727 91.873 1.727 93.6 0z"/></symbol><symbol viewBox="0 0 310 210" id="icon-delivery" xmlns="http://www.w3.org/2000/svg"><path d="M93.587 203.86c-8.994-1.634-17.355-8.903-20.22-17.58-.677-2.054-.968-6.447-.688-10.37.574-8.025 4.42-15.016 10.63-19.318 10.331-7.16 26.078-5.77 34.328 3.032 9.9 10.56 9.242 28.326-1.403 37.944-6.46 5.836-13.848 7.889-22.647 6.291zm15.587-15.127c3.192-3.192 3.677-4.334 4.004-9.432.293-4.562-.064-6.497-1.673-9.06-4.21-6.705-12.44-9.054-19.683-5.618-10.27 4.874-11.05 19.68-1.381 26.196 2.928 1.973 4.448 2.292 9.3 1.952 5.076-.355 6.255-.86 9.433-4.038zm130.61 15.223c-8.887-1.753-16.698-7.914-20.134-15.883-2.316-5.372-2.036-15.673.563-20.69C225.578 157.026 233.493 152 244.44 152c15.95 0 27.051 12.314 25.747 28.562-1.24 15.436-15.421 26.348-30.404 23.394zm12.759-13.226c6.489-4.335 8.68-12.908 5.046-19.746-7.346-13.824-28.14-8.64-28.14 7.016 0 11.875 13.355 19.236 23.094 12.73zM37.096 168.171c-1.363-1.506-1.655-4.143-1.655-14.943 0-12.419.118-13.197 2.222-14.671 6.042-4.232 8.778-.72 8.778 11.272V159h7.345c7.885 0 10.655 1.475 10.655 5.674 0 4.284-2.87 5.326-14.674 5.326-9.402 0-11.259-.268-12.671-1.829zm96.677-.786c-1.537-2.346-1.561-2.887-.235-5.25l1.478-2.635 26.212-.267 26.213-.266V17h-141v19.929c0 16.783-.248 20.176-1.572 21.5-2.107 2.107-5.742 1.987-7.773-.258-1.441-1.592-1.655-4.863-1.655-25.309 0-18.7.289-23.875 1.42-25.42C38.243 5.547 40.228 5.5 116.94 5.5s78.696.048 80.08 1.941c1.036 1.417 1.42 5.13 1.42 13.75V33h52.911l21.294 17.582c11.712 9.67 22.082 18.495 23.045 19.61 1.613 1.87 1.75 5.702 1.75 48.919 0 55.353 1.052 50.889-12 50.889-6.667 0-8.334-.333-10-2-2.397-2.397-2.5-3.841-.481-6.723 1.123-1.605 2.75-2.248 6.25-2.473l4.73-.304.242-41 .24-41-19.652-16.25L247.117 44h-48.676v115h7.345c5.845 0 7.683.373 9 1.829 2.17 2.399 2.1 5.458-.174 7.516-1.635 1.48-5.918 1.655-40.477 1.655h-38.648zM8.78 131c-4.338-1.749-4.132-8.369.312-10.058 1.387-.528 18.438-.943 38.692-.943 39.994 0 40.658.098 40.658 6 0 5.917-.62 6.007-40.973 5.937-20.09-.035-37.5-.456-38.69-.936zm204.884-11.558c-2.204-1.544-2.222-1.78-2.222-28.8 0-19.856.325-27.568 1.2-28.443.845-.845 6.534-1.198 19.25-1.192l18.05.008 10.25 9.134 10.25 9.133v19.301c0 18.813-.057 19.342-2.223 20.859-1.868 1.308-6.22 1.556-27.277 1.556-21.059 0-25.41-.248-27.278-1.556zm45.778-22.24V84.409l-6.93-6.204L245.583 72h-23.141v18.333c0 10.084.3 18.634.666 19 .367.367 8.692.667 18.5.667h17.834zm-240.345 4.968c-2.172-2.399-2.1-5.458.173-7.516C20.902 93.177 25.09 93 58.335 93c23.469 0 37.944.378 39.148 1.023 3.323 1.778 4.319 4.777 2.506 7.544L98.395 104H59.573c-36.34 0-38.928-.117-40.477-1.829zM31.44 75c-2.407-2.407-2.501-3.84-.444-6.777L32.554 66h77.773l1.557 2.223c2.057 2.937 1.964 4.37-.443 6.777-1.93 1.93-3.334 2-40 2-36.667 0-38.07-.07-40-2z"/></symbol><symbol viewBox="0 0 330 330" id="icon-edit" xmlns="http://www.w3.org/2000/svg"><path d="M1.398 167.797v-165h330v330h-330z" fill="#fefefe"/><path d="M155.898 332.102c-4.92-.442-8.315-2.091-9.724-4.724-.588-1.1-1.415-5.428-1.838-9.62-1.701-16.878-12.605-29.12-28.567-32.07-10.198-1.885-22.712 1.935-31.157 9.511-7.8 6.999-11.282 5.736-26.549-9.63-15.54-15.64-16.923-19.258-10.242-26.772 7.556-8.499 11.259-19.07 10.123-28.901-.924-8.006-5.615-17.078-11.625-22.48-5.31-4.776-13.863-8.616-19.208-8.625-5.167-.009-10.18-1.799-12.775-4.56-2.279-2.426-2.435-3.378-2.788-17.029-.7-27.05.476-29.826 13.305-31.42 18.442-2.291 30.556-12.857 33.596-29.3 1.92-10.384-1.478-20.89-10.076-31.159-3.548-4.237-4.084-5.465-3.625-8.295.652-4.015 5.777-10.294 17.328-21.228 13.409-12.693 15.959-13.298 24.822-5.89 7.403 6.187 12.588 8.183 22.5 8.665 11.27.548 17.96-1.859 25.342-9.118 6.537-6.428 9.538-12.76 11.12-23.455 1.37-9.266 2.484-10.941 8.148-12.255 4.923-1.142 29.438-1.144 35.354-.002 5.985 1.155 7.6 3.457 8.39 11.951.997 10.728 4.012 17.626 10.566 24.18 7.789 7.79 14.504 10.276 26.08 9.66 9.984-.532 15.45-2.638 22.353-8.612 5.777-5 8.813-5.904 13.003-3.872 4.292 2.081 14.695 11.701 22.328 20.647 8.016 9.395 8.38 12.472 2.293 19.387-2.213 2.513-5.25 7.19-6.75 10.39-2.299 4.907-2.727 7.155-2.727 14.32 0 7.095.436 9.43 2.635 14.12 5.608 11.959 15.78 19.07 29.772 20.81 6.131.764 7.899 1.414 10.261 3.777 2.69 2.69 2.89 3.485 3.482 13.828.933 16.302-.247 27.833-3.207 31.35-2.046 2.433-3.302 2.898-9.158 3.389-9.633.807-17.299 3.973-23.626 9.756-14.075 12.863-15.25 33.168-2.812 48.59 6.135 7.608 6.722 9.38 4.59 13.874-1.988 4.188-19.537 22.221-25.403 26.103-5.766 3.815-8.925 3.417-15.525-1.96-10.452-8.514-24.523-11.332-36.305-7.27-11.92 4.109-21.594 17.295-22.893 31.208-.824 8.827-3.014 11.463-10.395 12.51-5.418.77-22.883.896-30.416.22zm32.072-108.418c15.548-4.757 28.871-18.18 34.353-34.606 2.602-7.796 2.832-22.343.48-30.35-5.42-18.452-19.988-32.66-38.405-37.455-8.472-2.206-22.108-1.581-30.46 1.396-30.72 10.95-44.613 46.696-29.308 75.411 12.144 22.785 38.171 33.306 63.34 25.604z" fill="#c8d0d1"/></symbol><symbol viewBox="0 0 180 180" id="icon-liked" xmlns="http://www.w3.org/2000/svg"><path d="M68.561 146.41c-1.1-.278-3.125-.962-4.5-1.52s-8.903-1.067-16.729-1.13l-14.229-.114-3.27-3.268-3.272-3.268-.268-32.732c-.35-42.712-1.1-41.232 20.9-41.232 6.718 0 12.893.478 14.028 1.086 2.868 1.535 10.59-3.373 13.562-8.621 2.01-3.55 2.247-5.345 2.262-17.168.018-14.176.807-17.425 4.66-19.18 8.198-3.736 18.583-1.946 24.792 4.273 5.13 5.137 6.564 9.813 6.564 21.394 0 4.98.273 9.764.607 10.634.503 1.311 2.515 1.583 11.75 1.588 6.129.003 12.878.487 14.998 1.076 8.173 2.269 15.682 12.528 15.626 21.346-.042 6.382-7.801 51.392-9.465 54.897-2.434 5.13-7.586 9.322-13.683 11.132-4.2 1.247-10.673 1.521-33.764 1.427-15.713-.064-29.469-.343-30.569-.62zm61.922-17.514c2.321-2.062 2.828-4.147 6.056-24.946 1.937-12.484 3.522-23.621 3.522-24.75 0-1.13-.9-2.954-2-4.054-1.837-1.837-3.333-2-18.389-2-22.218 0-20.945 1.171-21.646-19.909-.44-13.24-.833-16.387-2.213-17.768-2.241-2.241-2.525-1.235-3.009 10.677-.287 7.072-.969 10.83-2.667 14.702-2.623 5.984-10.52 13.96-17.15 17.322-2.434 1.235-4.756 2.747-5.16 3.36-.404.614-.742 10.924-.75 22.912l-.016 21.795 2.455 2.455 2.454 2.454h27.99c27.61 0 28.024-.03 30.523-2.25zM49.48 127.54c1.381-.53 1.581-3.64 1.581-24.557v-23.95l-4.25.307-4.25.307-.269 23.43c-.28 24.382-.18 25.017 3.938 25.055.917.008 2.38-.258 3.25-.592z"/></symbol><symbol viewBox="0 0 120 100" id="icon-loc" xmlns="http://www.w3.org/2000/svg"><path d="M5.243 98.597c-.175-1.237-1.332-2.694-2.57-3.237l-2.25-.987V7.322l2.25-.987c1.238-.543 2.395-2 2.57-3.238l.32-2.25H115.285l.32 2.25c.175 1.238 1.331 2.695 2.569 3.238l2.25.987v87.051l-2.25.987c-1.238.543-2.394 2-2.57 3.237l-.32 2.25H5.564zM106.49 87.812c1.858-.994 1.935-2.465 1.935-36.965 0-34.499-.077-35.97-1.935-36.964-2.653-1.42-89.477-1.42-92.131 0-1.857.994-1.934 2.465-1.934 36.95 0 33.15.134 35.994 1.75 36.934 2.418 1.409 89.689 1.451 92.315.045zM27.674 75.185c-2.502-1.01-1.13-4.495 4.464-11.343 3.817-4.672 6.42-6.995 7.839-6.995 1.278 0 3.932 1.992 6.66 5 7.071 7.794 8.848 7.26 19.266-5.795 3.202-4.012 6.692-7.76 7.755-8.33 2.309-1.236 4.195.208 8.439 6.461 1.555 2.29 5.19 7.28 8.077 11.087 2.887 3.808 5.25 7.28 5.25 7.715 0 2.418-5.562 2.858-35.185 2.784-17.223-.044-31.878-.306-32.565-.584z"/></symbol><symbol viewBox="0 0 80 120" id="icon-location" xmlns="http://www.w3.org/2000/svg"><path d="M35.242 114.784c-1.87-2.338-5.35-7.175-7.734-10.75-2.383-3.575-5.562-8.31-7.065-10.524-4.488-6.606-13.66-24.656-14.909-29.338-.763-2.861-1.827-4.535-3.094-4.866-1.8-.47-1.932-1.523-1.932-15.389 0-12.488.24-14.883 1.484-14.883.815 0 2.6-2.204 3.964-4.897 3.129-6.174 11.38-14.715 16.136-16.702 1.999-.836 3.863-2.393 4.142-3.46.472-1.803 1.488-1.941 14.274-1.941 12.787 0 13.803.138 14.275 1.94.279 1.068 2.055 2.589 3.947 3.38 4.714 1.969 13.28 10.762 16.31 16.742 1.376 2.716 3.17 4.938 3.985 4.938 1.243 0 1.483 2.35 1.483 14.5 0 11.45-.281 14.5-1.339 14.5-1.37 0-3.66 4.026-3.66 6.433 0 1.77-11.115 23.447-14.786 28.836a1614.929 1614.929 0 00-7.214 10.73c-6.763 10.147-10.97 15-13 15-1.027 0-3.397-1.912-5.267-4.25zm6.733-15.375c3.43-1.317 16.828-24.03 23.225-39.375 2.95-7.075 3.554-9.762 3.608-16.03.056-6.5-.337-8.272-2.867-12.951-5.797-10.718-15.234-17.02-25.488-17.02-10.567 0-20.181 6.662-25.98 18-3.52 6.885-3.19 17.145.874 27.092C20.558 71.882 31.77 91.898 36.66 97.173c2.895 3.125 2.944 3.145 5.315 2.236zm-8.63-43.398c-2.904-1.535-4.007-2.974-5.33-6.956-1.557-4.688-1.557-5.354.001-10.046 1.362-4.1 2.382-5.388 5.54-7 9.964-5.083 20.351 1.055 20.351 12.025 0 10.99-10.667 17.204-20.562 11.977z"/></symbol><symbol viewBox="0 0 130 80" id="icon-select_arrow" xmlns="http://www.w3.org/2000/svg"><path d="M32.547 46.163L.459 13.326l6.504-6.413L13.468.5 39.405 27l25.937 26.5L91.28 27 117.216.5l6.505 6.413 6.504 6.413-32.088 32.837C80.49 64.223 65.731 79 65.342 79c-.389 0-15.147-14.777-32.795-32.837z"/></symbol><symbol viewBox="0 0 110 110" id="icon-tag" xmlns="http://www.w3.org/2000/svg"><path d="M39 109.209c0-1.693-35.98-37.743-37.668-37.743-.982 0-1.332-1.838-1.332-7 0-4.929.37-7.002 1.25-7.008C3.113 57.445 56 3.948 56 2.076c0-1.44 2.848-1.61 27-1.61h27v27c0 24.261-.165 27-1.626 27-1.874 0-55.324 52.866-55.354 54.75-.014.88-2.097 1.25-7.02 1.25-4.955 0-7-.367-7-1.257zm33.487-36.71C85.63 59.32 96.794 47.8 97.296 46.903c1.132-2.023 1.569-29.103.52-32.186-.754-2.213-1.04-2.25-17.495-2.25H63.59L38.797 37.19C19.66 56.268 14 62.48 14 64.403c0 3.593 28.487 32.063 32.083 32.063 1.944 0 7.888-5.395 26.404-23.966zM77.2 33.267c-1.547-1.547-1.547-6.053 0-7.6 1.547-1.547 6.053-1.547 7.6 0 .66.66 1.2 2.37 1.2 3.8 0 3.305-1.695 5-5 5-1.43 0-3.14-.54-3.8-1.2z"/></symbol><symbol viewBox="0 0 130 100" id="icon-views" xmlns="http://www.w3.org/2000/svg"><path d="M38.424 98.899c0-.839-1.086-1.938-2.413-2.442-7.63-2.9-26.39-21.258-31.46-30.783-.659-1.238-1.857-2.25-2.662-2.25-1.212 0-1.465-2.25-1.465-13s.253-13 1.465-13c.805 0 2.003-1.013 2.662-2.25C9.62 25.649 28.38 7.29 36.01 4.39c1.327-.504 2.413-1.603 2.413-2.442 0-1.328 3.472-1.524 27-1.524s27 .196 27 1.524c0 .84 1.149 1.962 2.553 2.496 7.604 2.891 26.201 21.179 31.383 30.861.624 1.165 1.793 2.119 2.599 2.119 1.211 0 1.465 2.25 1.465 13s-.254 13-1.465 13c-.806 0-1.975.953-2.599 2.118-5.182 9.683-23.779 27.97-31.383 30.862-1.404.533-2.553 1.656-2.553 2.495 0 1.329-3.472 1.525-27 1.525s-27-.196-27-1.525zm41-16.89c3.025-1.411 6.245-2.57 7.155-2.576.91-.005 3.494-1.545 5.742-3.423 2.247-1.878 4.427-3.565 4.844-3.75 2.17-.962 11.844-12.924 13.534-16.737 1.706-3.848 1.797-4.914.723-8.5-1.267-4.232-5.216-9.904-10.478-15.054-4.806-4.702-12.828-10.544-14.493-10.555-.84-.005-4.002-1.21-7.027-2.675-7.927-3.842-20.073-3.842-28 0-3.025 1.466-6.187 2.67-7.027 2.675-3.037.02-14.846 10.056-20.602 17.51-6.464 8.372-6.464 14.628 0 23 5.743 7.436 17.55 17.478 20.602 17.522.84.012 3.552.968 6.027 2.124 6.845 3.198 9.912 3.81 17 3.389 4.215-.25 8.433-1.287 12-2.95zm-19-4.578c-5.536-.624-13.47-6.144-17.615-12.254-2.727-4.02-2.885-4.83-2.885-14.753 0-10.471.01-10.513 3.5-15.029 1.925-2.49 5.57-6.157 8.1-8.147 4.778-3.759 7.29-4.281 19.009-3.953 5.427.152 10.417 3.659 16.546 11.629l3.845 5v10.5c0 10.47-.01 10.512-3.5 15.028-1.925 2.49-5.545 6.137-8.044 8.103-4.885 3.844-9.985 4.886-18.956 3.876zm9.997-20.624c5.17-4.67 5.238-7.534.3-12.591-2.037-2.086-4.38-3.792-5.208-3.792-.828 0-3.211 1.666-5.297 3.703-5.085 4.965-5.035 7.941.21 12.68 2.202 1.99 4.45 3.617 4.998 3.617.547 0 2.795-1.628 4.997-3.617z"/><path d="M41.424 98.503c0-1.296-.922-2.123-2.834-2.543-7.713-1.694-27.69-20.98-33.63-32.466-.873-1.688-2.251-3.07-3.062-3.07-1.2 0-1.474-1.855-1.474-10s.273-10 1.474-10c.81 0 2.189-1.382 3.062-3.07C10.9 25.866 30.877 6.58 38.59 4.886c1.912-.42 2.834-1.247 2.834-2.543 0-1.84.997-1.92 24-1.92 23.002 0 24 .08 24 1.92 0 1.296.922 2.123 2.834 2.543 7.713 1.694 27.69 20.98 33.63 32.466.873 1.689 2.25 3.07 3.061 3.07 1.201 0 1.475 1.856 1.475 10 0 8.146-.274 10-1.475 10-.81 0-2.188 1.383-3.062 3.071-5.94 11.487-25.916 30.772-33.63 32.466-1.911.42-2.833 1.247-2.833 2.543 0 1.84-.998 1.92-24 1.92-23.003 0-24-.08-24-1.92zM83.065 82.33c7.916-3.063 9.68-4.262 17.53-11.924 10.606-10.352 14.554-17.536 12.683-23.076-1.992-5.898-9.655-15.318-17.916-22.026-2.453-1.991-8.055-5.106-12.449-6.921-6.921-2.86-9.192-3.312-16.99-3.38-7.986-.07-9.983.307-17.73 3.346-6.948 2.726-10.148 4.719-15.672 9.76-7.672 7.002-13.223 14.104-14.892 19.053-1.63 4.833.775 10.547 7.821 18.573 7.703 8.775 13.205 12.917 21.654 16.303 9.707 3.89 11.937 4.336 19.99 3.998 5.24-.22 9.54-1.218 15.971-3.706zM52.424 72.49c-3.028-2.165-6.849-6.099-8.5-8.75-2.727-4.378-3-5.598-3-13.412 0-8.268.138-8.793 3.642-13.798 2.004-2.862 5.827-6.757 8.497-8.655 4.508-3.205 5.396-3.451 12.436-3.451 6.808 0 8.06.317 12.27 3.105 2.622 1.737 6.332 5.583 8.421 8.73 3.587 5.405 3.734 5.963 3.734 14.24 0 8.292-.137 8.811-3.643 13.819-2.003 2.862-5.827 6.756-8.497 8.654-4.496 3.198-5.407 3.452-12.357 3.452-7.134 0-7.774-.194-13.003-3.934zM71.54 57.541c2.91-2.91 3.883-4.692 3.883-7.117 0-3.906-6.45-11-10-11s-10 7.094-10 11c0 3.905 6.45 11 10 11 1.263 0 3.923-1.689 6.117-3.883z"/><path d="M44.424 98.911c0-.874-2.346-2.55-5.555-3.969-6.238-2.759-9.199-4.832-17.074-11.954-5.594-5.059-13.829-15.525-16.77-21.314-.91-1.788-2.316-3.25-3.127-3.25-1.176 0-1.474-1.618-1.474-8 0-6.383.298-8 1.474-8 .81 0 2.218-1.463 3.126-3.25 2.942-5.79 11.177-16.256 16.771-21.314C29.67 10.737 32.631 8.664 38.87 5.905c3.209-1.419 5.555-3.095 5.555-3.969 0-1.302 2.922-1.512 21-1.512s21 .21 21 1.512c0 .874 2.346 2.55 5.554 3.97 6.239 2.758 9.2 4.831 17.074 11.954 5.594 5.058 13.83 15.524 16.771 21.314.909 1.787 2.316 3.25 3.126 3.25 1.177 0 1.475 1.617 1.475 8 0 6.382-.298 8-1.475 8-.81 0-2.217 1.462-3.126 3.25-2.942 5.789-11.177 16.255-16.77 21.314-7.876 7.122-10.836 9.195-17.075 11.954-3.208 1.419-5.554 3.095-5.554 3.97 0 1.301-2.922 1.512-21 1.512s-21-.21-21-1.513zm38.61-15.595c7.635-3.057 14.95-7.897 19.25-12.736 5.687-6.4 9.05-10.957 11.124-15.073 2.04-4.047 2.114-4.756.884-8.482-1.792-5.43-11.213-17.112-17.94-22.244-2.985-2.278-9.028-5.613-13.428-7.41-7.1-2.9-9.07-3.269-17.5-3.269-8.444 0-10.383.364-17.436 3.269-4.364 1.797-10.387 5.119-13.383 7.381-6.368 4.808-14.3 14.266-17.279 20.603-1.875 3.99-1.96 4.866-.802 8.373 1.876 5.685 10.143 16.106 17.064 21.511 6.089 4.755 16.072 9.537 23.336 11.178 6.791 1.534 17.8.226 26.11-3.101zM59.847 75.53c-4.808-1.224-11.943-7.113-15.334-12.655-2.653-4.338-3.088-6.006-3.088-11.849 0-9.782 3.98-16.851 13.009-23.109 3.628-2.514 5.112-2.905 11.02-2.905 6.078 0 7.356.361 11.658 3.297 2.657 1.814 6.386 5.619 8.287 8.456 2.964 4.427 3.51 6.17 3.843 12.29.43 7.871-.72 11.37-5.74 17.458-6.327 7.677-15.374 11.126-23.655 9.017zm9.53-14.582c3.382-1.748 7.05-7.29 7.044-10.642-.006-3.654-3.593-8.723-7.49-10.58-3.277-1.563-3.735-1.563-7.013 0-3.862 1.841-7.484 6.918-7.49 10.497-.005 3.572 2.774 8.094 6.295 10.241 3.845 2.344 4.939 2.406 8.655.484z"/><path d="M47.168 98.555c-.293-1.121-2.439-2.593-5.366-3.682-12.257-4.558-28.423-19.815-35.32-33.337-1.219-2.387-3.08-4.567-4.137-4.843-2.86-.748-2.86-11.79 0-12.538 1.057-.277 2.918-2.456 4.136-4.844 6.898-13.522 23.064-28.779 35.32-33.337 2.928-1.088 5.074-2.56 5.367-3.682C47.622.556 48.915.424 65.424.424c16.508 0 17.801.132 18.255 1.868.293 1.121 2.44 2.594 5.367 3.682 12.257 4.558 28.422 19.815 35.32 33.337 1.218 2.388 3.08 4.567 4.136 4.844 1.615.422 1.922 1.422 1.922 6.269s-.307 5.847-1.922 6.269c-1.056.276-2.918 2.456-4.136 4.843-6.898 13.522-23.063 28.78-35.32 33.337-2.928 1.089-5.074 2.561-5.367 3.682-.454 1.736-1.747 1.869-18.255 1.869-16.509 0-17.802-.133-18.256-1.869zM85.04 83.788c7.51-3.226 9.978-4.95 16.926-11.82 8.317-8.226 14.433-17.252 14.45-21.328.019-4.69-5.328-12.767-14.384-21.73-8.186-8.101-9.965-9.352-17.586-12.36-14.658-5.786-27-5.334-41.616 1.524-11.038 5.178-28.405 24.958-28.405 32.35 0 5.795 11.76 21.06 21.782 28.272 4.617 3.323 13.142 7.179 19.518 8.829 1.76.455 7.098.65 11.862.434 7.28-.331 10.064-.996 17.453-4.17zm-23.657-9.341c-5.517-.998-12.6-6.47-15.96-12.33-2.467-4.3-2.981-6.317-2.989-11.725-.008-5.747.413-7.206 3.51-12.158 10.123-16.184 28.833-16.192 38.95-.018 3.097 4.952 3.53 6.44 3.53 12.128 0 5.522-.472 7.262-3.189 11.746-5.505 9.082-14.937 13.969-23.852 12.357zm11.673-15.392c3.792-3.791 4.369-4.931 4.369-8.631s-.577-4.84-4.369-8.632c-3.373-3.373-5.112-4.368-7.631-4.368-2.52 0-4.259.995-7.632 4.368-3.791 3.792-4.368 4.931-4.368 8.632 0 3.7.577 4.84 4.368 8.631 5.973 5.973 9.29 5.973 15.263 0z"/><path d="M50.424 98.97c0-1.335-7.84-5.546-10.326-5.546-2.177 0-14.348-9.033-19.775-14.676-5.772-6.003-9.664-11.327-14.309-19.574-1.47-2.613-3.33-4.75-4.132-4.75-1.035 0-1.458-1.163-1.458-4 0-2.838.423-4 1.458-4 .801 0 2.661-2.138 4.132-4.75 4.645-8.248 8.537-13.572 14.309-19.574C25.75 16.456 37.921 7.424 40.098 7.424c2.486 0 10.326-4.212 10.326-5.547 0-1.206 2.548-1.453 15-1.453s15 .247 15 1.453c0 1.335 7.84 5.547 10.325 5.547 2.177 0 14.348 9.032 19.775 14.676 5.773 6.002 9.665 11.326 14.31 19.574 1.47 2.612 3.33 4.75 4.132 4.75 1.034 0 1.458 1.162 1.458 4 0 2.837-.424 4-1.458 4-.802 0-2.662 2.137-4.133 4.75-4.644 8.247-8.536 13.571-14.309 19.574-5.427 5.643-17.598 14.676-19.775 14.676-2.485 0-10.325 4.211-10.325 5.547 0 1.206-2.548 1.453-15 1.453s-15-.247-15-1.453zm22.125-10.467c10.64-1.372 20.389-6.547 29.726-15.778 9.04-8.938 15.149-17.86 15.149-22.127 0-4.704-4.814-12.052-13.998-21.372C96.6 22.302 93.29 19.787 87.188 16.89 67.476 7.528 46.2 11.237 29.557 26.937c-8.571 8.085-16.133 18.981-16.133 23.245 0 4.77 4.771 12.077 13.998 21.439 11.635 11.805 21.777 16.64 37.002 17.639.825.054 4.481-.286 8.125-.757zM60.424 73.774c-.825-.329-3.771-2.08-6.547-3.893-14.681-9.584-14.294-29.713.76-39.515 4.407-2.87 6.206-3.442 10.81-3.442 4.556 0 6.434.585 10.728 3.34 15.228 9.772 15.304 30.307.149 40.128-5.088 3.296-12.282 4.827-15.9 3.382zm10.5-11.502c1.1-.564 3.125-2.43 4.5-4.147 5.14-6.418 2.318-16.424-5.707-20.232-4.489-2.13-8.538-1.158-12.76 3.064-5.843 5.843-5.836 13.097.017 18.95 4.464 4.465 8.518 5.152 13.95 2.365z"/><path d="M52.193 98.65c-.307-1.175-3.219-2.733-8.63-4.616-4.49-1.564-8.422-3.259-8.736-3.767-.314-.508-2.221-1.97-4.237-3.248-7.845-4.974-17.364-16.155-24.558-28.845-1.48-2.613-3.349-4.75-4.15-4.75-.954 0-1.458-1.039-1.458-3 0-1.962.504-3 1.458-3 .801 0 2.67-2.138 4.15-4.75C16.73 23.8 29.682 11.68 44.83 6.366c4.392-1.54 7.074-3.063 7.367-4.182C52.606.62 54.079.424 65.424.424c11.383 0 12.817.192 13.23 1.773.308 1.176 3.22 2.733 8.63 4.617 4.49 1.563 8.422 3.258 8.737 3.767.314.508 2.22 1.97 4.237 3.248 7.845 4.973 17.364 16.154 24.557 28.845 1.481 2.612 3.35 4.75 4.15 4.75.954 0 1.459 1.038 1.459 3 0 1.961-.505 3-1.458 3-.802 0-2.67 2.137-4.15 4.75-10.699 18.872-23.65 30.993-38.799 36.307-4.391 1.54-7.074 3.064-7.366 4.183-.41 1.564-1.882 1.76-13.227 1.76-11.383 0-12.817-.193-13.23-1.774zm34.529-13.64c6.055-2.866 9.642-5.523 16.05-11.889 8.684-8.624 15.652-18.808 15.652-22.874 0-3.831-9.317-17.003-17.168-24.272-4.57-4.232-9.945-7.993-14.76-10.33l-7.572-3.674h-27l-7.5 3.661c-4.622 2.256-10.278 6.207-14.74 10.298-8.013 7.346-17.26 20.469-17.26 24.494 0 7.25 19.156 28.803 30 33.753 11.34 5.177 11.93 5.295 24.5 4.902 11.385-.357 12.4-.566 19.798-4.068zM54.544 69.673c-6.763-4.711-11.12-12.254-11.12-19.248 0-6.995 4.357-14.537 11.12-19.249 4.65-3.239 6.137-3.748 10.959-3.75 4.837-.001 6.286.498 10.893 3.749 14.501 10.232 14.448 28.313-.114 38.498C71.67 72.9 70.16 73.42 65.424 73.42c-4.732 0-6.252-.523-10.88-3.748zm19.511-9.617c4.052-4.05 4.369-4.75 4.369-9.631s-.317-5.58-4.369-9.632c-3.595-3.595-5.028-4.368-8.095-4.368-7.635 0-13.536 6.297-13.536 14.443 0 4.358.419 5.239 4.368 9.188 3.792 3.792 4.931 4.369 8.632 4.369 3.7 0 4.84-.577 8.631-4.369z"/><path d="M58.424 98.97c0-.798-1.463-1.91-3.25-2.47-11.664-3.651-18.315-6.374-20.917-8.563-1.643-1.382-3.346-2.513-3.785-2.513-1.627 0-14.214-13.354-17.751-18.832C7.354 58.28 4.424 52.57 4.424 50.424c0-2.146 2.93-7.856 8.297-16.169 3.537-5.478 16.124-18.831 17.751-18.831.44 0 2.142-1.131 3.785-2.514 2.602-2.189 9.253-4.912 20.917-8.563 1.787-.56 3.25-1.671 3.25-2.47 0-1.133 1.545-1.453 7-1.453s7 .32 7 1.453c0 .799 1.462 1.91 3.25 2.47 11.664 3.651 18.315 6.374 20.916 8.563 1.643 1.383 3.346 2.514 3.785 2.514 1.627 0 14.214 13.353 17.751 18.831 5.368 8.313 8.298 14.023 8.298 16.169 0 2.146-2.93 7.855-8.298 16.168-3.537 5.478-16.124 18.832-17.75 18.832-.44 0-2.143 1.13-3.786 2.513-2.601 2.189-9.252 4.912-20.916 8.563-1.788.56-3.25 1.672-3.25 2.47 0 1.133-1.545 1.454-7 1.454s-7-.321-7-1.453zm29.495-13.046c6.023-3.013 10.019-6.019 16.194-12.18 4.509-4.498 9.132-10.01 10.275-12.25 1.142-2.238 2.496-4.07 3.009-4.07 1.562 0 2.944-6.801 2.03-9.99-1.262-4.398-11.395-17.348-18.373-23.48-3.371-2.962-9.28-7.097-13.13-9.188l-7-3.801-15.024-.02-15.024-.021-7.948 4c-9.085 4.572-22.752 17.145-26.39 24.277-1.186 2.323-2.56 4.223-3.057 4.223-.496 0-1.426 1.588-2.067 3.53-1.185 3.589-.406 7.865 1.947 10.698.58.7 3.131 4.098 5.667 7.552 6.02 8.2 15.23 16.213 23.648 20.575 8.937 4.63 8.272 4.51 23.748 4.315l13.5-.17zM55.647 68.822c-6.573-4.44-11.2-11.934-11.214-18.163-.022-10.061 11.47-22.235 20.99-22.235 9.389 0 21 12.165 21 22 0 6.127-5.023 14.245-11.457 18.516-7.215 4.789-12.099 4.759-19.32-.118zm19.408-7.767c4.228-4.228 4.369-4.57 4.369-10.631 0-6.062-.14-6.404-4.369-10.632-4.05-4.051-4.75-4.368-9.631-4.368s-5.58.317-9.632 4.368c-4.228 4.228-4.368 4.57-4.368 10.632 0 6.061.14 6.403 4.368 10.631 4.051 4.052 4.75 4.369 9.632 4.369 4.88 0 5.58-.317 9.631-4.369z"/></symbol></svg>