<svg xmlns="http://www.w3.org/2000/svg" xmlns:xlink="http://www.w3.org/1999/xlink"><symbol viewBox="0 0 210 210" id="icon-add" xmlns="http://www.w3.org/2000/svg"><path d="M92.762 209.534c-.825-.327-2.288-1.28-3.25-2.119-1.61-1.402-1.75-4.574-1.75-39.37 0-36.511-.07-37.915-2-39.845-1.93-1.93-3.334-2-39.928-2H7.907l-2.073-2.634c-1.804-2.294-2.072-4.024-2.072-13.366 0-9.34.268-11.07 2.072-13.365L7.907 94.2h37.927c36.594 0 37.998-.07 39.928-2 1.93-1.93 2-3.333 2-39.927V14.346l2.635-2.073C92.69 10.47 94.42 10.2 103.762 10.2c9.341 0 11.071.269 13.365 2.073l2.635 2.073v37.927c0 36.594.07 37.998 2 39.927 1.93 1.93 3.333 2 39.927 2h37.928l2.072 2.635c1.805 2.294 2.073 4.024 2.073 13.365 0 9.342-.268 11.072-2.073 13.366l-2.072 2.634h-37.928c-36.594 0-37.998.07-39.927 2-1.93 1.93-2 3.334-2 39.845 0 45.475 1.395 41.543-14.852 41.87-5.857.117-11.323-.054-12.148-.38z"/></symbol><symbol viewBox="0 0 130 220" id="icon-arrow_next" xmlns="http://www.w3.org/2000/svg"><path d="M12.568 219.077C8.585 216.625.497 207.86-.405 205.02c-.394-1.243-.412-3.886-.04-5.872.582-3.102 6.696-9.577 43.345-45.906l42.668-42.295L42.842 68.69C13.55 39.717-.083 25.566-.518 23.676c-1.234-5.36.343-9.07 6.341-14.917C14.205.59 17.995-.754 23.867 2.367c4.02 2.137 103.896 102.682 104.7 105.402 1.951 6.6 2.067 6.466-51.615 59.88-28.07 27.931-52.015 51.33-53.21 51.998-3.174 1.773-7.748 1.54-11.174-.57z" fill="#d25300"/></symbol><symbol viewBox="0 0 130 220" id="icon-arrow_prev" xmlns="http://www.w3.org/2000/svg"><path d="M107.364 220.718c-1.1-.597-25.047-24.08-53.217-52.183-35.897-35.813-51.4-51.932-51.83-53.884-1.453-6.616-1.213-6.892 51.705-59.546C82.07 27.198 105.995 3.818 107.191 3.15c5.469-3.056 10.765-1.054 18.307 6.92 5.827 6.162 6.834 8.49 5.876 13.597-.586 3.124-6.604 9.497-43.345 45.907l-42.665 42.28 42.724 42.255c29.26 28.94 42.923 43.124 43.36 45.012 1.237 5.357-.34 9.069-6.339 14.916-3.16 3.08-6.728 6.101-7.929 6.714-2.744 1.399-7.205 1.384-9.816-.033z" fill="#d25300"/></symbol><symbol viewBox="0 0 240 210" id="icon-buy" xmlns="http://www.w3.org/2000/svg"><path d="M18.259 202.304c-4.84-1.181-8.231-3.94-10.43-8.482-2.016-4.165-2.05-5.6-2.05-88.95 0-92.634-.244-88.624 5.804-94.99 6.195-6.523 1.051-6.134 84.979-6.442 51.98-.19 77.55.062 80.263.792 5.309 1.43 10.667 6.292 11.925 10.82.56 2.018 1.021 6.644 1.024 10.28l.006 6.613 5.574.655c10.416 1.224 17.786 6.059 21.526 14.12 1.606 3.462 1.86 6.641 1.878 23.61l.022 19.61 5.411.559c6.209.64 10.065 2.807 12.14 6.82 2.081 4.025 2.081 36.778 0 40.802-2.075 4.013-5.931 6.18-12.14 6.82l-5.411.56-.022 19.61c-.025 21.932-.662 24.695-7.106 30.809-7.61 7.22-1.27 6.782-100.872 6.961-49.225.088-90.86-.171-92.521-.577zm182.45-11.835c7.065-3.603 7.534-5.17 7.881-26.319l.31-18.93-19.81-.006c-21.536-.006-25.701-.654-29.385-4.57-2.374-2.526-2.432-2.999-2.732-22.358l-.307-19.777 2.621-3.115c1.442-1.714 4.28-3.576 6.307-4.14 2.027-.562 12.6-1.025 23.496-1.029l19.81-.005-.31-18.93c-.347-21.148-.816-22.715-7.881-26.318-3.188-1.625-9.61-1.749-91.114-1.75-54.55 0-88.654-.37-90.25-.977l-2.565-.975v73.647c0 67.125.146 73.808 1.655 75.475 1.58 1.745 5.69 1.828 90.25 1.827 82.37-.001 88.836-.124 92.024-1.75zm25.57-72.749v-16l-28.93-.265c-22.48-.207-29.111.016-29.735 1-.936 1.473-1.129 27.834-.222 30.198.545 1.42 3.833 1.568 29.75 1.332l29.138-.265zm-47.5-92.943c0-6.558-.264-7.628-2.222-9-1.964-1.376-11.041-1.557-78.077-1.557H22.626l-2.923 2.923c-3.82 3.82-4.016 9.076-.469 12.623l2.455 2.454H178.78z"/></symbol><symbol viewBox="0 0 160 160" id="icon-close" xmlns="http://www.w3.org/2000/svg"><path d="M8.743 150.58l-8.744-8.745 31.244-31.256 31.245-31.257-31.245-31.256L0 16.809l8.744-8.744L17.487-.68l31.256 31.244L80 61.81l31.257-31.245L142.512-.679l8.744 8.744 8.744 8.744-31.244 31.257-31.245 31.256 31.245 31.257L160 141.835l-8.744 8.744-8.744 8.744-31.256-31.244L80 96.834l-31.257 31.245-31.256 31.244z" fill="#94a4a5"/></symbol><symbol viewBox="0 0 120 120" id="icon-comment" xmlns="http://www.w3.org/2000/svg"><path d="M25.2 118.36c-.723-.723-1.2-4.223-1.2-8.8 0-4.578-.477-8.078-1.2-8.8-.676-.677-3.916-1.2-7.423-1.2-5.18 0-6.722-.42-9.195-2.5-1.634-1.376-3.693-2.5-4.576-2.5C.156 94.56 0 90.377 0 51.628V8.699l2.25-.32c1.446-.205 2.364-1.124 2.57-2.57l.32-2.25h109.72l.32 2.25c.206 1.446 1.124 2.365 2.57 2.57l2.25.32v42.93c0 38.749-.156 42.93-1.606 42.93-.883 0-2.942 1.125-4.576 2.5l-2.971 2.5-30.674.004c-35.74.004-32.666-.821-44.183 11.872-7.52 8.288-8.681 9.033-10.79 6.925zm81.6-32c1.719-1.72 1.719-67.882 0-69.6-1.727-1.728-91.873-1.728-93.6 0-1.719 1.718-1.719 67.88 0 69.6 1.727 1.727 91.873 1.727 93.6 0z"/></symbol><symbol viewBox="0 0 310 210" id="icon-delivery" xmlns="http://www.w3.org/2000/svg"><path d="M93.587 203.86c-8.994-1.634-17.355-8.903-20.22-17.58-.677-2.054-.968-6.447-.688-10.37.574-8.025 4.42-15.016 10.63-19.318 10.331-7.16 26.078-5.77 34.328 3.032 9.9 10.56 9.242 28.326-1.403 37.944-6.46 5.836-13.848 7.889-22.647 6.291zm15.587-15.127c3.192-3.192 3.677-4.334 4.004-9.432.293-4.562-.064-6.497-1.673-9.06-4.21-6.705-12.44-9.054-19.683-5.618-10.27 4.874-11.05 19.68-1.381 26.196 2.928 1.973 4.448 2.292 9.3 1.952 5.076-.355 6.255-.86 9.433-4.038zm130.61 15.223c-8.887-1.753-16.698-7.914-20.134-15.883-2.316-5.372-2.036-15.673.563-20.69C225.578 157.026 233.493 152 244.44 152c15.95 0 27.051 12.314 25.747 28.562-1.24 15.436-15.421 26.348-30.404 23.394zm12.759-13.226c6.489-4.335 8.68-12.908 5.046-19.746-7.346-13.824-28.14-8.64-28.14 7.016 0 11.875 13.355 19.236 23.094 12.73zM37.096 168.171c-1.363-1.506-1.655-4.143-1.655-14.943 0-12.419.118-13.197 2.222-14.671 6.042-4.232 8.778-.72 8.778 11.272V159h7.345c7.885 0 10.655 1.475 10.655 5.674 0 4.284-2.87 5.326-14.674 5.326-9.402 0-11.259-.268-12.671-1.829zm96.677-.786c-1.537-2.346-1.561-2.887-.235-5.25l1.478-2.635 26.212-.267 26.213-.266V17h-141v19.929c0 16.783-.248 20.176-1.572 21.5-2.107 2.107-5.742 1.987-7.773-.258-1.441-1.592-1.655-4.863-1.655-25.309 0-18.7.289-23.875 1.42-25.42C38.243 5.547 40.228 5.5 116.94 5.5s78.696.048 80.08 1.941c1.036 1.417 1.42 5.13 1.42 13.75V33h52.911l21.294 17.582c11.712 9.67 22.082 18.495 23.045 19.61 1.613 1.87 1.75 5.702 1.75 48.919 0 55.353 1.052 50.889-12 50.889-6.667 0-8.334-.333-10-2-2.397-2.397-2.5-3.841-.481-6.723 1.123-1.605 2.75-2.248 6.25-2.473l4.73-.304.242-41 .24-41-19.652-16.25L247.117 44h-48.676v115h7.345c5.845 0 7.683.373 9 1.829 2.17 2.399 2.1 5.458-.174 7.516-1.635 1.48-5.918 1.655-40.477 1.655h-38.648zM8.78 131c-4.338-1.749-4.132-8.369.312-10.058 1.387-.528 18.438-.943 38.692-.943 39.994 0 40.658.098 40.658 6 0 5.917-.62 6.007-40.973 5.937-20.09-.035-37.5-.456-38.69-.936zm204.884-11.558c-2.204-1.544-2.222-1.78-2.222-28.8 0-19.856.325-27.568 1.2-28.443.845-.845 6.534-1.198 19.25-1.192l18.05.008 10.25 9.134 10.25 9.133v19.301c0 18.813-.057 19.342-2.223 20.859-1.868 1.308-6.22 1.556-27.277 1.556-21.059 0-25.41-.248-27.278-1.556zm45.778-22.24V84.409l-6.93-6.204L245.583 72h-23.141v18.333c0 10.084.3 18.634.666 19 .367.367 8.692.667 18.5.667h17.834zm-240.345 4.968c-2.172-2.399-2.1-5.458.173-7.516C20.902 93.177 25.09 93 58.335 93c23.469 0 37.944.378 39.148 1.023 3.323 1.778 4.319 4.777 2.506 7.544L98.395 104H59.573c-36.34 0-38.928-.117-40.477-1.829zM31.44 75c-2.407-2.407-2.501-3.84-.444-6.777L32.554 66h77.773l1.557 2.223c2.057 2.937 1.964 4.37-.443 6.777-1.93 1.93-3.334 2-40 2-36.667 0-38.07-.07-40-2z"/></symbol><symbol viewBox="0 0 330 330" id="icon-edit" xmlns="http://www.w3.org/2000/svg"><path d="M148.907 326.508c-4.92-.44-8.315-2.09-9.724-4.723-.589-1.1-1.415-5.428-1.838-9.62-1.702-16.879-12.605-29.12-28.567-32.07-10.199-1.885-22.713 1.935-31.157 9.51-7.801 7-11.283 5.737-26.55-9.629-15.539-15.64-16.923-19.259-10.242-26.773 7.557-8.498 11.26-19.069 10.124-28.9-.925-8.006-5.616-17.078-11.625-22.48-5.311-4.776-13.864-8.616-19.209-8.625-5.166-.01-10.18-1.799-12.774-4.56-2.28-2.427-2.435-3.379-2.788-17.03-.7-27.05.476-29.825 13.304-31.42 18.442-2.29 30.556-12.856 33.596-29.3 1.92-10.383-1.478-20.889-10.075-31.158-3.548-4.238-4.085-5.465-3.625-8.295.651-4.015 5.777-10.294 17.328-21.228 13.409-12.693 15.958-13.298 24.822-5.89 7.403 6.186 12.587 8.183 22.5 8.665 11.27.548 17.96-1.859 25.341-9.118 6.537-6.428 9.539-12.76 11.12-23.456 1.37-9.265 2.484-10.94 8.148-12.254 4.923-1.142 29.438-1.144 35.354-.002 5.985 1.154 7.601 3.457 8.39 11.951.998 10.727 4.012 17.626 10.567 24.18 7.788 7.789 14.503 10.276 26.08 9.66 9.984-.532 15.45-2.638 22.353-8.612 5.777-5 8.813-5.904 13.002-3.872 4.292 2.081 14.695 11.7 22.328 20.647 8.016 9.395 8.38 12.471 2.294 19.386-2.213 2.514-5.25 7.19-6.75 10.391-2.3 4.907-2.727 7.155-2.727 14.32 0 7.095.436 9.43 2.635 14.12 5.607 11.958 15.78 19.07 29.772 20.81 6.13.764 7.898 1.414 10.26 3.776 2.69 2.69 2.89 3.485 3.482 13.829.933 16.302-.246 27.833-3.206 31.35-2.047 2.433-3.302 2.897-9.159 3.388-9.632.808-17.298 3.973-23.626 9.756-14.074 12.864-15.25 33.169-2.811 48.592 6.134 7.606 6.721 9.38 4.589 13.872-1.987 4.188-19.537 22.222-25.403 26.104-5.765 3.815-8.925 3.416-15.524-1.96-10.453-8.515-24.523-11.332-36.306-7.27-11.92 4.108-21.593 17.295-22.892 31.207-.825 8.828-3.014 11.463-10.396 12.511-5.418.77-22.882.896-30.415.22zm32.072-108.417c15.547-4.757 28.87-18.18 34.353-34.606 2.601-7.796 2.831-22.344.48-30.35-5.42-18.452-19.989-32.66-38.405-37.456-8.472-2.205-22.109-1.58-30.461 1.397-30.72 10.949-44.613 46.695-29.307 75.41 12.144 22.786 38.17 33.307 63.34 25.605z"/></symbol><symbol viewBox="0 0 180 180" id="icon-liked" xmlns="http://www.w3.org/2000/svg"><path d="M68.561 146.41c-1.1-.278-3.125-.962-4.5-1.52s-8.903-1.067-16.729-1.13l-14.229-.114-3.27-3.268-3.272-3.268-.268-32.732c-.35-42.712-1.1-41.232 20.9-41.232 6.718 0 12.893.478 14.028 1.086 2.868 1.535 10.59-3.373 13.562-8.621 2.01-3.55 2.247-5.345 2.262-17.168.018-14.176.807-17.425 4.66-19.18 8.198-3.736 18.583-1.946 24.792 4.273 5.13 5.137 6.564 9.813 6.564 21.394 0 4.98.273 9.764.607 10.634.503 1.311 2.515 1.583 11.75 1.588 6.129.003 12.878.487 14.998 1.076 8.173 2.269 15.682 12.528 15.626 21.346-.042 6.382-7.801 51.392-9.465 54.897-2.434 5.13-7.586 9.322-13.683 11.132-4.2 1.247-10.673 1.521-33.764 1.427-15.713-.064-29.469-.343-30.569-.62zm61.922-17.514c2.321-2.062 2.828-4.147 6.056-24.946 1.937-12.484 3.522-23.621 3.522-24.75 0-1.13-.9-2.954-2-4.054-1.837-1.837-3.333-2-18.389-2-22.218 0-20.945 1.171-21.646-19.909-.44-13.24-.833-16.387-2.213-17.768-2.241-2.241-2.525-1.235-3.009 10.677-.287 7.072-.969 10.83-2.667 14.702-2.623 5.984-10.52 13.96-17.15 17.322-2.434 1.235-4.756 2.747-5.16 3.36-.404.614-.742 10.924-.75 22.912l-.016 21.795 2.455 2.455 2.454 2.454h27.99c27.61 0 28.024-.03 30.523-2.25zM49.48 127.54c1.381-.53 1.581-3.64 1.581-24.557v-23.95l-4.25.307-4.25.307-.269 23.43c-.28 24.382-.18 25.017 3.938 25.055.917.008 2.38-.258 3.25-.592z"/></symbol><symbol viewBox="0 0 120 100" id="icon-loc" xmlns="http://www.w3.org/2000/svg"><path d="M5.243 98.597c-.175-1.237-1.332-2.694-2.57-3.237l-2.25-.987V7.322l2.25-.987c1.238-.543 2.395-2 2.57-3.238l.32-2.25H115.285l.32 2.25c.175 1.238 1.331 2.695 2.569 3.238l2.25.987v87.051l-2.25.987c-1.238.543-2.394 2-2.57 3.237l-.32 2.25H5.564zM106.49 87.812c1.858-.994 1.935-2.465 1.935-36.965 0-34.499-.077-35.97-1.935-36.964-2.653-1.42-89.477-1.42-92.131 0-1.857.994-1.934 2.465-1.934 36.95 0 33.15.134 35.994 1.75 36.934 2.418 1.409 89.689 1.451 92.315.045zM27.674 75.185c-2.502-1.01-1.13-4.495 4.464-11.343 3.817-4.672 6.42-6.995 7.839-6.995 1.278 0 3.932 1.992 6.66 5 7.071 7.794 8.848 7.26 19.266-5.795 3.202-4.012 6.692-7.76 7.755-8.33 2.309-1.236 4.195.208 8.439 6.461 1.555 2.29 5.19 7.28 8.077 11.087 2.887 3.808 5.25 7.28 5.25 7.715 0 2.418-5.562 2.858-35.185 2.784-17.223-.044-31.878-.306-32.565-.584z"/></symbol><symbol viewBox="0 0 80 120" id="icon-location" xmlns="http://www.w3.org/2000/svg"><path d="M35.242 114.784c-1.87-2.338-5.35-7.175-7.734-10.75-2.383-3.575-5.562-8.31-7.065-10.524-4.488-6.606-13.66-24.656-14.909-29.338-.763-2.861-1.827-4.535-3.094-4.866-1.8-.47-1.932-1.523-1.932-15.389 0-12.488.24-14.883 1.484-14.883.815 0 2.6-2.204 3.964-4.897 3.129-6.174 11.38-14.715 16.136-16.702 1.999-.836 3.863-2.393 4.142-3.46.472-1.803 1.488-1.941 14.274-1.941 12.787 0 13.803.138 14.275 1.94.279 1.068 2.055 2.589 3.947 3.38 4.714 1.969 13.28 10.762 16.31 16.742 1.376 2.716 3.17 4.938 3.985 4.938 1.243 0 1.483 2.35 1.483 14.5 0 11.45-.281 14.5-1.339 14.5-1.37 0-3.66 4.026-3.66 6.433 0 1.77-11.115 23.447-14.786 28.836a1614.929 1614.929 0 0 0-7.214 10.73c-6.763 10.147-10.97 15-13 15-1.027 0-3.397-1.912-5.267-4.25zm6.733-15.375c3.43-1.317 16.828-24.03 23.225-39.375 2.95-7.075 3.554-9.762 3.608-16.03.056-6.5-.337-8.272-2.867-12.951-5.797-10.718-15.234-17.02-25.488-17.02-10.567 0-20.181 6.662-25.98 18-3.52 6.885-3.19 17.145.874 27.092C20.558 71.882 31.77 91.898 36.66 97.173c2.895 3.125 2.944 3.145 5.315 2.236zm-8.63-43.398c-2.904-1.535-4.007-2.974-5.33-6.956-1.557-4.688-1.557-5.354.001-10.046 1.362-4.1 2.382-5.388 5.54-7 9.964-5.083 20.351 1.055 20.351 12.025 0 10.99-10.667 17.204-20.562 11.977z"/></symbol><symbol viewBox="0 0 240 210" id="icon-pic" xmlns="http://www.w3.org/2000/svg"><path d="M.89 104.11v-105h240v210H.89zm218.727 83.723l2.773-2.776-.012-17.724c-.01-15.109-.276-18.209-1.8-21.018-2.217-4.089-35.889-38.548-40.377-41.322-2.112-1.305-4.088-1.798-5.546-1.385-1.246.353-14.865 13.405-30.265 29.004-27.136 27.487-28.143 28.383-32.636 29.027-2.922.418-5.51.22-7-.54-1.3-.661-9.822-8.607-18.937-17.658-17.627-17.502-19.13-18.423-24.97-15.316-4.665 2.482-37.341 36.904-39.694 41.816-4.114 8.587-2.276 17.587 4.125 20.197 1.161.474 44.74.774 96.84.667l94.727-.195 2.772-2.777zm-77.227-79.126c18.962-19.332 28.89-28.751 30.756-29.182 6.195-1.427 8.99.157 20.032 11.353 5.821 5.903 12.087 12.644 13.924 14.98 4.362 5.55 7.197 7.454 10.527 7.067 5.177-.6 5.287-1.647 5.013-47.543l-.252-42.228-2.773-2.772-2.773-2.772H24.935l-2.772 2.772-2.773 2.772-.25 53.728c-.27 58.497-.276 58.432 5.145 59.056 2.527.291 4.732-1.603 19.477-16.727 17.442-17.891 19.629-19.379 25.14-17.096 1.636.678 10.649 9.11 20.028 18.74l17.054 17.506 4.203-.554c3.96-.521 5.821-2.203 32.203-29.1zm-36.168-12.596C94.307 93.422 83.17 79.608 84.106 68.68c.31-3.62 1.56-6.92 4.37-11.547 3.344-5.504 4.81-6.91 9.747-9.355 8.19-4.053 12.36-4.4 19.744-1.638 7.847 2.935 12.081 7.022 14.771 14.259 2.68 7.207 2.718 12.124.149 18.99-2.236 5.977-5.132 9.102-12.497 13.487-5.673 3.377-9.584 4.27-14.168 3.236zm6.468-22.2c.66-.66 1.2-2.146 1.2-3.3 0-1.156-.54-2.64-1.2-3.3-1.739-1.74-6.476-1.488-7.193.381-.807 2.102-.773 5.919.06 6.751 1.104 1.105 5.85.75 7.133-.533z"/></symbol><symbol viewBox="0 0 130 80" id="icon-select_arrow" xmlns="http://www.w3.org/2000/svg"><path d="M32.547 46.163L.459 13.326l6.504-6.413L13.468.5 39.405 27l25.937 26.5L91.28 27 117.216.5l6.505 6.413 6.504 6.413-32.088 32.837C80.49 64.223 65.731 79 65.342 79c-.389 0-15.147-14.777-32.795-32.837z"/></symbol><symbol viewBox="0 0 110 110" id="icon-tag" xmlns="http://www.w3.org/2000/svg"><path d="M39 109.209c0-1.693-35.98-37.743-37.668-37.743-.982 0-1.332-1.838-1.332-7 0-4.929.37-7.002 1.25-7.008C3.113 57.445 56 3.948 56 2.076c0-1.44 2.848-1.61 27-1.61h27v27c0 24.261-.165 27-1.626 27-1.874 0-55.324 52.866-55.354 54.75-.014.88-2.097 1.25-7.02 1.25-4.955 0-7-.367-7-1.257zm33.487-36.71C85.63 59.32 96.794 47.8 97.296 46.903c1.132-2.023 1.569-29.103.52-32.186-.754-2.213-1.04-2.25-17.495-2.25H63.59L38.797 37.19C19.66 56.268 14 62.48 14 64.403c0 3.593 28.487 32.063 32.083 32.063 1.944 0 7.888-5.395 26.404-23.966zM77.2 33.267c-1.547-1.547-1.547-6.053 0-7.6 1.547-1.547 6.053-1.547 7.6 0 .66.66 1.2 2.37 1.2 3.8 0 3.305-1.695 5-5 5-1.43 0-3.14-.54-3.8-1.2z"/></symbol><symbol viewBox="0 0 240 240" id="icon-video" xmlns="http://www.w3.org/2000/svg"><path d="M84.816 239.285c-.29-2.518-1.178-3.051-10.617-6.373-5.665-1.994-11.29-4.531-12.5-5.639-1.21-1.107-4.015-2.924-6.236-4.038-6.256-3.137-19.924-15.19-27.295-24.07-9.63-11.6-15.687-21.654-19.46-32.296-2.982-8.411-3.577-9.366-6.009-9.652L0 156.901V87.167l2.7-.317c2.431-.285 3.026-1.24 6.008-9.65 3.773-10.644 9.83-20.696 19.46-32.297 7.37-8.88 21.04-20.933 27.295-24.07 2.22-1.114 5.027-2.931 6.236-4.039 1.21-1.107 6.835-3.645 12.5-5.638C83.64 7.834 84.526 7.3 84.816 4.782l.317-2.748h69.734l.317 2.748c.29 2.519 1.178 3.052 10.617 6.374 5.665 1.993 11.29 4.53 12.5 5.638 1.21 1.108 4.015 2.925 6.236 4.039 6.237 3.127 19.91 15.176 27.295 24.05 9.46 11.37 15.972 22.238 19.564 32.65 2.818 8.171 3.358 9.03 5.854 9.317l2.75.317V156.9l-2.75.316c-2.496.288-3.036 1.147-5.854 9.317-3.592 10.413-10.104 21.281-19.564 32.65-7.384 8.875-21.058 20.923-27.295 24.051-2.22 1.114-5.027 2.93-6.236 4.038-1.21 1.108-6.835 3.645-12.5 5.64-9.44 3.32-10.327 3.854-10.617 6.372l-.317 2.749H85.133zm48.19-18.311c4.649-.583 11.162-2.134 14.473-3.447A546.998 546.998 0 0 1 160 212.784c8.005-2.902 23.585-13.63 31.122-21.431 6.499-6.727 18.255-23.702 19.301-27.869.393-1.564 2.268-6.822 4.169-11.685 6.51-16.66 6.944-42.01.976-57.058a511.936 511.936 0 0 1-4.808-12.729c-2.697-7.497-14.165-24.164-21.418-31.127-6.426-6.169-22.706-17.495-27.232-18.945-1.986-.636-7.565-2.686-12.398-4.555-11.826-4.572-25.611-6.13-40.174-4.54-7.444.813-12.996 2.122-19.25 4.54-4.833 1.87-10.412 3.919-12.398 4.555-4.526 1.45-20.806 12.776-27.232 18.945-7.253 6.963-18.72 23.63-21.418 31.127a511.936 511.936 0 0 1-4.808 12.729c-5.94 14.977-5.53 40.323.92 57.005 1.868 4.833 3.918 10.412 4.554 12.397 1.45 4.527 12.776 20.807 18.945 27.233 6.963 7.253 23.63 18.72 31.127 21.418a510.354 510.354 0 0 1 12.678 4.787c10.164 4.03 25.188 5.294 40.35 3.393zm-30.933-60.575c-2.01-2.554-2.073-3.73-2.073-38.545V85.943l2.455-2.455c3.908-3.908 8.678-2.991 15.887 3.053 4.12 3.455 15.807 12 29.008 21.213 10.76 7.509 12.65 9.566 12.65 13.769 0 5.123-1.212 6.88-8.102 11.74-3.33 2.349-9.282 6.611-13.226 9.471-3.945 2.86-8.972 6.435-11.172 7.943-2.2 1.509-5.125 3.735-6.5 4.948-8.848 7.805-15.27 9.424-18.927 4.774z"/></symbol><symbol viewBox="0 0 130 100" id="icon-views" xmlns="http://www.w3.org/2000/svg"><g transform="translate(.424 .424)"><path d="M38 98.475c0-.838-1.086-1.937-2.413-2.442-7.63-2.9-26.39-21.258-31.46-30.783C3.47 64.013 2.27 63 1.465 63 .254 63 0 60.75 0 50s.254-13 1.465-13c.805 0 2.004-1.013 2.662-2.25 5.07-9.525 23.83-27.882 31.46-30.783C36.914 3.462 38 2.363 38 1.525 38 .196 41.472 0 65 0s27 .196 27 1.525c0 .838 1.149 1.961 2.553 2.495 7.605 2.891 26.202 21.179 31.384 30.862.623 1.165 1.793 2.118 2.598 2.118 1.211 0 1.465 2.25 1.465 13s-.254 13-1.465 13c-.805 0-1.975.953-2.598 2.118-5.182 9.683-23.78 27.97-31.384 30.862-1.404.534-2.553 1.657-2.553 2.495C92 99.804 88.528 100 65 100s-27-.196-27-1.525zm41-16.89c3.025-1.411 6.245-2.57 7.155-2.575.91-.006 3.495-1.546 5.742-3.424 2.247-1.877 4.427-3.565 4.844-3.75 2.17-.962 11.844-12.924 13.534-16.736 1.707-3.848 1.797-4.915.724-8.5-1.268-4.233-5.216-9.905-10.48-15.055-4.804-4.702-12.827-10.544-14.492-10.555-.84-.005-4.002-1.209-7.027-2.675-7.927-3.842-20.073-3.842-28 0-3.025 1.466-6.187 2.67-7.027 2.675-3.037.02-14.846 10.056-20.601 17.51-6.465 8.372-6.465 14.628 0 23 5.742 7.437 17.548 17.478 20.601 17.522.84.012 3.552.968 6.027 2.124 6.845 3.198 9.912 3.81 17 3.39 4.215-.25 8.433-1.288 12-2.951zm-19-4.578c-5.536-.624-13.47-6.143-17.615-12.254C39.658 60.733 39.5 59.924 39.5 50c0-10.47.01-10.513 3.5-15.028 1.925-2.491 5.57-6.157 8.1-8.147 4.778-3.76 7.29-4.282 19.01-3.954 5.426.152 10.416 3.659 16.545 11.629l3.845 5V50c0 10.47-.01 10.513-3.5 15.028-1.925 2.491-5.545 6.137-8.043 8.103C74.07 76.975 68.97 78.018 60 77.007zm9.997-20.623c5.17-4.671 5.239-7.534.3-12.592C68.26 41.706 65.917 40 65.09 40c-.827 0-3.211 1.666-5.297 3.703-5.085 4.965-5.035 7.941.21 12.68C62.205 58.374 64.454 60 65 60c.547 0 2.796-1.627 4.997-3.616z"/><path d="M41 98.08c0-1.296-.922-2.124-2.834-2.544-7.713-1.694-27.69-20.979-33.63-32.465C3.664 61.38 2.287 60 1.475 60 .274 60 0 58.145 0 50s.274-10 1.474-10c.811 0 2.19-1.382 3.063-3.07 5.94-11.487 25.916-30.772 33.629-32.466C40.078 4.044 41 3.216 41 1.92 41 .08 41.998 0 65 0s24 .08 24 1.92c0 1.296.922 2.124 2.834 2.544 7.713 1.694 27.69 20.979 33.63 32.465.873 1.69 2.25 3.071 3.062 3.071 1.2 0 1.474 1.855 1.474 10s-.274 10-1.474 10c-.811 0-2.19 1.382-3.063 3.07-5.94 11.487-25.916 30.772-33.629 32.466-1.912.42-2.834 1.248-2.834 2.543C89 99.92 88.002 100 65 100s-24-.08-24-1.92zm41.641-16.175c7.916-3.062 9.68-4.262 17.53-11.924 10.606-10.351 14.554-17.535 12.683-23.076-1.992-5.897-9.655-15.318-17.916-22.026-2.452-1.991-8.054-5.106-12.449-6.921-6.921-2.86-9.192-3.311-16.989-3.38-7.986-.07-9.983.308-17.73 3.347-6.948 2.725-10.149 4.718-15.673 9.76-7.672 7.002-13.223 14.103-14.892 19.052-1.63 4.833.776 10.547 7.821 18.573 7.704 8.775 13.205 12.918 21.655 16.304 9.706 3.89 11.936 4.336 19.99 3.998 5.238-.22 9.54-1.218 15.97-3.707zM52 72.066c-3.027-2.165-6.849-6.099-8.5-8.75-2.727-4.378-3-5.598-3-13.411 0-8.269.139-8.794 3.643-13.8 2.003-2.861 5.827-6.756 8.496-8.654C57.147 24.247 58.035 24 65.075 24c6.808 0 8.06.317 12.27 3.105 2.622 1.737 6.332 5.583 8.421 8.73 3.588 5.405 3.734 5.963 3.734 14.24 0 8.292-.137 8.811-3.643 13.82-2.003 2.861-5.827 6.756-8.496 8.654C72.864 75.746 71.954 76 65.003 76 57.87 76 57.23 75.806 52 72.066zm19.118-14.948C74.028 54.208 75 52.425 75 50c0-3.905-6.45-11-10-11s-10 7.095-10 11c0 3.905 6.45 11 10 11 1.263 0 3.924-1.688 6.118-3.882z"/><path d="M44 98.487c0-.873-2.346-2.55-5.554-3.969-6.239-2.759-9.2-4.831-17.075-11.954C15.778 77.505 7.543 67.04 4.601 61.25 3.69 59.462 2.284 58 1.473 58 .298 58 0 56.383 0 50s.298-8 1.474-8c.811 0 2.218-1.462 3.126-3.25 2.943-5.79 11.178-16.255 16.771-21.314 7.876-7.123 10.836-9.195 17.075-11.954C41.654 4.062 44 2.386 44 1.512 44 .21 46.922 0 65 0s21 .21 21 1.513c0 .873 2.346 2.55 5.554 3.969 6.239 2.759 9.2 4.831 17.075 11.954 5.593 5.059 13.828 15.525 16.77 21.314.91 1.788 2.316 3.25 3.127 3.25 1.176 0 1.474 1.617 1.474 8s-.298 8-1.474 8c-.811 0-2.218 1.462-3.126 3.25-2.943 5.79-11.178 16.255-16.771 21.314-7.876 7.123-10.836 9.195-17.075 11.954-3.208 1.42-5.554 3.096-5.554 3.97C86 99.79 83.078 100 65 100s-21-.21-21-1.513zm38.61-15.595c7.635-3.057 14.95-7.897 19.25-12.736 5.688-6.4 9.05-10.957 11.125-15.072 2.04-4.047 2.113-4.757.883-8.483-1.791-5.429-11.213-17.111-17.939-22.244-2.986-2.278-9.029-5.613-13.429-7.41-7.099-2.9-9.07-3.269-17.5-3.269-8.444 0-10.382.364-17.436 3.269-4.364 1.798-10.387 5.12-13.383 7.381-6.368 4.809-14.3 14.266-17.279 20.603-1.875 3.99-1.959 4.866-.802 8.373 1.877 5.685 10.143 16.107 17.065 21.512 6.088 4.755 16.07 9.536 23.335 11.177 6.791 1.534 17.8.226 26.11-3.101zm-23.188-7.785C54.615 73.883 47.48 67.993 44.09 62.45 41.435 58.114 41 56.445 41 50.603c0-9.783 3.98-16.852 13.01-23.11 3.627-2.513 5.111-2.905 11.018-2.905 6.079 0 7.357.362 11.66 3.297 2.657 1.814 6.386 5.62 8.286 8.456 2.964 4.427 3.51 6.171 3.844 12.29.429 7.871-.721 11.37-5.74 17.458-6.328 7.677-15.375 11.126-23.656 9.018zm9.531-14.583c3.38-1.748 7.049-7.29 7.043-10.642-.005-3.654-3.593-8.722-7.49-10.58-3.277-1.563-3.735-1.563-7.013 0-3.862 1.841-7.483 6.918-7.49 10.498-.005 3.572 2.774 8.094 6.296 10.24 3.844 2.345 4.938 2.406 8.654.484z"/><path d="M46.745 98.132c-.294-1.122-2.44-2.594-5.367-3.683-12.257-4.557-28.422-19.815-35.32-33.336-1.219-2.388-3.08-4.567-4.137-4.844-2.86-.748-2.86-11.79 0-12.538 1.057-.277 2.918-2.456 4.137-4.844 6.898-13.521 23.063-28.779 35.32-33.336 2.928-1.089 5.073-2.561 5.367-3.683C47.199.132 48.49 0 65 0s17.801.132 18.255 1.868c.294 1.122 2.44 2.594 5.367 3.683 12.257 4.557 28.422 19.815 35.32 33.336 1.219 2.388 3.08 4.567 4.137 4.844C129.694 44.153 130 45.153 130 50s-.306 5.847-1.921 6.27c-1.057.276-2.918 2.455-4.137 4.843-6.898 13.521-23.063 28.779-35.32 33.336-2.928 1.089-5.073 2.561-5.367 3.683C82.801 99.868 81.51 100 65 100s-17.801-.132-18.255-1.868zm37.87-14.767c7.51-3.226 9.978-4.95 16.926-11.821 8.318-8.226 14.433-17.251 14.45-21.327.019-4.69-5.328-12.768-14.384-21.73-8.185-8.102-9.965-9.353-17.585-12.36-14.66-5.787-27-5.335-41.617 1.523C31.367 22.829 14 42.608 14 50c0 5.796 11.76 21.06 21.782 28.272 4.617 3.323 13.142 7.18 19.518 8.83 1.76.455 7.098.65 11.862.433 7.28-.33 10.065-.996 17.454-4.17zm-23.657-9.342c-5.517-.998-12.6-6.469-15.96-12.33-2.467-4.3-2.98-6.317-2.989-11.724-.008-5.748.413-7.207 3.51-12.159 10.124-16.183 28.833-16.192 38.95-.018C87.567 42.745 88 44.233 88 49.92c0 5.522-.473 7.263-3.19 11.746-5.504 9.082-14.937 13.97-23.852 12.357zm11.674-15.391C76.423 54.84 77 53.7 77 50c0-3.7-.577-4.84-4.368-8.632C69.259 37.995 67.52 37 65 37c-2.52 0-4.259.995-7.632 4.368C53.577 45.16 53 46.3 53 50c0 3.7.577 4.84 4.368 8.632 5.973 5.972 9.29 5.972 15.264 0z"/><path d="M50 98.547C50 97.212 42.16 93 39.675 93c-2.178 0-14.349-9.033-19.776-14.676-5.772-6.003-9.664-11.326-14.308-19.574C4.119 56.138 2.26 54 1.458 54 .424 54 0 52.837 0 50c0-2.837.424-4 1.458-4 .802 0 2.661-2.138 4.133-4.75 4.644-8.248 8.536-13.571 14.308-19.574C25.326 16.033 37.497 7 39.675 7 42.16 7 50 2.788 50 1.453 50 .247 52.548 0 65 0s15 .247 15 1.453C80 2.788 87.84 7 90.325 7c2.178 0 14.349 9.033 19.776 14.676 5.772 6.003 9.664 11.326 14.308 19.574 1.472 2.612 3.331 4.75 4.133 4.75 1.034 0 1.458 1.163 1.458 4 0 2.837-.424 4-1.458 4-.802 0-2.661 2.138-4.133 4.75-4.644 8.248-8.536 13.571-14.308 19.574C104.674 83.967 92.503 93 90.325 93 87.84 93 80 97.212 80 98.547 80 99.753 77.452 100 65 100s-15-.247-15-1.453zM72.125 88.08c10.64-1.373 20.389-6.548 29.726-15.779C110.891 63.364 117 54.441 117 50.174c0-4.704-4.813-12.052-13.998-21.371-6.825-6.925-10.135-9.44-16.237-12.338-19.712-9.36-40.99-5.651-57.632 10.048C20.563 34.6 13 45.495 13 49.76c0 4.77 4.771 12.077 13.998 21.438C38.634 83.003 48.776 87.837 64 88.837c.825.053 4.481-.287 8.125-.757zM60 73.35c-.825-.329-3.771-2.08-6.547-3.893-14.68-9.583-14.294-29.713.76-39.515 4.407-2.87 6.206-3.442 10.81-3.442 4.556 0 6.434.585 10.728 3.34 15.228 9.772 15.304 30.308.149 40.128-5.087 3.296-12.282 4.827-15.9 3.383zm10.5-11.502c1.1-.564 3.125-2.43 4.5-4.147 5.14-6.418 2.318-16.424-5.707-20.232-4.488-2.13-8.538-1.158-12.76 3.064-5.842 5.843-5.836 13.098.018 18.951 4.464 4.464 8.517 5.151 13.949 2.364z"/><path d="M51.77 98.226c-.308-1.175-3.22-2.733-8.63-4.616-4.491-1.563-8.423-3.258-8.737-3.767-.314-.508-2.22-1.97-4.237-3.248C22.32 81.622 12.802 70.44 5.608 57.75 4.128 55.138 2.26 53 1.458 53 .505 53 0 51.961 0 50s.505-3 1.458-3c.802 0 2.67-2.138 4.15-4.75 10.698-18.873 23.65-30.993 38.798-36.307 4.392-1.541 7.074-3.064 7.367-4.183C52.182.196 53.655 0 65 0c11.383 0 12.817.192 13.23 1.774.308 1.175 3.22 2.733 8.63 4.616 4.491 1.563 8.423 3.258 8.737 3.767.314.508 2.22 1.97 4.237 3.248 7.845 4.973 17.364 16.154 24.558 28.845 1.48 2.612 3.348 4.75 4.15 4.75.953 0 1.458 1.039 1.458 3s-.505 3-1.458 3c-.802 0-2.67 2.138-4.15 4.75-10.698 18.873-23.65 30.993-38.798 36.307-4.392 1.541-7.074 3.064-7.367 4.183C77.818 99.804 76.345 100 65 100c-11.383 0-12.817-.192-13.23-1.774zm34.528-13.639c6.056-2.867 9.642-5.524 16.051-11.89C111.032 64.074 118 53.89 118 49.824c0-3.831-9.316-17.003-17.167-24.272-4.571-4.231-9.946-7.993-14.76-10.329L78.5 11.548h-27l-7.5 3.66c-4.622 2.256-10.278 6.208-14.74 10.298C21.249 32.852 12 45.975 12 50c0 7.25 19.157 28.804 30 33.754 11.34 5.176 11.931 5.295 24.5 4.9 11.385-.356 12.4-.564 19.798-4.067zM54.12 69.248C47.357 64.537 43 56.994 43 50c0-6.994 4.357-14.537 11.12-19.248 4.65-3.24 6.138-3.749 10.96-3.75 4.836-.002 6.285.497 10.893 3.748 14.5 10.233 14.447 28.313-.114 38.498-4.614 3.228-6.124 3.749-10.859 3.749-4.732 0-6.252-.524-10.88-3.749zm19.512-9.616C77.682 55.58 78 54.88 78 50c0-4.881-.317-5.58-4.368-9.632C70.036 36.773 68.603 36 65.536 36 57.9 36 52 42.297 52 50.443c0 4.358.419 5.24 4.368 9.189C60.16 63.423 61.3 64 65 64c3.7 0 4.84-.577 8.632-4.368z"/><path d="M58 98.547c0-.8-1.462-1.91-3.25-2.47-11.664-3.652-18.315-6.375-20.916-8.564C32.19 86.131 30.487 85 30.048 85c-1.626 0-14.214-13.353-17.75-18.832C6.93 57.856 4 52.146 4 50c0-2.146 2.93-7.856 8.297-16.168C15.834 28.353 28.422 15 30.048 15c.44 0 2.143-1.131 3.786-2.513 2.6-2.19 9.252-4.912 20.916-8.564 1.788-.56 3.25-1.67 3.25-2.47C58 .321 59.545 0 65 0s7 .32 7 1.453c0 .8 1.462 1.91 3.25 2.47 11.664 3.652 18.315 6.375 20.916 8.564C97.81 13.869 99.513 15 99.952 15c1.626 0 14.214 13.353 17.75 18.832C123.07 42.144 126 47.854 126 50c0 2.146-2.93 7.856-8.297 16.168C114.166 71.647 101.578 85 99.952 85c-.44 0-2.143 1.131-3.786 2.513-2.6 2.19-9.252 4.912-20.916 8.564-1.787.56-3.25 1.67-3.25 2.47 0 1.132-1.545 1.453-7 1.453s-7-.32-7-1.453zM87.496 85.5c6.022-3.013 10.018-6.018 16.193-12.18 4.51-4.498 9.133-10.01 10.275-12.25 1.142-2.238 2.496-4.07 3.01-4.07 1.562 0 2.943-6.8 2.029-9.99-1.261-4.397-11.395-17.347-18.372-23.479-3.372-2.963-9.281-7.098-13.131-9.189l-7-3.801-15.024-.02-15.024-.021-7.947 4c-9.086 4.573-22.753 17.145-26.391 24.277C14.929 41.1 13.554 43 13.057 43c-.496 0-1.426 1.588-2.067 3.53-1.184 3.59-.406 7.865 1.947 10.698.58.7 3.131 4.098 5.667 7.553 6.02 8.199 15.23 16.212 23.648 20.574 8.937 4.631 8.272 4.51 23.748 4.315l13.5-.17zM55.223 68.398c-6.573-4.439-11.2-11.934-11.214-18.163C43.987 40.174 55.48 28 65 28c9.388 0 21 12.165 21 22 0 6.127-5.023 14.245-11.458 18.516-7.215 4.789-12.098 4.76-19.32-.118zm19.409-7.766C78.86 56.404 79 56.062 79 50c0-6.062-.14-6.404-4.368-10.632C70.58 35.318 69.88 35 65 35c-4.881 0-5.58.317-9.632 4.368C51.14 43.596 51 43.938 51 50c0 6.062.14 6.404 4.368 10.632C59.42 64.682 60.12 65 65 65c4.881 0 5.58-.317 9.632-4.368z"/></g></symbol></svg>