<?xml version="1.0" encoding="UTF-8" standalone="no"?>
<!-- Created with Inkscape (http://www.inkscape.org/) -->

<svg
   xmlns:dc="http://purl.org/dc/elements/1.1/"
   xmlns:cc="http://creativecommons.org/ns#"
   xmlns:rdf="http://www.w3.org/1999/02/22-rdf-syntax-ns#"
   xmlns:svg="http://www.w3.org/2000/svg"
   xmlns="http://www.w3.org/2000/svg"
   xmlns:sodipodi="http://sodipodi.sourceforge.net/DTD/sodipodi-0.dtd"
   xmlns:inkscape="http://www.inkscape.org/namespaces/inkscape"
   version="1.1"
   id="svg10"
   width="210"
   height="210"
   viewBox="0 0 210 210"
   sodipodi:docname="add.svg"
   inkscape:version="0.92.4 (5da689c313, 2019-01-14)">
  <metadata
     id="metadata16">
    <rdf:RDF>
      <cc:Work
         rdf:about="">
        <dc:format>image/svg+xml</dc:format>
        <dc:type
           rdf:resource="http://purl.org/dc/dcmitype/StillImage" />
        <dc:title></dc:title>
      </cc:Work>
    </rdf:RDF>
  </metadata>
  <defs
     id="defs14" />
  <sodipodi:namedview
     pagecolor="#ffffff"
     bordercolor="#666666"
     borderopacity="1"
     objecttolerance="10"
     gridtolerance="10"
     guidetolerance="10"
     inkscape:pageopacity="0"
     inkscape:pageshadow="2"
     inkscape:window-width="1920"
     inkscape:window-height="1017"
     id="namedview12"
     showgrid="false"
     inkscape:zoom="4.0380952"
     inkscape:cx="105"
     inkscape:cy="75.283019"
     inkscape:window-x="-8"
     inkscape:window-y="-8"
     inkscape:window-maximized="1"
     inkscape:current-layer="svg10" />
  <path
     style="fill:#000000"
     d="m 92.761794,209.53406 c -0.825,-0.32701 -2.2875,-1.28059 -3.25,-2.11907 -1.60899,-1.40165 -1.75,-4.57407 -1.75,-39.36951 0,-36.51168 -0.0705,-37.91547 -2,-39.84501 -1.92969,-1.92969 -3.33333,-2 -39.92742,-2 H 7.9069532 l -2.072581,-2.63486 c -1.804302,-2.2938 -2.07258,-4.0238 -2.07258,-13.36514 0,-9.34134 0.268278,-11.071336 2.07258,-13.365136 l 2.072581,-2.63486 H 45.834374 c 36.59409,0 37.99773,-0.0703 39.92742,-2 1.92969,-1.92969 2,-3.33334 2,-39.927423 V 14.345632 l 2.63486,-2.072581 c 2.2938,-1.804302 4.0238,-2.07258 13.365136,-2.07258 9.34134,0 11.07134,0.268278 13.36514,2.07258 l 2.63486,2.072581 v 37.927419 c 0,36.594083 0.0703,37.997733 2,39.927423 1.92969,1.92969 3.33333,2 39.92742,2 h 37.92742 l 2.07258,2.63486 c 1.8043,2.2938 2.07258,4.023796 2.07258,13.365136 0,9.34134 -0.26828,11.07134 -2.07258,13.36514 l -2.07258,2.63486 h -37.92742 c -36.59409,0 -37.99773,0.0703 -39.92742,2 -1.92954,1.92954 -2,3.33333 -2,39.84501 0,45.47455 1.39483,41.54242 -14.85209,41.86907 -5.856346,0.11775 -11.322906,-0.0535 -12.147906,-0.38049 z"
     id="path20"
     inkscape:connector-curvature="0" />
</svg>
