<?xml version="1.0" encoding="UTF-8" standalone="no"?>
<!-- Created with Inkscape (http://www.inkscape.org/) -->

<svg
   xmlns:dc="http://purl.org/dc/elements/1.1/"
   xmlns:cc="http://creativecommons.org/ns#"
   xmlns:rdf="http://www.w3.org/1999/02/22-rdf-syntax-ns#"
   xmlns:svg="http://www.w3.org/2000/svg"
   xmlns="http://www.w3.org/2000/svg"
   xmlns:sodipodi="http://sodipodi.sourceforge.net/DTD/sodipodi-0.dtd"
   xmlns:inkscape="http://www.inkscape.org/namespaces/inkscape"
   version="1.1"
   id="svg20"
   width="130"
   height="220"
   viewBox="0 0 130 220"
   sodipodi:docname="arrow_prev.svg"
   inkscape:version="0.92.3 (2405546, 2018-03-11)">
  <metadata
     id="metadata26">
    <rdf:RDF>
      <cc:Work
         rdf:about="">
        <dc:format>image/svg+xml</dc:format>
        <dc:type
           rdf:resource="http://purl.org/dc/dcmitype/StillImage" />
        <dc:title></dc:title>
      </cc:Work>
    </rdf:RDF>
  </metadata>
  <defs
     id="defs24" />
  <sodipodi:namedview
     pagecolor="#ffffff"
     bordercolor="#666666"
     borderopacity="1"
     objecttolerance="10"
     gridtolerance="10"
     guidetolerance="10"
     inkscape:pageopacity="0"
     inkscape:pageshadow="2"
     inkscape:window-width="1920"
     inkscape:window-height="1017"
     id="namedview22"
     showgrid="false"
     inkscape:zoom="1.0727273"
     inkscape:cx="65"
     inkscape:cy="110"
     inkscape:window-x="-8"
     inkscape:window-y="-8"
     inkscape:window-maximized="1"
     inkscape:current-layer="svg20" />
  <path
     style="fill:#d25300"
     d="m 107.36441,220.71812 c -1.1,-0.59701 -25.047884,-24.07957 -53.217524,-52.18348 C 18.250416,132.72193 2.7463061,116.6032 2.3174261,114.65051 0.8644561,108.03515 1.1043161,107.75891 54.022266,55.104859 82.069376,27.19761 105.99518,3.817853 107.19071,3.149842 c 5.4692,-3.05594197 10.76533,-1.053857 18.30731,6.920674 5.82701,6.161202 6.83353,8.49026 5.87568,13.59604 -0.58617,3.124566 -6.60366,9.497791 -43.344984,45.907398 l -42.66431,42.279116 42.72314,42.25567 c 29.260674,28.9405 42.923834,43.12428 43.360054,45.01223 1.23771,5.35675 -0.3397,9.06885 -6.33845,14.91622 -3.15961,3.07988 -6.72766,6.10095 -7.929,6.71349 -2.74384,1.39904 -7.20523,1.38424 -9.81574,-0.0326 z"
     id="path30"
     inkscape:connector-curvature="0" />
</svg>
