<?xml version="1.0" encoding="UTF-8" standalone="no"?>
<!-- Created with Inkscape (http://www.inkscape.org/) -->

<svg
   xmlns:dc="http://purl.org/dc/elements/1.1/"
   xmlns:cc="http://creativecommons.org/ns#"
   xmlns:rdf="http://www.w3.org/1999/02/22-rdf-syntax-ns#"
   xmlns:svg="http://www.w3.org/2000/svg"
   xmlns="http://www.w3.org/2000/svg"
   xmlns:sodipodi="http://sodipodi.sourceforge.net/DTD/sodipodi-0.dtd"
   xmlns:inkscape="http://www.inkscape.org/namespaces/inkscape"
   version="1.1"
   id="svg32"
   width="130"
   height="220"
   viewBox="0 0 130 220"
   sodipodi:docname="arrow_next.svg"
   inkscape:version="0.92.3 (2405546, 2018-03-11)">
  <metadata
     id="metadata38">
    <rdf:RDF>
      <cc:Work
         rdf:about="">
        <dc:format>image/svg+xml</dc:format>
        <dc:type
           rdf:resource="http://purl.org/dc/dcmitype/StillImage" />
        <dc:title></dc:title>
      </cc:Work>
    </rdf:RDF>
  </metadata>
  <defs
     id="defs36" />
  <sodipodi:namedview
     pagecolor="#ffffff"
     bordercolor="#666666"
     borderopacity="1"
     objecttolerance="10"
     gridtolerance="10"
     guidetolerance="10"
     inkscape:pageopacity="0"
     inkscape:pageshadow="2"
     inkscape:window-width="1920"
     inkscape:window-height="1017"
     id="namedview34"
     showgrid="false"
     inkscape:zoom="1.0727273"
     inkscape:cx="65"
     inkscape:cy="110"
     inkscape:window-x="-8"
     inkscape:window-y="-8"
     inkscape:window-maximized="1"
     inkscape:current-layer="svg32" />
  <path
     style="fill:#d25300"
     d="m 12.567796,219.07735 c -3.9825802,-2.45244 -12.07087024,-11.21772 -12.97240024,-14.0582 -0.39466,-1.24346 -0.4127,-3.88589 -0.0401,-5.87207 0.58192,-3.1019 6.69546004,-9.57667 43.34498024,-45.90608 L 85.567796,110.94616 42.842356,68.689182 C 13.549186,39.717192 -0.08259424,25.565577 -0.51770424,23.675631 -1.7516642,18.31568 -0.17459424,14.605711 5.8230558,8.7594107 14.205116,0.58887168 17.995036,-0.75367032 23.867456,2.3673596 27.886976,4.5036248 127.76277,105.04945 128.56685,107.76914 c 1.95149,6.60071 2.06752,6.4661 -51.614554,59.88047 -28.07041,27.93042 -52.01527,51.32914 -53.2108,51.99715 -3.17377,1.77336 -7.74773,1.54027 -11.1737,-0.56941 z"
     id="path42"
     inkscape:connector-curvature="0" />
</svg>
