<?xml version="1.0" encoding="UTF-8" standalone="no"?>
<!-- Created with Inkscape (http://www.inkscape.org/) -->

<svg
   xmlns:dc="http://purl.org/dc/elements/1.1/"
   xmlns:cc="http://creativecommons.org/ns#"
   xmlns:rdf="http://www.w3.org/1999/02/22-rdf-syntax-ns#"
   xmlns:svg="http://www.w3.org/2000/svg"
   xmlns="http://www.w3.org/2000/svg"
   xmlns:sodipodi="http://sodipodi.sourceforge.net/DTD/sodipodi-0.dtd"
   xmlns:inkscape="http://www.inkscape.org/namespaces/inkscape"
   version="1.1"
   id="svg20"
   width="240"
   height="210"
   viewBox="0 0 240 210"
   sodipodi:docname="buy.svg"
   inkscape:version="0.92.3 (2405546, 2018-03-11)">
  <metadata
     id="metadata26">
    <rdf:RDF>
      <cc:Work
         rdf:about="">
        <dc:format>image/svg+xml</dc:format>
        <dc:type
           rdf:resource="http://purl.org/dc/dcmitype/StillImage" />
        <dc:title></dc:title>
      </cc:Work>
    </rdf:RDF>
  </metadata>
  <defs
     id="defs24" />
  <sodipodi:namedview
     pagecolor="#ffffff"
     bordercolor="#666666"
     borderopacity="1"
     objecttolerance="10"
     gridtolerance="10"
     guidetolerance="10"
     inkscape:pageopacity="0"
     inkscape:pageshadow="2"
     inkscape:window-width="1920"
     inkscape:window-height="1017"
     id="namedview22"
     showgrid="false"
     inkscape:zoom="1.1238095"
     inkscape:cx="120"
     inkscape:cy="105"
     inkscape:window-x="-8"
     inkscape:window-y="-8"
     inkscape:window-maximized="1"
     inkscape:current-layer="svg20" />
  <path
     style="fill:#000000"
     d="m 18.258744,202.30415 c -4.83883,-1.18132 -8.23114,-3.94018 -10.4299803,-8.48237 -2.01604,-4.16458 -2.0491,-5.59996 -2.0491,-88.94928 0,-92.634153 -0.24497,-88.624257 5.8030503,-94.9914369 6.19558,-6.522537 1.05159,-6.132668 84.97895,-6.440651 51.979876,-0.190747 77.550316,0.0616 80.263126,0.79208 5.30892,1.429543 10.66712,6.2912919 11.925,10.8201129 0.5603,2.017254 1.02123,6.643277 1.02429,10.280053 l 0.006,6.612318 5.57378,0.655088 c 10.41588,1.224183 17.78588,6.058547 21.52637,14.120275 1.60598,3.461301 1.85888,6.640984 1.87789,23.610094 l 0.022,19.6101 5.41087,0.55845 c 6.20853,0.64078 10.06512,2.80735 12.14024,6.8202 2.08109,4.024367 2.08109,36.777947 0,40.802317 -2.07512,4.01285 -5.93171,6.17942 -12.14024,6.82019 l -5.41133,0.55846 -0.022,19.61009 c -0.0246,21.93271 -0.66177,24.69547 -7.10593,30.80942 -7.61004,7.22009 -1.26988,6.78255 -100.87211,6.96134 -49.224996,0.0884 -90.859416,-0.17122 -92.520916,-0.57685 z M 200.70858,190.46879 c 7.06529,-3.60268 7.53468,-5.17008 7.88169,-26.31841 l 0.31061,-18.93004 -19.81061,-0.006 c -21.53599,-0.006 -25.70157,-0.65404 -29.38487,-4.57101 -2.37439,-2.52503 -2.43224,-2.99829 -2.7327,-22.35711 l -0.30695,-19.777467 2.62123,-3.11516 c 1.44168,-1.71334 4.27981,-3.57582 6.30696,-4.13884 2.02714,-0.56302 12.60049,-1.02619 23.49633,-1.02926 l 19.81061,-0.005 -0.31061,-18.93004 c -0.34701,-21.148335 -0.8164,-22.715731 -7.88169,-26.31841 -3.18721,-1.625195 -9.60998,-1.748556 -91.11382,-1.75 C 55.045834,43.221076 20.940514,42.851944 19.344764,42.24524 l -2.5651,-0.975249 V 114.9165 c 0,67.12553 0.14654,73.80843 1.65499,75.47525 1.57962,1.74546 5.68948,1.82867 90.249996,1.82719 82.3703,-0.001 88.83593,-0.1244 92.02393,-1.75 z m 25.57108,-72.74845 v -16 l -28.93132,-0.26563 c -22.47954,-0.2064 -29.11048,0.0166 -29.73469,1 -0.93533,1.47354 -1.12849,27.8346 -0.22127,30.19877 0.545,1.42026 3.83257,1.56743 29.75,1.33179 l 29.13728,-0.26493 z m -47.5,-92.943297 c 0,-6.558073 -0.26432,-7.628433 -2.22251,-9 -1.96412,-1.375724 -11.04122,-1.556704 -78.076916,-1.556704 h -75.85442 l -2.92308,2.923077 c -3.82028,3.820282 -4.01535,9.075556 -0.46853,12.622378 l 2.45455,2.454545 h 78.545446 78.54546 z"
     id="path30"
     inkscape:connector-curvature="0" />
</svg>
