<?xml version="1.0" encoding="UTF-8" standalone="no"?>
<!-- Created with Inkscape (http://www.inkscape.org/) -->

<svg
   xmlns:dc="http://purl.org/dc/elements/1.1/"
   xmlns:cc="http://creativecommons.org/ns#"
   xmlns:rdf="http://www.w3.org/1999/02/22-rdf-syntax-ns#"
   xmlns:svg="http://www.w3.org/2000/svg"
   xmlns="http://www.w3.org/2000/svg"
   xmlns:sodipodi="http://sodipodi.sourceforge.net/DTD/sodipodi-0.dtd"
   xmlns:inkscape="http://www.inkscape.org/namespaces/inkscape"
   version="1.1"
   id="svg62"
   width="120"
   height="120"
   viewBox="0 0 120 120"
   sodipodi:docname="comment.svg"
   inkscape:version="0.92.4 (5da689c313, 2019-01-14)">
  <metadata
     id="metadata68">
    <rdf:RDF>
      <cc:Work
         rdf:about="">
        <dc:format>image/svg+xml</dc:format>
        <dc:type
           rdf:resource="http://purl.org/dc/dcmitype/StillImage" />
        <dc:title></dc:title>
      </cc:Work>
    </rdf:RDF>
  </metadata>
  <defs
     id="defs66" />
  <sodipodi:namedview
     pagecolor="#ffffff"
     bordercolor="#666666"
     borderopacity="1"
     objecttolerance="10"
     gridtolerance="10"
     guidetolerance="10"
     inkscape:pageopacity="0"
     inkscape:pageshadow="2"
     inkscape:window-width="1920"
     inkscape:window-height="1017"
     id="namedview64"
     showgrid="false"
     inkscape:zoom="1.9666667"
     inkscape:cx="60"
     inkscape:cy="60"
     inkscape:window-x="-8"
     inkscape:window-y="-8"
     inkscape:window-maximized="1"
     inkscape:current-layer="svg62" />
  <path
     style=""
     d="m 25.199996,118.35932 c -0.7228,-0.72281 -1.2,-4.22222 -1.2,-8.8 0,-4.57778 -0.47719,-8.07719 -1.2,-8.8 -0.67623,-0.67624 -3.91628,-1.199997 -7.42327,-1.199997 -5.1792,0 -6.7217301,-0.41942 -9.1943601,-2.5 -1.63409,-1.375 -3.69362,-2.5 -4.57672,-2.5 -1.44925997,0 -1.6056499677966,-4.18133 -1.6056499677966,-42.93045 V 8.6984244 L 2.2499959,8.3788734 c 1.44596,-0.205359 2.3642,-1.123594 2.56956,-2.569551 l 0.31955,-2.25 H 59.999996 114.8609 l 0.31955,2.25 c 0.20536,1.445957 1.12359,2.364192 2.56955,2.569551 L 120,8.6984244 V 51.628873 c 0,38.74912 -0.15639,42.93045 -1.60564,42.93045 -0.88311,0 -2.94263,1.125 -4.57673,2.5 l -2.97108,2.5 -30.673274,0.004 c -35.73964,0.004 -32.66622,-0.82139 -44.18303,11.871427 -7.52034,8.28827 -8.68159,9.03352 -10.79025,6.92487 z M 106.8,86.359323 c 1.71859,-1.71859 1.71859,-67.88141 0,-69.600001 -1.72737,-1.72737 -91.872634,-1.72737 -93.600004,0 -1.71859,1.718591 -1.71859,67.881411 0,69.600001 1.72737,1.72737 91.872634,1.72737 93.600004,0 z"
     id="path72"
     inkscape:connector-curvature="0" />
</svg>
