<?xml version="1.0" encoding="UTF-8" standalone="no"?>
<!-- Created with Inkscape (http://www.inkscape.org/) -->

<svg
   xmlns:dc="http://purl.org/dc/elements/1.1/"
   xmlns:cc="http://creativecommons.org/ns#"
   xmlns:rdf="http://www.w3.org/1999/02/22-rdf-syntax-ns#"
   xmlns:svg="http://www.w3.org/2000/svg"
   xmlns="http://www.w3.org/2000/svg"
   xmlns:sodipodi="http://sodipodi.sourceforge.net/DTD/sodipodi-0.dtd"
   xmlns:inkscape="http://www.inkscape.org/namespaces/inkscape"
   version="1.1"
   id="svg32"
   width="310"
   height="210"
   viewBox="0 0 310 210"
   sodipodi:docname="delivery.svg"
   inkscape:version="0.92.3 (2405546, 2018-03-11)">
  <metadata
     id="metadata38">
    <rdf:RDF>
      <cc:Work
         rdf:about="">
        <dc:format>image/svg+xml</dc:format>
        <dc:type
           rdf:resource="http://purl.org/dc/dcmitype/StillImage" />
        <dc:title></dc:title>
      </cc:Work>
    </rdf:RDF>
  </metadata>
  <defs
     id="defs36" />
  <sodipodi:namedview
     pagecolor="#ffffff"
     bordercolor="#666666"
     borderopacity="1"
     objecttolerance="10"
     gridtolerance="10"
     guidetolerance="10"
     inkscape:pageopacity="0"
     inkscape:pageshadow="2"
     inkscape:window-width="1920"
     inkscape:window-height="1017"
     id="namedview34"
     showgrid="false"
     inkscape:zoom="1.1238095"
     inkscape:cx="155"
     inkscape:cy="105"
     inkscape:window-x="-8"
     inkscape:window-y="-8"
     inkscape:window-maximized="1"
     inkscape:current-layer="svg32" />
  <path
     style="fill:#000000"
     d="m 93.587439,203.85927 c -8.99476,-1.63278 -17.35564,-8.90209 -20.21951,-17.5797 -0.6776,-2.05315 -0.96939,-6.4466 -0.68869,-10.3697 0.57418,-8.02488 4.42058,-15.01565 10.62905,-19.31812 10.33208,-7.16014 26.078561,-5.76948 34.328781,3.03177 9.89934,10.56053 9.24235,28.32674 -1.40317,37.94433 -6.46018,5.83638 -13.84751,7.88866 -22.646461,6.29142 z m 15.586571,-15.12594 c 3.19201,-3.192 3.67681,-4.334 4.00433,-9.43251 0.29303,-4.56174 -0.0644,-6.49699 -1.67338,-9.05996 -4.20927,-6.70507 -12.440481,-9.0543 -19.682851,-5.61757 -10.26996,4.87341 -11.05078,19.6797 -1.38143,26.19528 2.92796,1.97297 4.44809,2.29208 9.30082,1.95244 5.075631,-0.35523 6.254831,-0.86 9.432511,-4.03768 z m 130.61042,15.22254 c -8.88786,-1.75259 -16.69859,-7.91418 -20.13426,-15.88314 -2.31602,-5.37196 -2.03596,-15.67308 0.5625,-20.6892 C 225.57843,157.02533 233.49298,152 244.44068,152 c 15.95114,0 27.05133,12.31383 25.74708,28.56212 -1.23904,15.43574 -15.42111,26.34809 -30.40333,23.39375 z m 12.75837,-13.2258 c 6.48915,-4.33504 8.68,-12.90765 5.04627,-19.74567 -7.3462,-13.82422 -28.14091,-8.64004 -28.14091,7.0156 0,11.87454 13.35547,19.23625 23.09464,12.73007 z M 37.095669,168.17126 c -1.36289,-1.50598 -1.65499,-4.14339 -1.65499,-14.9433 0,-12.41859 0.11794,-13.19716 2.22251,-14.67126 6.04195,-4.23195 8.77749,-0.71898 8.77749,11.27204 V 159 h 7.34501 c 7.88526,0 10.65499,1.47487 10.65499,5.67375 0,4.28461 -2.86972,5.32625 -14.67375,5.32625 -9.4024,0 -11.25873,-0.26791 -12.67126,-1.82874 z m 96.677551,-0.78649 c -1.53708,-2.34588 -1.56131,-2.8866 -0.23526,-5.25 l 1.4783,-2.63477 26.21221,-0.2666 26.21221,-0.26661 V 87.983398 17 h -70.5 -70.500001 v 19.928568 c 0,16.78355 -0.248,20.17657 -1.57143,21.5 -2.10733,2.10734 -5.7425,1.98701 -7.77358,-0.25731 -1.44107,-1.59236 -1.65499,-4.86368 -1.65499,-25.30887 0,-18.700168 0.28895,-23.8752932 1.41939,-25.4212582 1.38421,-1.893025 3.36874,-1.94113 80.080611,-1.94113 76.71187,0 78.6964,0.0481 80.08061,1.94113 1.03614,1.416998 1.41939,5.1296852 1.41939,13.7500002 v 11.808868 h 26.45577 26.45577 l 21.29423,17.58214 c 11.71183,9.67018 22.08173,18.49503 23.04423,19.61079 1.61294,1.86976 1.75,5.70094 1.75,48.917852 0,55.35353 1.05271,50.88922 -12,50.88922 -6.66667,0 -8.33333,-0.33333 -10,-2 -2.39668,-2.39668 -2.50004,-3.84108 -0.48113,-6.72347 1.12369,-1.6043 2.7498,-2.24759 6.25,-2.47251 l 4.73113,-0.30402 0.24107,-41 0.24107,-41.000002 -19.65284,-16.25 -19.65285,-16.25 H 222.77891 198.44068 V 101.5 159 h 7.34501 c 5.84574,0 7.68283,0.37329 9,1.82874 2.1712,2.39914 2.10048,5.45812 -0.17375,7.51627 C 212.97668,169.8249 208.69423,170 174.13499,170 h -38.6482 z M 8.7786188,131.00137 c -4.33754,-1.74913 -4.13173,-8.36888 0.31273,-10.05865 C 10.478209,120.41543 27.528769,120 47.783269,120 c 39.99418,0 40.65741,0.0979 40.65741,6 0,5.91683 -0.61981,6.00664 -40.97251,5.93661 -20.09012,-0.0349 -37.5004202,-0.45572 -38.6895502,-0.93524 z M 213.66319,119.4433 c -2.2042,-1.54388 -2.22251,-1.78117 -2.22251,-28.800002 0,-19.8559 0.3254,-27.56869 1.2,-28.4433 0.84536,-0.84535 6.53442,-1.1975 19.25,-1.19153 l 18.05,0.008 10.25,9.13312 10.25,9.13313 v 19.30171 c 0,18.812212 -0.0564,19.341182 -2.22251,20.858412 -1.86797,1.30834 -6.21924,1.55666 -27.27749,1.55666 -21.05825,0 -25.40952,-0.24832 -27.27749,-1.5567 z m 45.77749,-22.239472 v -12.79618 l -6.92915,-6.20382 -6.92916,-6.20383 h -11.57084 -11.57085 v 18.33334 c 0,10.083332 0.3,18.633332 0.66667,18.999992 0.36666,0.36667 8.69166,0.66667 18.5,0.66667 h 17.83333 z M 19.095669,102.17126 c -2.1712,-2.399142 -2.10048,-5.458122 0.17375,-7.516272 1.63274,-1.47761 5.81964,-1.65499 39.06574,-1.65499 23.46852,0 37.94373,0.37823 39.14834,1.02292 3.322171,1.77797 4.318141,4.77724 2.5052,7.544142 L 98.394569,104 h -38.82196 c -36.34009,0 -38.92776,-0.11691 -40.47694,-1.82874 z m 12.34501,-27.171262 c -2.40692,-2.40692 -2.50067,-3.84018 -0.4433,-6.77749 l 1.55671,-2.22251 h 38.88659 38.886591 l 1.55671,2.22251 c 2.05737,2.93731 1.96362,4.37057 -0.4433,6.77749 -1.92982,1.92983 -3.33333,2 -40.000001,2 -36.66667,0 -38.07018,-0.0702 -40,-2 z"
     id="path42"
     inkscape:connector-curvature="0" />
</svg>
