<?xml version="1.0" encoding="UTF-8" standalone="no"?>
<!-- Created with Inkscape (http://www.inkscape.org/) -->

<svg
   xmlns:dc="http://purl.org/dc/elements/1.1/"
   xmlns:cc="http://creativecommons.org/ns#"
   xmlns:rdf="http://www.w3.org/1999/02/22-rdf-syntax-ns#"
   xmlns:svg="http://www.w3.org/2000/svg"
   xmlns="http://www.w3.org/2000/svg"
   xmlns:sodipodi="http://sodipodi.sourceforge.net/DTD/sodipodi-0.dtd"
   xmlns:inkscape="http://www.inkscape.org/namespaces/inkscape"
   version="1.1"
   id="svg30"
   width="330"
   height="330"
   viewBox="0 0 330 330"
   sodipodi:docname="edit.svg"
   inkscape:version="0.92.4 (5da689c313, 2019-01-14)">
  <metadata
     id="metadata36">
    <rdf:RDF>
      <cc:Work
         rdf:about="">
        <dc:format>image/svg+xml</dc:format>
        <dc:type
           rdf:resource="http://purl.org/dc/dcmitype/StillImage" />
        <dc:title></dc:title>
      </cc:Work>
    </rdf:RDF>
  </metadata>
  <defs
     id="defs34" />
  <sodipodi:namedview
     pagecolor="#ffffff"
     bordercolor="#666666"
     borderopacity="1"
     objecttolerance="10"
     gridtolerance="10"
     guidetolerance="10"
     inkscape:pageopacity="0"
     inkscape:pageshadow="2"
     inkscape:window-width="1920"
     inkscape:window-height="1017"
     id="namedview32"
     showgrid="false"
     inkscape:zoom="0.71515152"
     inkscape:cx="165"
     inkscape:cy="165"
     inkscape:window-x="-8"
     inkscape:window-y="-8"
     inkscape:window-maximized="1"
     inkscape:current-layer="svg30" />
  <path
     style=""
     d="m 148.90678,326.50842 c -4.91953,-0.44123 -8.31491,-2.09067 -9.72417,-4.72389 -0.58812,-1.09892 -1.41507,-5.42786 -1.83767,-9.61987 -1.70151,-16.8783 -12.60533,-29.11904 -28.56711,-32.06974 -10.198607,-1.88532 -22.712727,1.93468 -31.156957,9.51083 -7.801,6.99904 -11.28282,5.73615 -26.54911,-9.62957 -15.53946,-15.64068 -16.9237,-19.25888 -10.24261,-26.77279 7.55649,-8.49845 11.2593,-19.06908 10.12364,-28.90061 -0.92482,-8.00628 -5.61576,-17.07767 -11.62496,-22.48046 -5.31106,-4.7751 -13.86382,-8.61523 -19.20857,-8.62451 -5.16663,-0.009 -10.1800998,-1.79882 -12.7747598,-4.56071 -2.27882,-2.4257 -2.43466,-3.37763 -2.78763,-17.02818 -0.69947,-27.05049 0.47586,-29.82621 13.3042298,-31.42 18.44193,-2.29123 30.55632,-12.85678 33.59617,-29.30087 1.91941,-10.38302 -1.47796,-20.888979 -10.07573,-31.158019 -3.54789,-4.23754 -4.08421,-5.46477 -3.62496,-8.29481 0.65159,-4.01526 5.77715,-10.29454 17.32808,-21.22845 13.40886,-12.69261 15.95846,-13.2976 24.82212,-5.89006 7.40282,6.18669 12.58757,8.18348 22.499997,8.66533 11.27037,0.54787 17.95965,-1.85895 25.34169,-9.11801 6.53684,-6.42796 9.53847,-12.75937 11.11993,-23.45562 1.36993,-9.26549 2.4838,-10.9408303 8.14767,-12.2547403 4.92312,-1.14207 29.43837,-1.1434 35.35442,-0.002 5.98459,1.1547 7.60088,3.4569803 8.39035,11.9513803 0.99699,10.72717 4.01143,17.62576 10.56594,24.18026 7.78861,7.78862 14.50369,10.27567 26.08,9.65922 9.98398,-0.53165 15.4501,-2.63757 22.35281,-8.61182 5.77704,-5 8.81302,-5.9041 13.00271,-3.87215 4.29207,2.0816 14.69475,11.7012 22.32814,20.64735 8.01605,9.39463 8.37999,12.47139 2.29316,19.38639 -2.21274,2.51382 -5.25024,7.18967 -6.75,10.39079 -2.29874,4.90649 -2.72682,7.15461 -2.72682,14.320199 0,7.09447 0.43574,9.42931 2.63517,14.12001 5.60705,11.95816 15.77972,19.06881 29.77166,20.81026 6.13085,0.76305 7.8985,1.41352 10.26083,3.77585 2.68996,2.68996 2.89009,3.48479 3.48191,13.82833 0.93275,16.30238 -0.24658,27.83317 -3.20645,31.35077 -2.04668,2.43235 -3.30211,2.89672 -9.1587,3.38772 -9.63225,0.80753 -17.29845,3.97324 -23.6259,9.75618 -14.07459,12.86338 -15.24946,33.16864 -2.81151,48.59122 6.13467,7.60675 6.72123,9.37992 4.58919,13.87287 -1.98734,4.188 -19.53689,22.22151 -25.40296,26.10349 -5.76514,3.81519 -8.92454,3.41632 -15.52446,-1.95993 -10.45252,-8.51457 -24.52278,-11.33244 -36.30526,-7.27091 -11.92077,4.1092 -21.59347,17.29544 -22.89267,31.20826 -0.82432,8.82748 -3.01402,11.46285 -10.39515,12.5109 -5.41812,0.76932 -22.88272,0.89565 -30.4157,0.22001 z m 32.07213,-108.41745 c 15.54725,-4.75744 28.8708,-18.17925 34.35267,-34.60603 2.60157,-7.79577 2.83156,-22.34349 0.47982,-30.35005 -5.41994,-18.4523 -19.98825,-32.66056 -38.40462,-37.45546 -8.47182,-2.20573 -22.10849,-1.58065 -30.46087,1.39627 -30.72028,10.94919 -44.61256,46.69566 -29.30734,75.4112 12.14434,22.7851 38.17098,33.30586 63.34034,25.60407 z"
     id="path40"
     inkscape:connector-curvature="0" />
</svg>
