<?xml version="1.0" encoding="UTF-8" standalone="no"?>
<!-- Created with Inkscape (http://www.inkscape.org/) -->

<svg
   xmlns:dc="http://purl.org/dc/elements/1.1/"
   xmlns:cc="http://creativecommons.org/ns#"
   xmlns:rdf="http://www.w3.org/1999/02/22-rdf-syntax-ns#"
   xmlns:svg="http://www.w3.org/2000/svg"
   xmlns="http://www.w3.org/2000/svg"
   xmlns:sodipodi="http://sodipodi.sourceforge.net/DTD/sodipodi-0.dtd"
   xmlns:inkscape="http://www.inkscape.org/namespaces/inkscape"
   version="1.1"
   id="svg36"
   width="330"
   height="330"
   viewBox="0 0 330 330"
   sodipodi:docname="edit.svg"
   inkscape:version="0.92.3 (2405546, 2018-03-11)">
  <metadata
     id="metadata42">
    <rdf:RDF>
      <cc:Work
         rdf:about="">
        <dc:format>image/svg+xml</dc:format>
        <dc:type
           rdf:resource="http://purl.org/dc/dcmitype/StillImage" />
        <dc:title></dc:title>
      </cc:Work>
    </rdf:RDF>
  </metadata>
  <defs
     id="defs40" />
  <sodipodi:namedview
     pagecolor="#ffffff"
     bordercolor="#666666"
     borderopacity="1"
     objecttolerance="10"
     gridtolerance="10"
     guidetolerance="10"
     inkscape:pageopacity="0"
     inkscape:pageshadow="2"
     inkscape:window-width="1920"
     inkscape:window-height="1017"
     id="namedview38"
     showgrid="false"
     inkscape:zoom="0.71515152"
     inkscape:cx="165"
     inkscape:cy="165"
     inkscape:window-x="-8"
     inkscape:window-y="-8"
     inkscape:window-maximized="1"
     inkscape:current-layer="svg36" />
  <g
     id="g46"
     transform="translate(1.3983041,2.7966076)">
    <path
       style="fill:#fefefe"
       d="M 0,165 V 0 H 165 330 V 165 330 H 165 0 Z"
       id="path50"
       inkscape:connector-curvature="0" />
    <path
       style="fill:#c8d0d1"
       d="m 154.5,329.30503 c -4.91953,-0.44123 -8.31491,-2.09067 -9.72417,-4.72389 -0.58812,-1.09892 -1.41507,-5.42786 -1.83767,-9.61987 -1.70151,-16.8783 -12.60533,-29.11904 -28.56711,-32.06974 -10.19861,-1.88532 -22.712722,1.93468 -31.156954,9.51083 -7.801002,6.99904 -11.282824,5.73615 -26.549114,-9.62957 C 41.125521,267.13211 39.741287,263.51391 46.42237,256 c 7.556497,-8.49845 11.259303,-19.06908 10.123646,-28.90061 -0.924818,-8.00628 -5.61576,-17.07767 -11.624958,-22.48046 -5.311065,-4.7751 -13.863824,-8.61523 -19.208571,-8.62451 -5.166636,-0.009 -10.180104,-1.79882 -12.774763,-4.56071 -2.278823,-2.4257 -2.434662,-3.37763 -2.787635,-17.02818 -0.6994655,-27.05049 0.475862,-29.82621 13.304238,-31.42 18.441931,-2.29123 30.556314,-12.85678 33.59617,-29.30087 C 58.969901,103.30164 55.572532,92.795685 46.974759,82.526642 43.426874,78.289103 42.890553,77.061866 43.349805,74.231828 44.001392,70.216568 49.126958,63.93729 60.677883,53.003376 74.086741,40.310774 76.636347,39.705777 85.5,47.11332 c 7.40282,6.186694 12.587574,8.183477 22.5,8.665335 11.27037,0.547869 17.95965,-1.858958 25.34169,-9.118019 6.53684,-6.427951 9.53847,-12.75937 11.11993,-23.455617 1.36993,-9.265489 2.4838,-10.940831 8.14767,-12.254738 4.92312,-1.142067 29.43837,-1.1434018 35.35442,-0.0019 5.98459,1.154703 7.60088,3.456976 8.39035,11.951379 0.99699,10.727169 4.01143,17.625758 10.56594,24.180265 7.78861,7.788611 14.50369,10.275668 26.08,9.65922 9.98398,-0.531656 15.4501,-2.637577 22.35281,-8.611826 5.77704,-4.999998 8.81302,-5.904096 13.00271,-3.872148 4.29207,2.081599 14.69475,11.701197 22.32814,20.647354 8.01605,9.394622 8.37999,12.471386 2.29316,19.386388 -2.21274,2.513813 -5.25024,7.189669 -6.75,10.39079 C 283.92808,99.586289 283.5,101.83441 283.5,109 c 0,7.09447 0.43574,9.42931 2.63517,14.12001 5.60705,11.95816 15.77972,19.06881 29.77166,20.81026 6.13085,0.76305 7.8985,1.41352 10.26083,3.77585 2.68996,2.68996 2.89009,3.48479 3.48191,13.82833 0.93275,16.30238 -0.24658,27.83317 -3.20645,31.35077 -2.04668,2.43235 -3.30211,2.89672 -9.1587,3.38772 -9.63225,0.80753 -17.29845,3.97324 -23.6259,9.75618 -14.07459,12.86338 -15.24946,33.16864 -2.81151,48.59122 6.13467,7.60675 6.72123,9.37992 4.58919,13.87287 -1.98734,4.188 -19.53689,22.22151 -25.40296,26.10349 -5.76514,3.81519 -8.92454,3.41632 -15.52446,-1.95993 -10.45252,-8.51457 -24.52278,-11.33244 -36.30526,-7.27091 -11.92077,4.1092 -21.59347,17.29544 -22.89267,31.20826 -0.82432,8.82748 -3.01402,11.46285 -10.39515,12.5109 -5.41812,0.76932 -22.88272,0.89565 -30.4157,0.22001 z m 32.07213,-108.41745 c 15.54725,-4.75744 28.8708,-18.17925 34.35267,-34.60603 2.60157,-7.79577 2.83156,-22.34349 0.47982,-30.35005 C 215.98468,137.4792 201.41637,123.27094 183,118.47604 c -8.47182,-2.20573 -22.10849,-1.58065 -30.46087,1.39627 -30.72028,10.94919 -44.61256,46.69566 -29.30734,75.4112 12.14434,22.7851 38.17098,33.30586 63.34034,25.60407 z"
       id="path48"
       inkscape:connector-curvature="0" />
  </g>
</svg>
