<?xml version="1.0" encoding="UTF-8" standalone="no"?>
<!-- Created with Inkscape (http://www.inkscape.org/) -->

<svg
   xmlns:dc="http://purl.org/dc/elements/1.1/"
   xmlns:cc="http://creativecommons.org/ns#"
   xmlns:rdf="http://www.w3.org/1999/02/22-rdf-syntax-ns#"
   xmlns:svg="http://www.w3.org/2000/svg"
   xmlns="http://www.w3.org/2000/svg"
   xmlns:sodipodi="http://sodipodi.sourceforge.net/DTD/sodipodi-0.dtd"
   xmlns:inkscape="http://www.inkscape.org/namespaces/inkscape"
   version="1.1"
   id="svg20"
   width="512"
   height="512"
   viewBox="0 0 512 512"
   sodipodi:docname="enter-left.svg"
   inkscape:version="0.92.4 (5da689c313, 2019-01-14)">
  <metadata
     id="metadata26">
    <rdf:RDF>
      <cc:Work
         rdf:about="">
        <dc:format>image/svg+xml</dc:format>
        <dc:type
           rdf:resource="http://purl.org/dc/dcmitype/StillImage" />
        <dc:title></dc:title>
      </cc:Work>
    </rdf:RDF>
  </metadata>
  <defs
     id="defs24" />
  <sodipodi:namedview
     pagecolor="#ffffff"
     bordercolor="#666666"
     borderopacity="1"
     objecttolerance="10"
     gridtolerance="10"
     guidetolerance="10"
     inkscape:pageopacity="0"
     inkscape:pageshadow="2"
     inkscape:window-width="1920"
     inkscape:window-height="1017"
     id="namedview22"
     showgrid="false"
     inkscape:zoom="0.4609375"
     inkscape:cx="256"
     inkscape:cy="256"
     inkscape:window-x="1358"
     inkscape:window-y="-8"
     inkscape:window-maximized="1"
     inkscape:current-layer="svg20" />
  <path
     style="fill:#000000"
     d="m 11.400644,514.51171 c -1.8739195,-1.00499 -4.2293992,-3.36047 -5.2343992,-5.23439 -1.72568,-3.21772 -1.82726,-7.81559 -1.82726,-82.70486 0,-87.36524 -0.21489,-84.303 6.1898192,-88.20785 3.04598,-1.85708 5.0102,-2.01845 24.60984,-2.02189 23.6314,-0.004 25.66737,0.43414 29.24082,6.29481 1.8726,3.07116 1.95219,5.40935 1.95578,57.45145 l 0.004,54.25 h 194.000006 194 v -194 -193.999996 h -194 -194.000006 l -0.004,54.249996 c -0.004,52.0421 -0.0832,54.38029 -1.95578,57.45145 -3.57346,5.86067 -5.60942,6.29896 -29.24082,6.29481 -19.59968,-0.003 -21.5639,-0.16481 -24.60988,-2.02189 -6.4047092,-3.90485 -6.1898192,-0.84261 -6.1898192,-88.207846 0,-74.88927 0.10158,-79.48714 1.82726,-82.70486 1.005,-1.8739197 3.3604797,-4.2293997 5.2343992,-5.2343997 3.27327,-1.7554701 13.05371,-1.8272601 248.938346,-1.8272601 235.8846,0 245.6651,0.0718 248.9383,1.8272601 1.874,1.005 4.2294,3.36048 5.2344,5.2343997 1.7555,3.27327 1.8273,13.05371 1.8273,248.938336 0,235.88463 -0.072,245.66506 -1.8273,248.93834 -1.005,1.87392 -3.3604,4.2294 -5.2344,5.23439 -3.2732,1.75548 -13.0537,1.82727 -248.9383,1.82727 -235.884636,0 -245.665076,-0.0718 -248.938346,-1.82727 z M 209.47949,398.26732 c -3.993,-1.59908 -28.915,-26.83105 -31.235,-31.6236 -4.1376,-8.54716 -4.4589,-8.09422 30.8966,-43.55474 l 31.656,-31.75 h -96.7611 c -106.558406,0 -101.724926,0.28313 -105.671376,-6.18982 -1.85899,-3.04912 -2.01816,-5.00583 -2.01816,-24.81018 0,-19.80435 0.15917,-21.76106 2.01816,-24.81018 3.94645,-6.47295 -0.88703,-6.18982 105.671376,-6.18982 h 96.7611 l -31.656,-31.75 c -35.3555,-35.46052 -35.0342,-35.00758 -30.8966,-43.55474 2.4521,-5.06541 27.366,-30.08758 31.5359,-31.67297 4.7497,-1.80586 9.0207,-1.19871 13.1586,1.87059 2.145,1.59108 32.3055,31.40358 67.0233,66.25 66.9983,67.24642 65.193,65.17534 63.7253,73.10712 -0.4896,2.6458 -12.6108,15.28625 -65.2,67.99284 -35.5293,35.60856 -66.0279,65.42106 -67.7748,66.25 -3.5573,1.68807 -7.7041,1.84883 -11.2333,0.4355 z"
     id="path30"
     inkscape:connector-curvature="0" />
</svg>
