<?xml version="1.0" encoding="UTF-8" standalone="no"?>
<!-- Created with Inkscape (http://www.inkscape.org/) -->

<svg
   xmlns:dc="http://purl.org/dc/elements/1.1/"
   xmlns:cc="http://creativecommons.org/ns#"
   xmlns:rdf="http://www.w3.org/1999/02/22-rdf-syntax-ns#"
   xmlns:svg="http://www.w3.org/2000/svg"
   xmlns="http://www.w3.org/2000/svg"
   xmlns:sodipodi="http://sodipodi.sourceforge.net/DTD/sodipodi-0.dtd"
   xmlns:inkscape="http://www.inkscape.org/namespaces/inkscape"
   version="1.1"
   id="svg10"
   width="180"
   height="180"
   viewBox="0 0 180 180"
   sodipodi:docname="liked.svg"
   inkscape:version="0.92.4 (5da689c313, 2019-01-14)">
  <metadata
     id="metadata16">
    <rdf:RDF>
      <cc:Work
         rdf:about="">
        <dc:format>image/svg+xml</dc:format>
        <dc:type
           rdf:resource="http://purl.org/dc/dcmitype/StillImage" />
        <dc:title></dc:title>
      </cc:Work>
    </rdf:RDF>
  </metadata>
  <defs
     id="defs14" />
  <sodipodi:namedview
     pagecolor="#ffffff"
     bordercolor="#666666"
     borderopacity="1"
     objecttolerance="10"
     gridtolerance="10"
     guidetolerance="10"
     inkscape:pageopacity="0"
     inkscape:pageshadow="2"
     inkscape:window-width="1920"
     inkscape:window-height="1017"
     id="namedview12"
     showgrid="false"
     inkscape:zoom="4.7111111"
     inkscape:cx="90"
     inkscape:cy="90"
     inkscape:window-x="-8"
     inkscape:window-y="-8"
     inkscape:window-maximized="1"
     inkscape:current-layer="svg10" />
  <path
     style=""
     d="m 68.561324,146.40955 c -1.1,-0.27757 -3.125,-0.96144 -4.5,-1.51972 -1.375,-0.55828 -8.90306,-1.06647 -16.72903,-1.12932 l -14.22902,-0.11428 -3.27098,-3.268 -3.27097,-3.268 -0.26818,-32.732 c -0.34994,-42.712352 -1.10028,-41.232003 20.89902,-41.232003 6.71917,0 12.8934,0.477788 14.02917,1.085636 2.86816,1.534995 10.58932,-3.3733 13.56157,-8.621015 2.01079,-3.550194 2.24724,-5.344743 2.26197,-17.167568 0.0177,-14.176198 0.80683,-17.424886 4.65925,-19.180166 8.19895,-3.735691 18.583806,-1.946057 24.793196,4.272638 5.12913,5.136819 6.564,9.813627 6.564,21.394707 0,4.978706 0.27314,9.763997 0.60699,10.633981 0.50306,1.310945 2.51495,1.582742 11.75,1.587364 6.12865,0.0031 12.87762,0.487228 14.99771,1.075913 8.17265,2.269303 15.68232,12.528577 15.62551,21.346649 -0.0411,6.381917 -7.8007,51.391304 -9.46415,54.896784 -2.43423,5.12975 -7.58685,9.32165 -13.68347,11.13215 -4.19945,1.24711 -10.67298,1.52069 -33.76409,1.42693 -15.712676,-0.0638 -29.468496,-0.34311 -30.568496,-0.62068 z m 61.921726,-17.51332 c 2.32144,-2.06187 2.82777,-4.14771 6.05576,-24.94669 1.93738,-12.483181 3.52251,-23.62068 3.52251,-24.750001 0,-1.129322 -0.9,-2.953312 -2,-4.053312 -1.83729,-1.837291 -3.33333,-2 -18.38922,-2 -22.21782,0 -20.94476,1.170884 -21.64622,-19.908874 -0.44063,-13.241254 -0.83255,-16.387689 -2.21326,-17.768395 -2.241106,-2.241109 -2.524566,-1.235126 -3.008586,10.677269 -0.28732,7.071314 -0.96908,10.829845 -2.66677,14.701795 -2.62368,5.983908 -10.52111,13.960907 -17.14932,17.322108 -2.43464,1.234621 -4.75723,2.746815 -5.16131,3.360431 -0.40408,0.613616 -0.74158,10.923618 -0.75,22.911119 l -0.0153,21.79546 2.45454,2.45454 2.45455,2.45455 H 99.96011 c 27.60909,0 28.02414,-0.0306 30.52295,-2.25 z m -81.003516,-1.35699 c 1.38146,-0.53011 1.58179,-3.64026 1.58179,-24.5575 V 79.031231 l -4.25,0.307498 -4.25,0.307498 -0.26887,23.429323 c -0.27981,24.38257 -0.18003,25.01758 3.93708,25.05537 0.91752,0.008 2.38002,-0.25783 3.25,-0.59168 z"
     id="path20"
     inkscape:connector-curvature="0" />
</svg>
