<?xml version="1.0" encoding="UTF-8" standalone="no"?>
<!-- Created with Inkscape (http://www.inkscape.org/) -->

<svg
   xmlns:dc="http://purl.org/dc/elements/1.1/"
   xmlns:cc="http://creativecommons.org/ns#"
   xmlns:rdf="http://www.w3.org/1999/02/22-rdf-syntax-ns#"
   xmlns:svg="http://www.w3.org/2000/svg"
   xmlns="http://www.w3.org/2000/svg"
   xmlns:sodipodi="http://sodipodi.sourceforge.net/DTD/sodipodi-0.dtd"
   xmlns:inkscape="http://www.inkscape.org/namespaces/inkscape"
   version="1.1"
   id="svg50"
   width="120"
   height="100"
   viewBox="0 0 120 100"
   sodipodi:docname="loc.svg"
   inkscape:version="0.92.4 (5da689c313, 2019-01-14)">
  <metadata
     id="metadata56">
    <rdf:RDF>
      <cc:Work
         rdf:about="">
        <dc:format>image/svg+xml</dc:format>
        <dc:type
           rdf:resource="http://purl.org/dc/dcmitype/StillImage" />
        <dc:title></dc:title>
      </cc:Work>
    </rdf:RDF>
  </metadata>
  <defs
     id="defs54" />
  <sodipodi:namedview
     pagecolor="#ffffff"
     bordercolor="#666666"
     borderopacity="1"
     objecttolerance="10"
     gridtolerance="10"
     guidetolerance="10"
     inkscape:pageopacity="0"
     inkscape:pageshadow="2"
     inkscape:window-width="1920"
     inkscape:window-height="1017"
     id="namedview52"
     showgrid="false"
     inkscape:zoom="2.36"
     inkscape:cx="60"
     inkscape:cy="50"
     inkscape:window-x="-8"
     inkscape:window-y="-8"
     inkscape:window-maximized="1"
     inkscape:current-layer="svg50" />
  <path
     style=""
     d="m 5.2432776,98.597453 c -0.17575,-1.2375 -1.33205,-2.6942 -2.56955,-3.23712 L 0.42372763,94.373203 V 50.847458 7.3217147 L 2.6737276,6.3345857 c 1.2375,-0.54292 2.3938,-1.999628 2.56955,-3.237128 l 0.31955,-2.24999999 H 60.423728 115.28463 l 0.31955,2.24999999 c 0.17575,1.2375 1.33205,2.694208 2.56955,3.237128 l 2.25,0.987129 V 50.847458 94.373203 l -2.25,0.98713 c -1.2375,0.54292 -2.3938,1.99962 -2.56955,3.23712 l -0.31955,2.249997 H 60.423728 5.5628276 Z M 106.48947,87.812273 c 1.85725,-0.99397 1.93426,-2.4657 1.93426,-36.964815 0,-34.499119 -0.077,-35.970848 -1.93426,-36.964816 -2.65383,-1.420288 -89.477652,-1.420288 -92.131482,0 -1.85723,0.993956 -1.93426,2.465533 -1.93426,36.95031 0,33.149921 0.13474,35.993601 1.75,36.934411 2.41786,1.40827 89.688942,1.45073 92.315742,0.0449 z m -78.815742,-12.6271 c -2.50207,-1.00961 -1.13029,-4.49525 4.46415,-11.34322 3.8169,-4.67215 6.41967,-6.994495 7.83906,-6.994495 1.27846,0 3.93174,1.991738 6.66072,4.999995 7.0704,7.79401 8.84695,7.25958 19.26531,-5.795424 3.20211,-4.012486 6.69167,-7.760852 7.75457,-8.329704 2.30938,-1.235938 4.19508,0.20763 8.4395,6.460714 1.55468,2.290431 5.18919,7.279744 8.07669,11.087374 2.8875,3.80763 5.25,7.27929 5.25,7.71482 0,2.41796 -5.5621,2.85795 -35.18426,2.78328 -17.22365,-0.0434 -31.87824,-0.30592 -32.56574,-0.58334 z"
     id="path60"
     inkscape:connector-curvature="0" />
</svg>
