<?xml version="1.0" encoding="UTF-8" standalone="no"?>
<!-- Created with Inkscape (http://www.inkscape.org/) -->

<svg
   xmlns:dc="http://purl.org/dc/elements/1.1/"
   xmlns:cc="http://creativecommons.org/ns#"
   xmlns:rdf="http://www.w3.org/1999/02/22-rdf-syntax-ns#"
   xmlns:svg="http://www.w3.org/2000/svg"
   xmlns="http://www.w3.org/2000/svg"
   xmlns:sodipodi="http://sodipodi.sourceforge.net/DTD/sodipodi-0.dtd"
   xmlns:inkscape="http://www.inkscape.org/namespaces/inkscape"
   version="1.1"
   id="svg20"
   width="80"
   height="120"
   viewBox="0 0 80 120"
   sodipodi:docname="location.svg"
   inkscape:version="0.92.4 (5da689c313, 2019-01-14)">
  <metadata
     id="metadata26">
    <rdf:RDF>
      <cc:Work
         rdf:about="">
        <dc:format>image/svg+xml</dc:format>
        <dc:type
           rdf:resource="http://purl.org/dc/dcmitype/StillImage" />
        <dc:title></dc:title>
      </cc:Work>
    </rdf:RDF>
  </metadata>
  <defs
     id="defs24" />
  <sodipodi:namedview
     pagecolor="#ffffff"
     bordercolor="#666666"
     borderopacity="1"
     objecttolerance="10"
     gridtolerance="10"
     guidetolerance="10"
     inkscape:pageopacity="0"
     inkscape:pageshadow="2"
     inkscape:window-width="1920"
     inkscape:window-height="1017"
     id="namedview22"
     showgrid="false"
     inkscape:zoom="1.9666667"
     inkscape:cx="40"
     inkscape:cy="60"
     inkscape:window-x="-8"
     inkscape:window-y="-8"
     inkscape:window-maximized="1"
     inkscape:current-layer="svg20" />
  <path
     style=""
     d="m 35.241627,114.7839 c -1.87041,-2.3375 -5.3504,-7.175 -7.7333,-10.75 -2.38291,-3.575 -5.56249,-8.310599 -7.06572,-10.523549 -4.48731,-6.60589 -13.6595702,-24.65615 -14.9081402,-29.33801 -0.7631,-2.86143 -1.82745,-4.53527 -3.09457,-4.86663 -1.79942002,-0.47056 -1.93142002,-1.52224 -1.93142002,-15.38844 0,-12.48787 0.23872,-14.88337 1.48315002,-14.88337 0.81574,0 2.59986,-2.2037 3.96471,-4.89712 3.12866,-6.17411 11.3799402,-14.7151605 16.1355102,-16.7021705 1.99909,-0.83527 3.86313,-2.39213 4.1423,-3.45969 0.47144,-1.802786 1.48804,-1.941022 14.27433,-1.941022 12.78629,0 13.80289,0.138236 14.27432,1.941022 0.27918,1.06756 2.05541,2.58774 3.94719,3.37817 4.71356,1.96945 13.27977,10.7631305 16.3101,16.7431905 1.37615,2.71569 3.1695,4.93762 3.98524,4.93762 1.24268,0 1.48315,2.35097 1.48315,14.5 0,11.44996 -0.28176,14.5 -1.33949,14.5 -1.37,0 -3.66051,4.02562 -3.66051,6.43344 0,1.77056 -11.1142,23.44651 -14.78545,28.83597 -1.58501,2.32682 -4.83149,7.155589 -7.2144,10.730589 -6.76263,10.14575 -10.96969,15 -13.00015,15 -1.02636,0 -3.39644,-1.9125 -5.26685,-4.25 z m 6.73293,-15.375359 c 3.43053,-1.31642 16.82797,-24.02957 23.22527,-39.37464 2.94967,-7.07531 3.55445,-9.76214 3.6082,-16.03016 0.0557,-6.49964 -0.33668,-8.27203 -2.86748,-12.95119 -5.79666,-10.71731 -15.23385,-17.01865 -25.48795,-17.01865 -10.56687,0 -20.18068,6.66105 -25.97918,18 -3.52059,6.88451 -3.18982,17.14429 0.87338,27.09065 5.21139,12.75701 16.42362,32.77367 21.31289,38.04887 2.8958,3.124379 2.94432,3.144779 5.31487,2.23512 z m -8.62877,-43.39794 c -2.9051,-1.53468 -4.00764,-2.97342 -5.33037,-6.9558 -1.55708,-4.68792 -1.55699,-5.35415 0.001,-10.0458 1.36175,-4.09984 2.38173,-5.3885 5.54053,-7 9.96343,-5.08294 20.3503,1.05462 20.3503,12.0249 0,10.99011 -10.66742,17.20362 -20.56176,11.9767 z"
     id="path36"
     inkscape:connector-curvature="0" />
</svg>
