<?xml version="1.0" encoding="UTF-8" standalone="no"?>
<!-- Created with Inkscape (http://www.inkscape.org/) -->

<svg
   xmlns:dc="http://purl.org/dc/elements/1.1/"
   xmlns:cc="http://creativecommons.org/ns#"
   xmlns:rdf="http://www.w3.org/1999/02/22-rdf-syntax-ns#"
   xmlns:svg="http://www.w3.org/2000/svg"
   xmlns="http://www.w3.org/2000/svg"
   xmlns:sodipodi="http://sodipodi.sourceforge.net/DTD/sodipodi-0.dtd"
   xmlns:inkscape="http://www.inkscape.org/namespaces/inkscape"
   version="1.1"
   id="svg32"
   width="512"
   height="512"
   viewBox="0 0 512 512"
   sodipodi:docname="log-in.svg"
   inkscape:version="0.92.4 (5da689c313, 2019-01-14)">
  <metadata
     id="metadata38">
    <rdf:RDF>
      <cc:Work
         rdf:about="">
        <dc:format>image/svg+xml</dc:format>
        <dc:type
           rdf:resource="http://purl.org/dc/dcmitype/StillImage" />
        <dc:title></dc:title>
      </cc:Work>
    </rdf:RDF>
  </metadata>
  <defs
     id="defs36" />
  <sodipodi:namedview
     pagecolor="#ffffff"
     bordercolor="#666666"
     borderopacity="1"
     objecttolerance="10"
     gridtolerance="10"
     guidetolerance="10"
     inkscape:pageopacity="0"
     inkscape:pageshadow="2"
     inkscape:window-width="1920"
     inkscape:window-height="1017"
     id="namedview34"
     showgrid="false"
     inkscape:zoom="0.4609375"
     inkscape:cx="256"
     inkscape:cy="256"
     inkscape:window-x="1358"
     inkscape:window-y="-8"
     inkscape:window-maximized="1"
     inkscape:current-layer="svg32" />
  <path
     style=""
     d="M 43.389831,514.16949 C 32.444081,511.30188 24.693961,506.76479 16.154471,498.2253 7.4925405,489.56336 3.0527005,481.89205 0.16356053,470.59564 -1.6544995,463.48709 -1.8118795,459.41884 -1.8118795,419.53169 v -43.34004 h 19.9599305 19.95994 l 0.29006,43.25 0.29007,43.25 2.37316,3.81732 c 1.30524,2.09952 4.19738,5.02452 6.42697,6.5 l 4.05381,2.68268 H 254.11509 456.68812 l 3.81732,-2.37316 c 2.09952,-1.30524 5.02452,-4.19738 6.5,-6.42697 l 2.68268,-4.05381 V 260.19165 57.545594 l -2.68268,-4.053807 c -1.47548,-2.229594 -4.40048,-5.121731 -6.5,-6.426971 l -3.81732,-2.373164 H 254.11509 51.542061 l -4.05381,2.682682 c -2.22959,1.475476 -5.12173,4.400476 -6.42697,6.5 l -2.37316,3.817318 -0.29007,43.249998 -0.29006,43.25 H 18.148051 -1.8118795 v -43.34004 c 0,-39.887148 0.15738,-43.955394 1.97544003,-51.063947 C 3.0527005,38.491252 7.4925405,30.819937 16.154471,22.158005 24.816401,13.496073 32.487721,9.0562313 43.784131,6.1670961 51.351301,4.2317403 55.621141,4.1916515 254.18812,4.1916515 c 198.56697,0 202.83682,0.040089 210.40399,1.9754446 11.29641,2.8891352 18.96772,7.3289769 27.62966,15.9909089 8.66193,8.661932 13.10177,16.333247 15.99091,27.629658 1.93535,7.567168 1.97544,11.837014 1.97544,210.403987 0,198.56697 -0.0401,202.83682 -1.97544,210.40399 -2.88914,11.29641 -7.32898,18.96772 -15.99091,27.62966 -8.66194,8.66193 -16.33325,13.10177 -27.62966,15.99091 -7.57102,1.93634 -11.74411,1.97435 -210.81395,1.92038 -196.668289,-0.0533 -203.320819,-0.11552 -210.388329,-1.9671 z m 180.294059,-143.98208 -13.97743,-14.00423 37.98589,-37.99577 37.9859,-37.99576 H 141.93319 -1.8118795 v -20 -20 H 141.93319 285.67825 l -37.9904,-38.00027 -37.99041,-38.00028 14.24703,-14.24703 14.24703,-14.24703 62.2463,62.24629 62.24629,62.2463 -61.99496,62.00101 c -34.09723,34.10056 -62.22735,62.00101 -62.51138,62.00101 -0.28403,0 -6.80627,-6.30191 -14.49386,-14.00424 z"
     id="path42"
     inkscape:connector-curvature="0" />
</svg>
