<?xml version="1.0" encoding="UTF-8" standalone="no"?>
<!-- Created with Inkscape (http://www.inkscape.org/) -->

<svg
   xmlns:dc="http://purl.org/dc/elements/1.1/"
   xmlns:cc="http://creativecommons.org/ns#"
   xmlns:rdf="http://www.w3.org/1999/02/22-rdf-syntax-ns#"
   xmlns:svg="http://www.w3.org/2000/svg"
   xmlns="http://www.w3.org/2000/svg"
   xmlns:sodipodi="http://sodipodi.sourceforge.net/DTD/sodipodi-0.dtd"
   xmlns:inkscape="http://www.inkscape.org/namespaces/inkscape"
   version="1.1"
   id="svg20"
   width="240"
   height="210"
   viewBox="0 0 240 210"
   sodipodi:docname="pic.svg"
   inkscape:version="0.92.3 (2405546, 2018-03-11)">
  <metadata
     id="metadata26">
    <rdf:RDF>
      <cc:Work
         rdf:about="">
        <dc:format>image/svg+xml</dc:format>
        <dc:type
           rdf:resource="http://purl.org/dc/dcmitype/StillImage" />
        <dc:title></dc:title>
      </cc:Work>
    </rdf:RDF>
  </metadata>
  <defs
     id="defs24" />
  <sodipodi:namedview
     pagecolor="#ffffff"
     bordercolor="#666666"
     borderopacity="1"
     objecttolerance="10"
     gridtolerance="10"
     guidetolerance="10"
     inkscape:pageopacity="0"
     inkscape:pageshadow="2"
     inkscape:window-width="1920"
     inkscape:window-height="1017"
     id="namedview22"
     showgrid="false"
     inkscape:zoom="1.1238095"
     inkscape:cx="120"
     inkscape:cy="105"
     inkscape:window-x="-8"
     inkscape:window-y="-8"
     inkscape:window-maximized="1"
     inkscape:current-layer="svg20" />
  <path
     style=""
     d="M 0.88983029,104.11017 V -0.88983068 H 120.88983 h 120 V 104.11017 v 105 h -120 H 0.88983029 Z m 218.72747971,83.72328 2.77252,-2.77672 -0.0119,-17.72328 c -0.0102,-15.109 -0.27553,-18.20936 -1.79912,-21.01861 -2.21744,-4.0886 -35.88949,-38.54745 -40.37803,-41.32151 -2.11131,-1.30486 -4.08802,-1.79869 -5.54579,-1.38547 -1.24583,0.35314 -14.86515,13.40505 -30.26515,29.00424 -27.13598,27.48697 -28.14305,28.38268 -32.63563,29.02652 -2.92187,0.41873 -5.50972,0.21946 -7,-0.53903 -1.3004,-0.66186 -9.822049,-8.60806 -18.937009,-17.65824 -17.62728,-17.50201 -19.12946,-18.42343 -24.96978,-15.31625 -4.66586,2.48234 -37.34159,36.90386 -39.69471,41.81551 -4.11392,8.58696 -2.27563,17.58725 4.12525,20.19736 1.16153,0.47365 44.73925,0.77366 96.839359,0.66669 l 94.72748,-0.19449 2.77252,-2.77672 z m -77.22748,-79.12614 c 18.96225,-19.332481 28.88976,-28.751741 30.75657,-29.181971 6.19456,-1.42761 8.99,0.15665 20.03123,11.35232 5.82146,5.90288 12.08726,12.644431 13.924,14.981231 4.36211,5.5497 7.19777,7.45317 10.52722,7.06653 5.17712,-0.60121 5.28741,-1.64713 5.01324,-47.543361 L 222.38983,23.153952 219.6171,20.38206 216.84438,17.610169 H 120.88983 24.935291 l -2.77273,2.772162 -2.77273,2.772163 -0.24904,53.727835 c -0.27114,58.496621 -0.27681,58.431521 5.14438,59.056051 2.52641,0.29105 4.73168,-1.60296 19.47683,-16.72774 17.44188,-17.89096 19.62899,-19.378161 25.14058,-17.09519 1.63566,0.67751 10.64802,9.10991 20.02747,18.73866 l 17.053539,17.50682 4.20312,-0.55347 c 3.96017,-0.52148 5.82156,-2.20351 32.20312,-29.10015 z M 106.22181,96.111299 c -11.914609,-2.68901 -23.051399,-16.50332 -22.115519,-27.43256 0.30995,-3.6196 1.5591,-6.92046 4.36958,-11.54654 3.34371,-5.5038 4.80957,-6.91061 9.74752,-9.35492 8.189069,-4.05362 12.359599,-4.39969 19.743499,-1.63829 7.84756,2.93479 12.08141,7.02163 14.77159,14.25869 2.67907,7.20716 2.71751,12.12427 0.14847,18.99065 -2.23606,5.9764 -5.13174,9.1014 -12.49712,13.48679 -5.67237,3.37736 -9.5838,4.27079 -14.16802,3.23618 z m 6.46802,-22.20113 c 0.66,-0.66 1.2,-2.145 1.2,-3.3 0,-1.155 -0.54,-2.64 -1.2,-3.3 -1.73846,-1.73846 -6.47589,-1.48701 -7.19301,0.38179 -0.80664,2.10207 -0.77291,5.91896 0.0597,6.75154 1.10481,1.10484 5.84991,0.75007 7.13331,-0.53333 z"
     id="path30"
     inkscape:connector-curvature="0" />
</svg>
