<?xml version="1.0" encoding="UTF-8" standalone="no"?>
<!-- Created with Inkscape (http://www.inkscape.org/) -->

<svg
   xmlns:dc="http://purl.org/dc/elements/1.1/"
   xmlns:cc="http://creativecommons.org/ns#"
   xmlns:rdf="http://www.w3.org/1999/02/22-rdf-syntax-ns#"
   xmlns:svg="http://www.w3.org/2000/svg"
   xmlns="http://www.w3.org/2000/svg"
   xmlns:sodipodi="http://sodipodi.sourceforge.net/DTD/sodipodi-0.dtd"
   xmlns:inkscape="http://www.inkscape.org/namespaces/inkscape"
   version="1.1"
   id="svg38"
   width="110"
   height="110"
   viewBox="0 0 110 110"
   sodipodi:docname="tag.svg"
   inkscape:version="0.92.4 (5da689c313, 2019-01-14)">
  <metadata
     id="metadata44">
    <rdf:RDF>
      <cc:Work
         rdf:about="">
        <dc:format>image/svg+xml</dc:format>
        <dc:type
           rdf:resource="http://purl.org/dc/dcmitype/StillImage" />
        <dc:title></dc:title>
      </cc:Work>
    </rdf:RDF>
  </metadata>
  <defs
     id="defs42" />
  <sodipodi:namedview
     pagecolor="#ffffff"
     bordercolor="#666666"
     borderopacity="1"
     objecttolerance="10"
     gridtolerance="10"
     guidetolerance="10"
     inkscape:pageopacity="0"
     inkscape:pageshadow="2"
     inkscape:window-width="1920"
     inkscape:window-height="1017"
     id="namedview40"
     showgrid="false"
     inkscape:zoom="2.1454545"
     inkscape:cx="55"
     inkscape:cy="55"
     inkscape:window-x="-8"
     inkscape:window-y="-8"
     inkscape:window-maximized="1"
     inkscape:current-layer="svg38" />
  <path
     style=""
     d="m 38.999998,109.20875 c 0,-1.69235 -35.9794199,-37.742648 -37.6684499,-37.742648 -0.98191996,0 -1.3315499644068,-1.838038 -1.3315499644068,-7 0,-4.928769 0.3698600044068,-7.002532 1.2499999644068,-7.008558 1.86348,-0.01276 54.7499999,-53.5094308 54.7499999,-55.3816488 0,-1.43997705 2.84822,-1.60979305 27,-1.60979305 H 110 V 27.466102 c 0,24.261103 -0.16491,27 -1.62569,27 -1.87466,0 -55.323822,52.865788 -55.354172,54.749998 -0.0142,0.87903 -2.09754,1.25 -7.02014,1.25 -4.95514,0 -7,-0.3673 -7,-1.25735 z m 33.48728,-36.709024 c 13.14257,-13.181507 24.30646,-24.70057 24.80864,-25.597919 1.13193,-2.022641 1.56908,-29.102906 0.51957,-32.185705 -0.75344,-2.213142 -1.04003,-2.25 -17.49479,-2.25 h -16.7288 l -24.79595,24.723423 c -19.13476,19.07879 -24.79595,25.291848 -24.79595,27.213115 0,3.593612 28.48696,32.063459 32.08273,32.063459 1.94413,0 7.8885,-5.39547 26.40455,-23.966373 z m 4.71272,-39.233624 c -1.54692,-1.546918 -1.54692,-6.053082 0,-7.6 1.54692,-1.546918 6.05308,-1.546918 7.6,0 0.66,0.66 1.2,2.37 1.2,3.8 0,3.304758 -1.69524,5 -5,5 -1.43,0 -3.14,-0.54 -3.8,-1.2 z"
     id="path48"
     inkscape:connector-curvature="0" />
</svg>
