<?xml version="1.0" encoding="UTF-8" standalone="no"?>
<!-- Created with Inkscape (http://www.inkscape.org/) -->

<svg
   xmlns:dc="http://purl.org/dc/elements/1.1/"
   xmlns:cc="http://creativecommons.org/ns#"
   xmlns:rdf="http://www.w3.org/1999/02/22-rdf-syntax-ns#"
   xmlns:svg="http://www.w3.org/2000/svg"
   xmlns="http://www.w3.org/2000/svg"
   xmlns:sodipodi="http://sodipodi.sourceforge.net/DTD/sodipodi-0.dtd"
   xmlns:inkscape="http://www.inkscape.org/namespaces/inkscape"
   version="1.1"
   id="svg32"
   width="240"
   height="240"
   viewBox="0 0 240 240"
   sodipodi:docname="video.svg"
   inkscape:version="0.92.3 (2405546, 2018-03-11)">
  <metadata
     id="metadata38">
    <rdf:RDF>
      <cc:Work
         rdf:about="">
        <dc:format>image/svg+xml</dc:format>
        <dc:type
           rdf:resource="http://purl.org/dc/dcmitype/StillImage" />
        <dc:title></dc:title>
      </cc:Work>
    </rdf:RDF>
  </metadata>
  <defs
     id="defs36" />
  <sodipodi:namedview
     pagecolor="#ffffff"
     bordercolor="#666666"
     borderopacity="1"
     objecttolerance="10"
     gridtolerance="10"
     guidetolerance="10"
     inkscape:pageopacity="0"
     inkscape:pageshadow="2"
     inkscape:window-width="1920"
     inkscape:window-height="1017"
     id="namedview34"
     showgrid="false"
     inkscape:zoom="0.98333333"
     inkscape:cx="120"
     inkscape:cy="120"
     inkscape:window-x="-8"
     inkscape:window-y="-8"
     inkscape:window-maximized="1"
     inkscape:current-layer="svg32" />
  <path
     style=""
     d="m 84.816427,239.28543 c -0.28996,-2.51854 -1.17809,-3.05168 -10.61718,-6.37337 -5.66542,-1.9937 -11.29042,-4.53111 -12.5,-5.63869 -1.20959,-1.10758 -4.01573,-2.92472 -6.23588,-4.0381 -6.25589,-3.13725 -19.92482,-15.19119 -27.29533,-24.07036 -9.62974,-11.60085 -15.68695,-21.65349 -19.4601104,-32.29633 -2.98188,-8.41088 -3.57653,-9.366 -6.00866,-9.65111 L -3.3898306e-6,156.90105 V 122.03389 87.166744 L 2.6992666,86.850324 c 2.43213,-0.28511 3.02678,-1.24023 6.00866,-9.651118 3.7731604,-10.642834 9.8303704,-20.69548 19.4601104,-32.296326 7.37051,-8.879171 21.03944,-20.933108 27.29533,-24.070359 2.22015,-1.113379 5.02629,-2.930526 6.23588,-4.038106 1.20958,-1.107579 6.83458,-3.64499 12.5,-5.638692 9.43909,-3.3216836 10.32722,-3.8548206 10.61718,-6.3733676 l 0.31642,-2.748457 H 120 154.86716 l 0.31642,2.748457 c 0.28995,2.518547 1.17809,3.051684 10.61718,6.3733676 5.66541,1.993702 11.29041,4.531113 12.5,5.638692 1.20958,1.10758 4.01573,2.924727 6.23588,4.038106 6.23724,3.127901 19.91091,15.176484 27.29532,24.051325 9.45957,11.36883 15.97162,22.236939 19.56355,32.650052 2.81826,8.170196 3.35804,9.029176 5.85449,9.316426 l 2.75,0.31642 v 34.867146 34.86716 l -2.75,0.31642 c -2.49645,0.28725 -3.03623,1.14622 -5.85449,9.31642 -3.59193,10.41311 -10.10398,21.28122 -19.56355,32.65005 -7.38441,8.87484 -21.05808,20.92343 -27.29532,24.05133 -2.22015,1.11338 -5.0263,2.93052 -6.23588,4.0381 -1.20959,1.10758 -6.83459,3.64499 -12.5,5.63869 -9.43909,3.32169 -10.32723,3.85483 -10.61718,6.37337 l -0.31642,2.74846 H 120 85.132847 Z m 48.189013,-18.31145 c 4.64913,-0.58295 11.16232,-2.13407 14.47376,-3.44693 3.31144,-1.31285 8.9458,-3.44729 12.5208,-4.74318 8.00521,-2.9018 23.5851,-13.63056 31.12168,-21.43127 6.49912,-6.7269 18.25563,-23.70159 19.30146,-27.86851 0.39248,-1.56376 2.26835,-6.82199 4.16859,-11.68496 6.51031,-16.6607 6.94382,-42.00942 0.9758,-57.058536 -1.35376,-3.41368 -3.5171,-9.14142 -4.80743,-12.728296 -2.69716,-7.497591 -14.165,-24.164033 -21.41791,-31.12707 -6.42609,-6.169265 -22.7061,-17.495113 -27.23262,-18.945478 -1.98526,-0.636107 -7.56429,-2.685663 -12.39783,-4.554569 -11.82567,-4.572433 -25.61089,-6.130411 -40.17348,-4.540326 -7.44469,0.812884 -12.996173,2.122262 -19.249993,4.540326 -4.83355,1.868906 -10.41257,3.918462 -12.39783,4.554569 -4.52653,1.450365 -20.80654,12.776213 -27.23263,18.945478 -7.25291,6.963037 -18.72075,23.629479 -21.4179,31.12707 -1.29033,3.586876 -3.45368,9.314616 -4.80744,12.728296 -5.93956,14.977366 -5.53102,40.323836 0.91882,57.005036 1.8689,4.83354 3.91846,10.41257 4.55457,12.39783 1.45036,4.52652 12.77621,20.80653 18.94547,27.23262 6.96304,7.25291 23.62948,18.72075 31.12707,21.41791 3.58688,1.29033 9.29184,3.44456 12.67768,4.78718 10.164263,4.03054 25.188273,5.29385 40.349363,3.39281 z m -30.93286,-60.57495 c -2.00938,-2.55451 -2.072583,-3.72987 -2.072583,-38.54545 V 85.942984 l 2.454553,-2.45454 c 3.90837,-3.908376 8.67892,-2.991845 15.88738,3.05233 4.12092,3.45532 15.80689,12.00115 29.00785,21.213146 10.76024,7.5088 12.65022,9.5659 12.65022,13.76879 0,5.12325 -1.21208,6.87956 -8.10222,11.74018 -3.32989,2.34905 -9.28161,6.61115 -13.22606,9.47132 -3.94445,2.86018 -8.97172,6.43451 -11.17172,7.94296 -2.2,1.50845 -5.125,3.73497 -6.5,4.94781 -8.84834,7.80486 -15.26942,9.42444 -18.92742,4.77405 z"
     id="path42"
     inkscape:connector-curvature="0"
     inkscape:transform-center-x="264.40678"
     inkscape:transform-center-y="-14.237288" />
</svg>
