<?xml version="1.0" encoding="UTF-8" standalone="no"?>
<!-- Created with Inkscape (http://www.inkscape.org/) -->

<svg
   xmlns:dc="http://purl.org/dc/elements/1.1/"
   xmlns:cc="http://creativecommons.org/ns#"
   xmlns:rdf="http://www.w3.org/1999/02/22-rdf-syntax-ns#"
   xmlns:svg="http://www.w3.org/2000/svg"
   xmlns="http://www.w3.org/2000/svg"
   xmlns:sodipodi="http://sodipodi.sourceforge.net/DTD/sodipodi-0.dtd"
   xmlns:inkscape="http://www.inkscape.org/namespaces/inkscape"
   version="1.1"
   id="svg74"
   width="130"
   height="100"
   viewBox="0 0 130 100"
   sodipodi:docname="views.svg"
   inkscape:version="0.92.4 (5da689c313, 2019-01-14)">
  <metadata
     id="metadata80">
    <rdf:RDF>
      <cc:Work
         rdf:about="">
        <dc:format>image/svg+xml</dc:format>
        <dc:type
           rdf:resource="http://purl.org/dc/dcmitype/StillImage" />
        <dc:title></dc:title>
      </cc:Work>
    </rdf:RDF>
  </metadata>
  <defs
     id="defs78" />
  <sodipodi:namedview
     pagecolor="#ffffff"
     bordercolor="#666666"
     borderopacity="1"
     objecttolerance="10"
     gridtolerance="10"
     guidetolerance="10"
     inkscape:pageopacity="0"
     inkscape:pageshadow="2"
     inkscape:window-width="1920"
     inkscape:window-height="1017"
     id="namedview76"
     showgrid="false"
     inkscape:zoom="2.36"
     inkscape:cx="65"
     inkscape:cy="50"
     inkscape:window-x="-8"
     inkscape:window-y="-8"
     inkscape:window-maximized="1"
     inkscape:current-layer="svg74" />
  <g
     id="g84"
     transform="translate(0.42372983,0.42372883)">
    <path
       style=""
       d="M 38,98.475249 C 38,97.636636 36.914336,96.53773 35.587413,96.033234 27.957571,93.132374 9.1966219,74.775175 4.1271286,65.25 3.4685057,64.0125 2.2704652,63 1.4648162,63 0.25351337,63 0,60.750111 0,50 0,39.249889 0.25351337,37 1.4648162,37 2.2704652,37 3.4685057,35.9875 4.1271286,34.75 9.1966219,25.224825 27.957571,6.8676264 35.587413,3.9667657 36.914336,3.4622705 38,2.3633638 38,1.5247508 38,0.19606455 41.471874,0 65,0 88.528126,0 92,0.19606455 92,1.5247508 92,2.3633638 93.148776,3.4862657 94.552837,4.0200885 102.15756,6.9114007 120.75466,25.198987 125.9366,34.881544 126.56017,36.046695 127.72953,37 128.53518,37 129.74649,37 130,39.249889 130,50 c 0,10.750111 -0.25351,13 -1.46482,13 -0.80565,0 -1.97501,0.953305 -2.59858,2.118456 -5.18194,9.682557 -23.77904,27.970143 -31.383763,30.861456 C 93.148776,96.513734 92,97.636636 92,98.475249 92,99.803935 88.528126,100 65,100 41.471874,100 38,99.803935 38,98.475249 Z M 79,81.584686 c 3.025,-1.410831 6.244924,-2.569544 7.155386,-2.574917 0.910463,-0.0054 3.494122,-1.545989 5.741465,-3.423591 2.247343,-1.877601 4.427419,-3.565101 4.844614,-3.75 2.169997,-0.96173 11.843495,-12.924296 13.533895,-16.736448 1.70638,-3.848219 1.79712,-4.914615 0.72329,-8.5 C 109.73098,42.367154 105.7827,36.694829 100.51979,31.545221 95.714604,26.843481 87.692235,21.000886 86.026912,20.990231 85.18711,20.984858 82.025,19.781031 79,18.315059 c -7.927097,-3.84162 -20.072903,-3.84162 -28,0 -3.025,1.465972 -6.18711,2.669799 -7.026912,2.675172 C 40.936174,21.009661 29.127476,31.046194 23.371593,38.5 c -6.464749,8.371781 -6.464749,14.628219 0,23 5.742718,7.436758 17.548799,17.478054 20.601495,17.521962 0.839802,0.01208 3.551912,0.968005 6.026912,2.124279 6.84482,3.197774 9.912484,3.809329 17,3.389042 4.215096,-0.249955 8.43338,-1.287159 12,-2.950597 z M 60,77.006925 C 54.464466,76.383347 46.529822,70.863672 42.384985,64.753172 39.658221,60.733257 39.5,59.924149 39.5,50 c 0,-10.470763 0.0097,-10.51261 3.5,-15.028496 1.925,-2.490673 5.569755,-6.156805 8.099455,-8.14696 4.77842,-3.759259 7.290443,-4.2817 19.009814,-3.953591 C 75.536279,23.022894 80.52592,26.529829 86.654993,34.5 L 90.5,39.5 V 50 c 0,10.470763 -0.0097,10.51261 -3.5,15.028496 -1.925,2.490673 -5.544521,6.136985 -8.04338,8.102917 C 74.071196,76.974931 68.971358,78.017547 60,77.006925 Z m 9.997119,-20.623287 c 5.170194,-4.67096 5.238394,-7.534033 0.299933,-12.591475 C 68.260431,41.706473 65.916904,40 65.089215,40 c -0.827689,0 -3.211363,1.666326 -5.297052,3.702948 -5.084705,4.965081 -5.035249,7.941274 0.210718,12.68069 C 62.204465,58.372637 64.453169,60 65,60 c 0.546831,0 2.795535,-1.627363 4.997119,-3.616362 z"
       id="path98"
       inkscape:connector-curvature="0" />
    <path
       style=""
       d="M 41,98.079455 C 41,96.783577 40.078167,95.956442 38.165811,95.536418 30.452798,93.842356 10.476411,74.557105 4.5365177,63.070617 3.6631848,61.381778 2.2851958,60 1.4743199,60 0.27351471,60 0,58.144808 0,50 0,41.855192 0.27351471,40 1.4743199,40 2.2851958,40 3.6631848,38.618222 4.5365177,36.929383 10.476411,25.442895 30.452798,6.1576437 38.165811,4.4635817 40.078167,4.043558 41,3.2164233 41,1.9205447 41,0.07983355 41.997636,0 65,0 88.002364,0 89,0.07983355 89,1.9205447 89,3.2164233 89.921833,4.043558 91.834189,4.4635817 99.547202,6.1576437 119.52359,25.442895 125.46348,36.929383 126.33682,38.618222 127.7148,40 128.52568,40 129.72649,40 130,41.855192 130,50 c 0,8.144808 -0.27351,10 -1.47432,10 -0.81088,0 -2.18886,1.381778 -3.0622,3.070617 C 119.52359,74.557105 99.547202,93.842356 91.834189,95.536418 89.921833,95.956442 89,96.783577 89,98.079455 89,99.920166 88.002364,100 65,100 41.997636,100 41,99.920166 41,98.079455 Z M 82.641351,81.905312 C 90.557219,78.842512 92.320347,77.643167 100.1707,69.98121 110.77682,59.629613 114.72539,52.445695 112.8541,46.905412 110.86201,41.007506 103.19936,31.586869 94.938271,24.879299 92.485667,22.887914 86.883719,19.773277 82.489496,17.957883 75.56779,15.098305 73.297157,14.646665 65.5,14.578584 57.513652,14.508851 55.516681,14.885706 47.769322,17.924602 40.821702,20.6498 37.621002,22.643059 32.097214,27.684515 24.425119,34.68669 18.87433,41.788229 17.204865,46.73741 c -1.630302,4.833081 0.775844,10.546726 7.821427,18.572792 7.703221,8.775221 13.205084,12.917565 21.654396,16.303558 9.70662,3.889849 11.936151,4.335743 19.98944,3.997772 5.239198,-0.219872 9.540281,-1.217965 15.971223,-3.70622 z M 51.999975,72.066321 c -3.027268,-2.165155 -6.84873,-6.099024 -8.499975,-8.75 -2.727092,-4.378184 -3,-5.598237 -3,-13.411718 0,-8.268398 0.138576,-8.79335 3.642571,-13.798768 2.003414,-2.861854 5.826975,-6.756425 8.496802,-8.654603 C 57.146815,24.246559 58.035252,24 65.075358,24 c 6.807989,0 8.060159,0.316883 12.269431,3.104989 2.622589,1.737131 6.332535,5.583071 8.421444,8.730146 3.587475,5.40476 3.733767,5.962709 3.733767,14.240408 0,8.291237 -0.136995,8.810945 -3.642571,13.818622 -2.003414,2.861854 -5.826975,6.756425 -8.496802,8.654603 C 72.863936,75.745798 71.953741,76 65.003173,76 57.869281,76 57.229225,75.806373 51.999975,72.066321 Z M 71.117647,57.117647 C 74.027451,54.207843 75,52.424837 75,50 75,46.094673 68.550297,39 65,39 c -3.550297,0 -10,7.094673 -10,11 0,3.905327 6.449703,11 10,11 1.26322,0 3.923633,-1.688338 6.117647,-3.882353 z"
       id="path96"
       inkscape:connector-curvature="0" />
    <path
       style=""
       d="M 44,98.48739 C 44,97.613623 41.65409,95.937307 38.445509,94.51832 32.207197,91.759443 29.246539,89.686601 21.371325,82.564193 15.777676,77.505251 7.5426084,67.039318 4.600357,61.25 3.6919125,59.4625 2.2851958,58 1.4743199,58 0.2980867,58 0,56.382513 0,50 0,43.617487 0.2980867,42 1.4743199,42 2.2851958,42 3.6919125,40.5375 4.600357,38.75 7.5426084,32.960682 15.777676,22.494749 21.371325,17.435807 29.246539,10.313399 32.207197,8.2405569 38.445509,5.4816796 41.65409,4.0626929 44,2.386377 44,1.51261 44,0.21048271 46.922192,0 65,0 c 18.077808,0 21,0.21048271 21,1.51261 0,0.873767 2.34591,2.5500829 5.554491,3.9690696 6.238312,2.7588773 9.198969,4.8317194 17.074179,11.9541274 5.59365,5.058942 13.82872,15.524875 16.77097,21.314193 0.90845,1.7875 2.31516,3.25 3.12604,3.25 1.17623,0 1.47432,1.617487 1.47432,8 0,6.382513 -0.29809,8 -1.47432,8 -0.81088,0 -2.21759,1.4625 -3.12604,3.25 -2.94225,5.789318 -11.17732,16.255251 -16.77097,21.314193 -7.87521,7.122408 -10.835867,9.19525 -17.074179,11.954127 C 88.34591,95.937307 86,97.613623 86,98.48739 86,99.789517 83.077808,100 65,100 46.922192,100 44,99.789517 44,98.48739 Z M 82.610783,82.891985 c 7.63429,-3.056918 14.948897,-7.896523 19.249307,-12.736033 5.68745,-6.400413 9.05029,-10.956631 11.1245,-15.072266 2.03969,-4.047136 2.11357,-4.756218 0.88381,-8.48244 C 112.07659,41.172001 102.65502,29.48975 95.928982,24.357296 92.943042,22.078809 86.9,18.743961 82.5,16.946524 75.400966,14.046508 73.430103,13.678456 65,13.678456 c -8.443689,0 -10.382359,0.363423 -17.435555,3.268472 -4.364555,1.79766 -10.386979,5.119316 -13.383165,7.381458 -6.368448,4.808225 -14.300129,14.265615 -17.278823,20.602515 -1.8755,3.989953 -1.959454,4.866367 -0.802092,8.373207 1.876216,5.684991 10.143079,16.106401 17.064233,21.511591 6.088376,4.754818 16.071206,9.536405 23.335402,11.177216 6.791338,1.534004 17.80092,0.2265 26.110783,-3.10093 z M 59.422231,75.106648 C 54.614726,73.882658 47.478851,67.993254 44.088548,62.451401 41.434878,58.113661 41,56.445299 41,50.60253 c 0,-9.782278 3.979544,-16.851349 13.009182,-23.108893 3.627793,-2.514062 5.112024,-2.905402 11.0193,-2.905402 6.078492,0 7.356448,0.361426 11.658699,3.297263 2.657541,1.813495 6.386584,5.618642 8.28676,8.455882 2.964523,4.426464 3.510063,6.170739 3.843763,12.289803 0.429254,7.871225 -0.720794,11.369214 -5.73977,17.458102 -6.327945,7.676894 -15.375109,11.1256 -23.655703,9.017363 z m 9.530886,-14.582404 c 3.380748,-1.748252 7.048406,-7.290128 7.043145,-10.642278 -0.0057,-3.654046 -3.593368,-8.722196 -7.489417,-10.580093 -3.277779,-1.563063 -3.735911,-1.563063 -7.01369,0 -3.861814,1.841571 -7.483598,6.918164 -7.489417,10.497787 -0.0058,3.571947 2.77374,8.093902 6.294811,10.240824 3.84462,2.344203 4.938616,2.405354 8.654568,0.48376 z"
       id="path94"
       inkscape:connector-curvature="0" />
    <path
       style=""
       d="M 46.744666,98.131605 C 46.451441,97.010309 44.305531,95.537905 41.378035,94.449321 29.120924,89.891536 12.955708,74.634315 6.0575194,61.112747 4.8394604,58.725155 2.9782217,56.54556 1.9214334,56.269203 c -2.85990251,-0.747881 -2.85990251,-11.790525 0,-12.538406 1.0567883,-0.276357 2.918027,-2.455952 4.136086,-4.843544 C 12.955708,25.365685 29.120924,10.108464 41.378035,5.5506791 44.305531,4.4620951 46.451441,2.9896906 46.744666,1.8683952 47.198663,0.13231037 48.491414,0 65,0 c 16.508586,0 17.801337,0.13231037 18.255334,1.8683952 0.293225,1.1212954 2.439135,2.5936999 5.366631,3.6822839 12.257115,4.5577849 28.422325,19.8150059 35.320515,33.3365739 1.21806,2.387592 3.0793,4.567187 4.13609,4.843544 C 129.69359,44.153136 130,45.152866 130,50 c 0,4.847134 -0.30641,5.846864 -1.92143,6.269203 -1.05679,0.276357 -2.91803,2.455952 -4.13609,4.843544 -6.89819,13.521568 -23.0634,28.778789 -35.320515,33.336574 -2.927496,1.088584 -5.073406,2.560988 -5.366631,3.682284 C 82.801337,99.86769 81.508586,100 65,100 48.491414,100 47.198663,99.86769 46.744666,98.131605 Z M 84.615508,83.364603 c 7.509297,-3.225961 9.977265,-4.949581 16.925382,-11.820627 8.31784,-8.225588 14.43297,-17.251275 14.44973,-21.32722 0.0193,-4.6898 -5.32731,-12.767435 -14.38336,-21.730419 C 93.421699,20.384901 91.641955,19.133987 84.021706,16.126128 69.362844,10.339995 57.021097,10.79186 42.40479,17.649836 31.367304,22.828627 14,42.608219 14,50 c 0,5.795568 11.76001,21.059481 21.782228,28.272257 4.617241,3.322931 13.141681,7.17889 19.518212,8.828903 1.759758,0.45536 7.097534,0.650666 11.861724,0.434011 7.280524,-0.331086 10.064382,-0.996303 17.453344,-4.170568 z M 60.958151,74.023017 C 55.441279,73.025339 48.358478,67.554039 44.997509,61.693789 42.531444,57.393911 42.017153,55.37589 42.009384,49.968712 42.001126,44.22127 42.422429,42.762083 45.51983,37.810233 55.642727,21.626646 74.351928,21.618101 84.469042,37.792443 87.566684,42.744678 88,44.232974 88,49.920113 c 0,5.522025 -0.472687,7.262618 -3.189755,11.745759 -5.50459,9.082533 -14.937206,13.969324 -23.852094,12.357145 z M 72.631579,58.631579 C 76.423219,54.839939 77,53.700275 77,50 77,46.299725 76.423219,45.160061 72.631579,41.368421 69.25863,37.995473 67.519552,37 65,37 62.480448,37 60.74137,37.995473 57.368421,41.368421 53.576781,45.160061 53,46.299725 53,50 c 0,3.700275 0.576781,4.839939 4.368421,8.631579 5.972843,5.972843 9.290315,5.972843 15.263158,0 z"
       id="path92"
       inkscape:connector-curvature="0" />
    <path
       style=""
       d="M 50,98.546794 C 50,97.211509 42.160218,93 39.674565,93 37.497452,93 25.326339,83.967302 19.899306,78.323943 14.126917,72.32146 10.23512,66.997585 5.5905957,58.75 4.1193988,56.1375 2.2596615,54 1.4578462,54 0.42369231,54 0,52.837484 0,50 0,47.162516 0.42369231,46 1.4578462,46 2.2596615,46 4.1193988,43.8625 5.5905957,41.25 10.23512,33.002415 14.126917,27.67854 19.899306,21.676057 25.326339,16.032698 37.497452,7 39.674565,7 42.160218,7 50,2.788491 50,1.4532056 50,0.24685171 52.548005,0 65,0 77.451995,0 80,0.24685171 80,1.4532056 80,2.788491 87.839782,7 90.325435,7 c 2.177113,0 14.348225,9.032698 19.775255,14.676057 5.77239,6.002483 9.66419,11.326358 14.30871,19.573943 1.4712,2.6125 3.33094,4.75 4.13275,4.75 1.03416,0 1.45785,1.162516 1.45785,4 0,2.837484 -0.42369,4 -1.45785,4 -0.80181,0 -2.66155,2.1375 -4.13275,4.75 -4.64452,8.247585 -8.53632,13.57146 -14.30871,19.573943 C 104.67366,83.967302 92.502548,93 90.325435,93 87.839782,93 80,97.211509 80,98.546794 80,99.753148 77.451995,100 65,100 52.548005,100 50,99.753148 50,98.546794 Z M 72.125313,88.079689 C 82.765345,86.706791 92.513952,81.532159 101.85121,72.300964 110.89135,63.363514 117,54.440959 117,50.17399 117,45.470385 112.18667,38.121803 103.00182,28.802771 96.177249,21.878496 92.867268,19.363487 86.764707,16.465394 67.052553,7.1041337 45.775378,10.813769 29.132963,26.513381 20.562176,34.598627 13,45.494574 13,49.75853 13,54.528053 17.771467,61.83572 26.998179,71.197229 38.633624,83.002661 48.77577,87.837468 64,88.836164 c 0.825,0.05412 4.481391,-0.286294 8.125313,-0.756475 z M 60,73.350745 C 59.175,73.021425 56.228971,71.269446 53.453269,69.457459 38.772157,59.87358 39.159432,39.743843 54.213503,29.942064 58.62005,27.07294 60.419294,26.5 65.022861,26.5 c 4.555973,0 6.434176,0.584789 10.728278,3.340306 15.227709,9.771594 15.303903,30.30742 0.148886,40.127536 C 70.812547,73.264415 63.61828,74.795073 60,73.350745 Z M 70.5,61.848321 c 1.1,-0.564288 3.125,-2.430519 4.5,-4.147181 5.140405,-6.417698 2.317904,-16.424278 -5.706799,-20.232248 -4.488508,-2.129937 -8.538034,-1.157392 -12.759868,3.064441 -5.842581,5.842582 -5.835911,13.097422 0.01742,18.950757 4.463949,4.463949 8.517026,5.150897 13.949243,2.364231 z"
       id="path90"
       inkscape:connector-curvature="0" />
    <path
       style=""
       d="M 51.769421,98.226268 C 51.462087,97.051019 48.550377,95.493422 43.139946,93.609994 38.648847,92.046596 34.717265,90.351541 34.403096,89.843206 34.088928,89.334871 32.182207,87.873137 30.16594,86.594909 22.321131,81.621632 12.802076,70.440763 5.6082535,57.75 4.1273448,55.1375 2.2596615,53 1.4578462,53 0.50468376,53 0,51.961446 0,50 0,48.038554 0.50468376,47 1.4578462,47 2.2596615,47 4.1273448,44.8625 5.6082535,42.25 16.306377,23.37723 29.25804,11.25705 44.406421,5.9426337 48.797892,4.4020002 51.480426,2.8788526 51.773052,1.7598476 52.182013,0.19598009 53.654992,0 65,0 c 11.382865,0 12.817016,0.19226666 13.230579,1.7737317 0.307334,1.175249 3.219044,2.7328466 8.629475,4.6162739 4.491099,1.5633983 8.422681,3.258453 8.73685,3.7667884 0.314168,0.508335 2.220889,1.970069 4.237156,3.248297 7.84481,4.973277 17.36386,16.154146 24.55769,28.844909 1.48091,2.6125 3.34859,4.75 4.1504,4.75 0.95317,0 1.45785,1.038554 1.45785,3 0,1.961446 -0.50468,3 -1.45785,3 -0.80181,0 -2.66949,2.1375 -4.1504,4.75 C 113.69362,76.62277 100.74196,88.74295 85.593579,94.057366 81.202108,95.598 78.519574,97.121147 78.226948,98.240152 77.817987,99.80402 76.345008,100 65,100 53.617135,100 52.182984,99.807733 51.769421,98.226268 Z M 86.298075,84.586965 C 92.353756,81.719939 95.940178,79.063371 102.34909,72.697507 111.0321,64.072828 118,53.888875 118,49.822893 118,45.991848 108.68363,32.820206 100.83266,25.551406 96.261824,21.319516 90.887439,17.55849 86.07229,15.222015 L 78.5,11.547681 H 65 51.5 L 44,15.208249 C 39.378108,17.464082 33.721875,21.41574 29.260544,25.505789 21.247607,32.851871 12,45.975028 12,50 c 0,7.250248 19.156548,28.803651 30,33.75358 11.340701,5.176918 11.931026,5.295014 24.5,4.901263 11.385091,-0.356664 12.399592,-0.565111 19.798075,-4.067878 z M 54.119844,69.248352 C 47.357473,64.537012 43,56.994265 43,50 c 0,-6.994265 4.357473,-14.537012 11.119844,-19.248352 4.64966,-3.239415 6.137678,-3.748575 10.959362,-3.75 4.837052,-0.0014 6.286107,0.497182 10.893401,3.748352 C 90.47346,40.98263 90.419939,59.062782 75.858645,69.248352 71.244957,72.475609 69.735392,72.996703 65,72.996703 c -4.731566,0 -6.25169,-0.523701 -10.880156,-3.748351 z M 73.631579,59.631579 C 77.682807,55.580351 78,54.880998 78,50 78,45.119002 77.682807,44.419649 73.631579,40.368421 70.036365,36.773208 68.603431,36 65.535871,36 57.901461,36 52,42.297157 52,50.443459 c 0,4.357396 0.419017,5.238716 4.368421,9.18812 C 60.160061,63.423219 61.299725,64 65,64 c 3.700275,0 4.839939,-0.576781 8.631579,-4.368421 z"
       id="path88"
       inkscape:connector-curvature="0" />
    <path
       style=""
       d="M 58,98.547004 C 58,97.747856 56.5375,96.636179 54.75,96.076611 43.08618,92.425307 36.434869,89.702261 33.833603,87.51344 32.190724,86.131048 30.487411,85 30.048464,85 28.421589,85 15.834292,71.646659 12.297245,66.168469 6.9300499,57.855738 4,52.146081 4,50 4,47.853919 6.9300499,42.144262 12.297245,33.831531 15.834292,28.353341 28.421589,15 30.048464,15 c 0.438947,0 2.14226,-1.131048 3.785139,-2.51344 C 36.434869,10.297739 43.08618,7.5746929 54.75,3.9233892 56.5375,3.3638208 58,2.2521439 58,1.452996 58,0.32071523 59.545088,0 65,0 c 5.454912,0 7,0.32071523 7,1.452996 0,0.7991479 1.4625,1.9108248 3.25,2.4703932 C 86.91382,7.5746929 93.565131,10.297739 96.166397,12.48656 97.809276,13.868952 99.512589,15 99.951536,15 101.57841,15 114.16571,28.353341 117.70275,33.831531 123.06995,42.144262 126,47.853919 126,50 c 0,2.146081 -2.93005,7.855738 -8.29725,16.168469 C 114.16571,71.646659 101.57841,85 99.951536,85 99.512589,85 97.809276,86.131048 96.166397,87.51344 93.565131,89.702261 86.91382,92.425307 75.25,96.076611 73.4625,96.636179 72,97.747856 72,98.547004 72,99.679285 70.454912,100 65,100 59.545088,100 58,99.679285 58,98.547004 Z M 87.495637,85.5 c 6.022594,-3.01294 10.018613,-6.018375 16.193633,-12.179345 4.50889,-4.49864 9.1325,-10.01114 10.27468,-12.25 C 115.10614,58.831795 116.46035,57 116.97332,57 c 1.56245,0 2.94418,-6.800879 2.02961,-9.989775 C 117.74175,42.612755 107.60839,29.66265 100.63076,23.531192 97.258844,20.568182 91.35,16.433223 87.5,14.342395 L 80.5,10.540889 65.476208,10.520445 50.452417,10.5 l -7.94772,4 C 33.419414,19.072523 19.752175,31.645129 16.11354,38.777443 14.928737,41.099849 13.553396,43 13.057228,43 c -0.496168,0 -1.426357,1.588443 -2.067087,3.529873 -1.1845414,3.589196 -0.406368,7.865349 1.946932,10.69862 0.580859,0.699329 3.131163,4.097812 5.667343,7.552186 6.019876,8.199301 15.229689,16.21215 23.647928,20.574498 8.936555,4.63094 8.2721,4.510205 23.747656,4.315058 L 79.5,89.5 Z M 55.222807,68.398184 C 48.650372,63.959123 44.023089,56.463919 44.009384,50.234851 43.987248,40.173874 55.479887,28 65,28 c 9.388049,0 21,12.164902 21,22 0,6.127161 -5.023341,14.244822 -11.457904,18.515842 -7.215074,4.789093 -12.098431,4.759352 -19.319289,-0.117658 z M 74.631579,60.631579 C 78.859502,56.403656 79,56.061721 79,50 79,43.938279 78.859502,43.596344 74.631579,39.368421 70.580351,35.317193 69.880998,35 65,35 60.119002,35 59.419649,35.317193 55.368421,39.368421 51.140498,43.596344 51,43.938279 51,50 c 0,6.061721 0.140498,6.403656 4.368421,10.631579 C 59.419649,64.682807 60.119002,65 65,65 c 4.880998,0 5.580351,-0.317193 9.631579,-4.368421 z"
       id="path86"
       inkscape:connector-curvature="0" />
  </g>
</svg>
