<svg xmlns="http://www.w3.org/2000/svg" width="310" height="210" viewBox="0 0 310 210"><path d="M93.587 203.86c-8.994-1.634-17.355-8.903-20.22-17.58-.677-2.054-.968-6.447-.688-10.37.574-8.025 4.42-15.016 10.63-19.318 10.331-7.16 26.078-5.77 34.328 3.032 9.9 10.56 9.242 28.326-1.403 37.944-6.46 5.836-13.848 7.889-22.647 6.291zm15.587-15.127c3.192-3.192 3.677-4.334 4.004-9.432.293-4.562-.064-6.497-1.673-9.06-4.21-6.705-12.44-9.054-19.683-5.618-10.27 4.874-11.05 19.68-1.381 26.196 2.928 1.973 4.448 2.292 9.3 1.952 5.076-.355 6.255-.86 9.433-4.038zm130.61 15.223c-8.887-1.753-16.698-7.914-20.134-15.883-2.316-5.372-2.036-15.673.563-20.69C225.578 157.026 233.493 152 244.44 152c15.95 0 27.051 12.314 25.747 28.562-1.24 15.436-15.421 26.348-30.404 23.394zm12.759-13.226c6.489-4.335 8.68-12.908 5.046-19.746-7.346-13.824-28.14-8.64-28.14 7.016 0 11.875 13.355 19.236 23.094 12.73zM37.096 168.171c-1.363-1.506-1.655-4.143-1.655-14.943 0-12.419.118-13.197 2.222-14.671 6.042-4.232 8.778-.72 8.778 11.272V159h7.345c7.885 0 10.655 1.475 10.655 5.674 0 4.284-2.87 5.326-14.674 5.326-9.402 0-11.259-.268-12.671-1.829zm96.677-.786c-1.537-2.346-1.561-2.887-.235-5.25l1.478-2.635 26.212-.267 26.213-.266V17h-141v19.929c0 16.783-.248 20.176-1.572 21.5-2.107 2.107-5.742 1.987-7.773-.258-1.441-1.592-1.655-4.863-1.655-25.309 0-18.7.289-23.875 1.42-25.42C38.243 5.547 40.228 5.5 116.94 5.5s78.696.048 80.08 1.941c1.036 1.417 1.42 5.13 1.42 13.75V33h52.911l21.294 17.582c11.712 9.67 22.082 18.495 23.045 19.61 1.613 1.87 1.75 5.702 1.75 48.919 0 55.353 1.052 50.889-12 50.889-6.667 0-8.334-.333-10-2-2.397-2.397-2.5-3.841-.481-6.723 1.123-1.605 2.75-2.248 6.25-2.473l4.73-.304.242-41 .24-41-19.652-16.25L247.117 44h-48.676v115h7.345c5.845 0 7.683.373 9 1.829 2.17 2.399 2.1 5.458-.174 7.516-1.635 1.48-5.918 1.655-40.477 1.655h-38.648zM8.78 131c-4.338-1.749-4.132-8.369.312-10.058 1.387-.528 18.438-.943 38.692-.943 39.994 0 40.658.098 40.658 6 0 5.917-.62 6.007-40.973 5.937-20.09-.035-37.5-.456-38.69-.936zm204.884-11.558c-2.204-1.544-2.222-1.78-2.222-28.8 0-19.856.325-27.568 1.2-28.443.845-.845 6.534-1.198 19.25-1.192l18.05.008 10.25 9.134 10.25 9.133v19.301c0 18.813-.057 19.342-2.223 20.859-1.868 1.308-6.22 1.556-27.277 1.556-21.059 0-25.41-.248-27.278-1.556zm45.778-22.24V84.409l-6.93-6.204L245.583 72h-23.141v18.333c0 10.084.3 18.634.666 19 .367.367 8.692.667 18.5.667h17.834zM19.097 102.17c-2.172-2.399-2.1-5.458.173-7.516C20.902 93.177 25.09 93 58.335 93c23.469 0 37.944.378 39.148 1.023 3.323 1.778 4.319 4.777 2.506 7.544L98.395 104H59.573c-36.34 0-38.928-.117-40.477-1.829zM31.44 75c-2.407-2.407-2.501-3.84-.444-6.777L32.554 66h77.773l1.557 2.223c2.057 2.937 1.964 4.37-.443 6.777-1.93 1.93-3.334 2-40 2-36.667 0-38.07-.07-40-2z"/></svg>