<svg xmlns="http://www.w3.org/2000/svg" width="110" height="110" viewBox="0 0 110 110"><path d="M39 109.209c0-1.693-35.98-37.743-37.668-37.743-.982 0-1.332-1.838-1.332-7 0-4.929.37-7.002 1.25-7.008C3.113 57.445 56 3.948 56 2.076c0-1.44 2.848-1.61 27-1.61h27v27c0 24.261-.165 27-1.626 27-1.874 0-55.324 52.866-55.354 54.75-.014.88-2.097 1.25-7.02 1.25-4.955 0-7-.367-7-1.257zm33.487-36.71C85.63 59.32 96.794 47.8 97.296 46.903c1.132-2.023 1.569-29.103.52-32.186-.754-2.213-1.04-2.25-17.495-2.25H63.59L38.797 37.19C19.66 56.268 14 62.48 14 64.403c0 3.593 28.487 32.063 32.083 32.063 1.944 0 7.888-5.395 26.404-23.966zM77.2 33.267c-1.547-1.547-1.547-6.053 0-7.6 1.547-1.547 6.053-1.547 7.6 0 .66.66 1.2 2.37 1.2 3.8 0 3.305-1.695 5-5 5-1.43 0-3.14-.54-3.8-1.2z" fill="#9baaab"/></svg>